<svg xmlns="http://www.w3.org/2000/svg" viewBox="0 0 453 300"><defs><style>.cls-1{fill:#cff1f9;}.cls-2{fill:#79d0ea;}.cls-3{fill:#feffff;}.cls-4{fill:#242223;}.cls-5{fill:#c5c6c7;}.cls-6{fill:#dcdcdc;}.cls-7{fill:#d3d3d3;}.cls-8{fill:#fcfffb;}.cls-9{fill:#66fcf1;}.cls-10{fill:#fff;}.cls-11{fill:#45a29e;}</style></defs><title>bullet2</title><g id="Bullet_2" data-name="Bullet 2"><polygon class="cls-1" points="258.4 242.3 194.2 242.3 184.4 289.8 268.5 289.8 258.4 242.3"/><polygon class="cls-2" points="259.5 246.7 193.5 246.6 191.7 255 261.3 254.9 259.5 246.7"/><rect class="cls-3" x="44.8" y="16" width="363.4" height="234.08" rx="2.9" ry="2.9"/><path class="cls-4" d="M47.7,16H405.2a2.9,2.9,0,0,1,2.9,2.9v202a.1.1,0,0,1-.1.1H44.9a.1.1,0,0,1-.1-.1V18.9A2.9,2.9,0,0,1,47.7,16Z"/><rect class="cls-5" x="54.3" y="24.5" width="343.9" height="187.18"/><path class="cls-6" d="M70.2,41.1h84.1a3.4,3.4,0,0,1,3.4,3.4v87.7a3.4,3.4,0,0,1-3.4,3.4H73.6a3.4,3.4,0,0,1-3.4-3.4V41.1A0,0,0,0,1,70.2,41.1Z"/><path class="cls-7" d="M65.6,35.7h84.1a3.4,3.4,0,0,1,3.4,3.4v87.7a3.4,3.4,0,0,1-3.4,3.4H69a3.4,3.4,0,0,1-3.4-3.4V35.7A0,0,0,0,1,65.6,35.7Z"/><path class="cls-6" d="M185.8,76.3h84.1a3.4,3.4,0,0,1,3.4,3.4v87.7a3.4,3.4,0,0,1-3.4,3.4H189.2a3.4,3.4,0,0,1-3.4-3.4V76.3A0,0,0,0,1,185.8,76.3Z"/><path class="cls-7" d="M181.2,70.9h84.1a3.4,3.4,0,0,1,3.4,3.4V162a3.4,3.4,0,0,1-3.4,3.4H184.6a3.4,3.4,0,0,1-3.4-3.4V70.9A0,0,0,0,1,181.2,70.9Z"/><path class="cls-6" d="M299.8,106.8H384a3.4,3.4,0,0,1,3.4,3.4v87.7a3.4,3.4,0,0,1-3.4,3.4H303.2a3.4,3.4,0,0,1-3.4-3.4V106.8A0,0,0,0,1,299.8,106.8Z"/><path class="cls-7" d="M295.2,101.3h84.1a3.4,3.4,0,0,1,3.4,3.4v87.7a3.4,3.4,0,0,1-3.4,3.4H298.6a3.4,3.4,0,0,1-3.4-3.4V101.3A0,0,0,0,1,295.2,101.3Z"/><rect class="cls-8" x="170.6" y="283.2" width="110.2" height="7.58" rx="0.4" ry="0.4"/><path class="cls-9" d="M73.5,71.5h5v8h7.9v-8h5V91.8h-5v-8H78.5v8h-5Zm3.7,19.3v-7H74.7v7Zm12.9,0v-7H87.7v7Z"/><path class="cls-9" d="M98.2,75.9H93.7V71.5h14.1v4.4h-4.6V91.8h-5ZM102,90.8V75.9H99.4V90.8Z"/><path class="cls-9" d="M110.1,71.5h4.7l5.1,10.9,5.3-10.9h4.5V91.8h-4.9v-9l-4.4,9.7h-.9l-4.4-9.8v9.1h-5Zm3.7,19.3V79.7l-2.4-5.5V90.8Zm11-10.7V75l-4.1,8.8,1.1,2.7Z"/><path class="cls-9" d="M133,71.5h5v16h8.8v4.3H133Zm3.7,17V72.4h-2.5V90.8Z"/><path class="cls-10" d="M209.5,106.1a13.2,13.2,0,0,1,10.1,4.3l-3.9,3.8a9,9,0,0,0-6.2-2.6,6.8,6.8,0,0,0-7,7.1,6.9,6.9,0,0,0,7,7.2,9.1,9.1,0,0,0,6.2-2.7l3.8,3.8a13.2,13.2,0,0,1-10,4.4,12.7,12.7,0,1,1,0-25.3Zm6.1,6.5,2.3-2.2a11.4,11.4,0,0,0-8.4-3.2v3.3A10.2,10.2,0,0,1,215.6,112.6Zm2.2,14.5-2.3-2.3a9,9,0,0,1-6,2.2v3.3A11.3,11.3,0,0,0,217.8,127.1Z"/><path class="cls-10" d="M227.6,123.6a2.5,2.5,0,0,0,2.4,2.5c1.5,0,2.4-.8,2.4-2s-2.3-2.3-4.3-3c-4-1.4-6.2-3.3-6.2-7.4a7.9,7.9,0,0,1,8.1-7.6c5.2,0,7.7,3.3,8.1,7.7h-5.5a2.5,2.5,0,0,0-4.9-.1c0,1.7,2.1,2.1,4.2,2.7,4.2,1.2,6.2,3.6,6.2,7.3a7.9,7.9,0,0,1-8.1,7.7c-5.1,0-8.1-3.5-8.1-7.8Zm2.4,6.7v-3.1a3.6,3.6,0,0,1-3.6-2.5h-3.1C223.4,127.7,226.3,130.3,230,130.3Zm6.6-17.6c-.2-2.3-1.9-5.5-6.6-5.5v3.1a3.5,3.5,0,0,1,3.7,2.4Z"/><path class="cls-10" d="M247.5,123.6a2.5,2.5,0,0,0,2.4,2.5c1.5,0,2.4-.8,2.4-2s-2.3-2.3-4.3-3c-3.9-1.4-6.2-3.3-6.2-7.4a7.9,7.9,0,0,1,8.1-7.6c5.3,0,7.7,3.3,8.1,7.7h-5.5a2.5,2.5,0,0,0-4.9-.1c0,1.7,2.1,2.1,4.2,2.7,4.2,1.2,6.2,3.6,6.2,7.3a7.9,7.9,0,0,1-8.1,7.7c-5.1,0-8.1-3.5-8.1-7.8Zm2.4,6.7v-3.1a3.6,3.6,0,0,1-3.6-2.5h-3.1C243.3,127.7,246.2,130.3,249.9,130.3Zm6.6-17.6c-.2-2.3-1.9-5.5-6.6-5.5v3.1a3.5,3.5,0,0,1,3.7,2.4Z"/><path class="cls-11" d="M326.5,153.8c.2,1.7.9,2.8,2.8,2.8s3.1-.8,3.1-3.7V137.5h5.7v16.4c0,5-3.9,8.1-8.6,8.1s-8.6-3-8.6-8Zm10.1-6.9v-8.3h-2.8v8.3Z"/><path class="cls-11" d="M347.4,154.2a2.5,2.5,0,0,0,2.5,2.5,2,2,0,0,0,2.3-2c0-1.8-2.3-2.3-4.2-3-4-1.4-6.2-3.3-6.2-7.4a7.9,7.9,0,0,1,8-7.6c5.3,0,7.8,3.3,8.1,7.7h-5.5a2.5,2.5,0,0,0-4.9-.1c0,1.7,2.2,2.1,4.2,2.7,4.2,1.2,6.2,3.6,6.2,7.3a7.9,7.9,0,0,1-8,7.7c-5.2,0-8.1-3.5-8.1-7.8Zm2.5,6.7v-3.1a3.6,3.6,0,0,1-3.7-2.5h-3.1C343.2,158.3,346.1,160.9,349.9,160.9Zm6.6-17.6a6.2,6.2,0,0,0-6.6-5.5v3.1a3.5,3.5,0,0,1,3.6,2.4Z"/></g></svg>