<svg xmlns="http://www.w3.org/2000/svg" viewBox="0 0 339.7 134.9"><defs><style>.cls-1{fill:#ce3229;}.cls-2,.cls-3,.cls-5,.cls-6,.cls-7{fill:none;stroke-linecap:round;}.cls-2,.cls-3{stroke:#fff;stroke-width:3px;}.cls-2,.cls-4{stroke-linejoin:round;}.cls-3,.cls-5,.cls-6,.cls-7{stroke-miterlimit:10;}.cls-4{fill:#e9dbb6;stroke:#e9d49f;stroke-width:2px;}.cls-5,.cls-6,.cls-7{stroke:#2b2d66;}.cls-5{stroke-width:12px;}.cls-6{stroke-width:6px;}.cls-7{stroke-width:9px;}.cls-8{fill:#66fcf1;}</style></defs><title>bullet4</title><g id="Bullet3"><path class="cls-1" d="M70.8,10.2a180.5,180.5,0,0,1,23.9,6.7,193.6,193.6,0,0,1,28.5,12.8,115.9,115.9,0,0,1,.4,21.9c-.7,8.4-2,24.8-10.9,40.4-12.3,21.5-33.3,30.4-41.8,33.6-8.5-3.2-29.8-12.1-42.2-33.6C19.8,76.4,18.5,60,17.9,51.6a114.8,114.8,0,0,1,.4-21.8A176.5,176.5,0,0,1,46.9,16.9a176.3,176.3,0,0,1,23.9-6.7"/><polyline class="cls-2" points="86.8 48.8 109.1 63.7 86.8 78.9"/><polyline class="cls-2" points="54.1 48.8 31.8 63.7 54.1 78.9"/><line class="cls-3" x1="81.5" y1="40.3" x2="61.8" y2="85.6"/><path class="cls-4" d="M264.3,12.1,228.6,26.8a7.8,7.8,0,0,0-4.1,4.1L209.7,66.6a8,8,0,0,0,0,5.7L224.5,108a7.6,7.6,0,0,0,4.1,4l35.7,14.8a8,8,0,0,0,5.7,0L305.6,112a7.6,7.6,0,0,0,4.1-4l14.8-35.7a8,8,0,0,0,0-5.7L309.7,30.9a7.8,7.8,0,0,0-4.1-4.1L270,12.1A7.1,7.1,0,0,0,264.3,12.1Z"/><line class="cls-5" x1="237.7" y1="50.9" x2="250.7" y2="98.9"/><line class="cls-5" x1="271.8" y1="50.6" x2="284.8" y2="98.5"/><line class="cls-6" x1="268" y1="50.2" x2="254" y2="100.8"/><line class="cls-6" x1="302" y1="49.2" x2="288.2" y2="100.4"/><line class="cls-7" x1="249.2" y1="47.4" x2="227.9" y2="47.4"/><line class="cls-7" x1="306.6" y1="47.4" x2="296.1" y2="47.4"/><path class="cls-8" d="M201,71.2l-8.2,5,4.9,7.7-7.1.5,2.9,9-10.2-4.3-4.6,5.6-5.9-4.6-6.3,5.2-6.2-5.2-6,4.6-4.5-5.6-10.2,4.3,2.9-9-7.1-.5,4.9-7.7-8.2-5,8.2-4.9-5.1-7.4,7.3-.7-2.9-9,10.2,4.4,4.5-5.6,6,4.5,6.3-5.2,6.2,5.2,5.9-4.5,2.1,2.4,12.1-9-6.7,11.2,7.3-3.4-2.9,9,7.2.7-5,7.4ZM188,46.8c-4.1,3.1-10.3,7.9-18.6,14.5l-2.9-7.6-19,31.7,18.9-16.1,3.3,8.8Z"/></g></svg>