<svg xmlns="http://www.w3.org/2000/svg" viewBox="0 0 212 212"><defs><style>.cls-1{fill:#d3d3d3;}.cls-2{fill:#f0515a;}.cls-3{fill:#f9c447;}.cls-4{fill:#45e853;}.cls-5{fill:#f78154;}.cls-6{fill:#fff;}.cls-7{fill:#474946;}.cls-8{fill:#474747;}.cls-9{fill:#fbb34c;}.cls-10{fill:#93d8ea;}</style></defs><title>bullet1</title><g id="Bullet1"><rect class="cls-1" x="5" y="3.9" width="202" height="204.25" rx="5.6" ry="5.6"/><circle class="cls-2" cx="15.5" cy="11.8" r="3.5"/><circle class="cls-3" cx="27.4" cy="11.8" r="3.5"/><circle class="cls-4" cx="39.5" cy="11.8" r="3.5"/><rect class="cls-5" x="13.7" y="20.8" width="73.3" height="41.73" rx="0.6" ry="0.6"/><rect class="cls-6" x="23.3" y="27.4" width="41.4" height="6.48" rx="0.5" ry="0.5"/><rect class="cls-7" x="23.3" y="27.4" width="6.5" height="6.48" rx="0.5" ry="0.5"/><rect class="cls-6" x="23.3" y="38.7" width="41.4" height="6.33" rx="0.5" ry="0.5"/><rect class="cls-7" x="23.3" y="38.7" width="6.5" height="6.48" rx="0.5" ry="0.5"/><rect class="cls-8" x="67" y="28.2" width="11.2" height="4.99" rx="0.5" ry="0.5"/><rect class="cls-8" x="67" y="39.4" width="11.2" height="4.99" rx="0.5" ry="0.5"/><rect class="cls-8" x="48.6" y="49.9" width="15.7" height="6.06" rx="0.2" ry="0.2"/><rect class="cls-8" x="95.4" y="20.8" width="77.1" height="7.01" rx="0.3" ry="0.3"/><rect class="cls-9" x="95.4" y="20.8" width="16.9" height="7.01" rx="0.3" ry="0.3"/><rect class="cls-8" x="14.3" y="175.8" width="77.1" height="7.01" rx="0.3" ry="0.3"/><rect class="cls-9" x="14.3" y="175.8" width="16.9" height="7.01" rx="0.3" ry="0.3"/><rect class="cls-8" x="14.3" y="157.3" width="77.1" height="7.01" rx="0.3" ry="0.3"/><rect class="cls-9" x="14.1" y="157.3" width="16.9" height="7.01" rx="0.3" ry="0.3"/><rect class="cls-8" x="95.4" y="38.4" width="77.1" height="7.01" rx="0.3" ry="0.3"/><rect class="cls-9" x="95.4" y="38.4" width="16.9" height="7.01" rx="0.3" ry="0.3"/><rect class="cls-8" x="95.4" y="56" width="77.1" height="7.01" rx="0.3" ry="0.3"/><rect class="cls-9" x="95.4" y="56" width="16.9" height="7.01" rx="0.3" ry="0.3"/><rect class="cls-10" x="14.1" y="96.2" width="29.1" height="11.98" rx="1.4" ry="1.4"/><rect class="cls-10" x="14.1" y="76.4" width="29.1" height="11.98" rx="1.4" ry="1.4"/><rect class="cls-5" x="56.9" y="96.2" width="29.1" height="11.98" rx="1.4" ry="1.4"/><rect class="cls-5" x="56.9" y="76.4" width="29.1" height="11.98" rx="1.4" ry="1.4"/><rect class="cls-9" x="101.1" y="96.2" width="29.1" height="11.98" rx="1.4" ry="1.4"/><rect class="cls-9" x="101.1" y="76.4" width="29.1" height="11.98" rx="1.4" ry="1.4"/><rect class="cls-10" x="14.5" y="135.9" width="29.1" height="11.98" rx="1.4" ry="1.4"/><rect class="cls-10" x="14.5" y="116" width="29.1" height="11.98" rx="1.4" ry="1.4"/><rect class="cls-5" x="57.3" y="135.9" width="29.1" height="11.98" rx="1.4" ry="1.4"/><rect class="cls-5" x="57.3" y="116" width="29.1" height="11.98" rx="1.4" ry="1.4"/><circle class="cls-6" cx="28.6" cy="82.3" r="4.7"/><circle class="cls-6" cx="28.6" cy="102.2" r="4.7"/><circle class="cls-6" cx="71.4" cy="102.2" r="4.7"/><circle class="cls-6" cx="71.8" cy="122" r="4.7"/><circle class="cls-6" cx="72.5" cy="141.8" r="4.7"/><circle class="cls-6" cx="28.6" cy="141.8" r="4.7"/><circle class="cls-6" cx="28.6" cy="122" r="4.7"/><circle class="cls-6" cx="71.4" cy="82.3" r="4.7"/><circle class="cls-6" cx="116.1" cy="82.3" r="4.7"/><circle class="cls-6" cx="115.7" cy="102.2" r="4.7"/><path class="cls-8" d="M200.4,207.1H11.6A5.6,5.6,0,0,1,6,201.5L200.4,4.9a5.6,5.6,0,0,1,5.6,5.6v191A5.6,5.6,0,0,1,200.4,207.1Z"/><polygon class="cls-9" points="190.5 40.2 169.5 40.2 176.3 33.1 190.5 33.1 190.5 40.2"/><polygon class="cls-9" points="190.5 51.5 159 51.5 165.8 44.5 190.5 44.5 190.5 51.5"/><polygon class="cls-5" points="169 71.7 137.5 71.7 144.3 64.7 169 64.7 169 71.7"/><polygon class="cls-5" points="159.8 124.5 86.1 124.3 93.2 117.3 159.8 117.5 159.8 124.5"/><polygon class="cls-5" points="117.8 179.3 32.3 179.2 39.4 172.2 117.8 172.3 117.8 179.3"/><polygon class="cls-9" points="139.3 91.8 118.3 91.8 125.1 84.8 139.3 84.8 139.3 91.8"/><polygon class="cls-9" points="139.3 103.6 106.5 103.6 113.5 96.6 139.3 96.6 139.3 103.6"/><polygon class="cls-9" points="138.7 136.2 74.7 136.2 81.7 129.2 138.7 129.2 138.7 136.2"/><polygon class="cls-9" points="77.2 191.9 21.6 191.9 28.6 184.9 77.2 184.9 77.2 191.9"/><rect class="cls-9" x="28.7" y="195.9" width="66.7" height="7.01"/><rect class="cls-10" x="83.6" y="140.5" width="64.1" height="7.01"/><rect class="cls-9" x="193" y="33.1" width="1.9" height="1.88" rx="0.3" ry="0.3"/><rect class="cls-9" x="193" y="36.2" width="1.9" height="1.88" rx="0.3" ry="0.3"/><rect class="cls-9" x="193.1" y="37.3" width="1" height="3.39" rx="0.2" ry="0.2" transform="matrix(0.87, 0.5, -0.5, 0.87, 45.42, -91.6)"/><rect class="cls-9" x="193" y="44.5" width="1.9" height="1.88" rx="0.3" ry="0.3"/><rect class="cls-9" x="193" y="47.5" width="1.9" height="1.88" rx="0.3" ry="0.3"/><rect class="cls-9" x="193.1" y="48.6" width="1" height="3.39" rx="0.2" ry="0.2" transform="translate(51.1 -90.1) rotate(30)"/><rect class="cls-9" x="141.4" y="84.8" width="1.9" height="1.88" rx="0.3" ry="0.3"/><rect class="cls-9" x="141.4" y="87.8" width="1.9" height="1.88" rx="0.3" ry="0.3"/><rect class="cls-9" x="141.6" y="88.9" width="1" height="3.39" rx="0.2" ry="0.2" transform="matrix(0.87, 0.5, -0.5, 0.87, 64.36, -58.9)"/><rect class="cls-9" x="141.4" y="96.4" width="1.9" height="1.88" rx="0.3" ry="0.3"/><rect class="cls-9" x="141.4" y="99.4" width="1.9" height="1.88" rx="0.3" ry="0.3"/><rect class="cls-9" x="141.6" y="100.5" width="1" height="3.39" rx="0.2" ry="0.2" transform="matrix(0.87, 0.5, -0.5, 0.87, 70.14, -57.35)"/><rect class="cls-9" x="140.5" y="128.9" width="1.9" height="1.88" rx="0.3" ry="0.3"/><rect class="cls-9" x="140.5" y="131.9" width="1.9" height="1.88" rx="0.3" ry="0.3"/><rect class="cls-9" x="140.6" y="133" width="1" height="3.39" rx="0.2" ry="0.2" transform="translate(86.3 -52.5) rotate(30)"/><rect class="cls-9" x="79.5" y="184.9" width="1.9" height="1.88" rx="0.3" ry="0.3"/><rect class="cls-9" x="79.5" y="187.9" width="1.9" height="1.88" rx="0.3" ry="0.3"/><rect class="cls-9" x="79.6" y="189" width="1" height="3.39" rx="0.2" ry="0.2" transform="matrix(0.87, 0.5, -0.5, 0.87, 106.07, -14.52)"/><rect class="cls-9" x="97.4" y="195.6" width="1.9" height="1.88" rx="0.3" ry="0.3"/><rect class="cls-9" x="97.4" y="198.6" width="1.9" height="1.88" rx="0.3" ry="0.3"/><rect class="cls-9" x="97.5" y="199.7" width="1" height="3.39" rx="0.2" ry="0.2" transform="translate(113.9 -22) rotate(30)"/><rect class="cls-10" x="150.1" y="140.5" width="1.9" height="1.88" rx="0.3" ry="0.3"/><rect class="cls-10" x="150.1" y="143.5" width="1.9" height="1.88" rx="0.3" ry="0.3"/><rect class="cls-10" x="150.3" y="144.6" width="1" height="3.39" rx="0.2" ry="0.2" transform="matrix(0.87, 0.5, -0.5, 0.87, 93.35, -55.81)"/><rect class="cls-10" x="105" y="151.5" width="42.7" height="7.01"/><rect class="cls-10" x="121" y="172.3" width="16.5" height="7.01"/><rect class="cls-10" x="150.1" y="151.5" width="1.9" height="1.88" rx="0.3" ry="0.3"/><rect class="cls-10" x="150.1" y="154.5" width="1.9" height="1.88" rx="0.3" ry="0.3"/><rect class="cls-10" x="150.3" y="155.6" width="1" height="3.39" rx="0.2" ry="0.2" transform="translate(98.9 -54.3) rotate(30)"/></g></svg>