<svg xmlns="http://www.w3.org/2000/svg" viewBox="0 0 233.2 365.8"><defs><style>.cls-1,.cls-14{fill:#c5c6c7;stroke-width:1.2px;}.cls-1,.cls-14,.cls-3{stroke:#1f2833;}.cls-1,.cls-10,.cls-11,.cls-13,.cls-14,.cls-15,.cls-17{stroke-linejoin:round;}.cls-2,.cls-3{fill:#66fcf1;}.cls-12,.cls-16,.cls-18,.cls-3,.cls-4,.cls-5,.cls-9{stroke-miterlimit:10;}.cls-3,.cls-4{stroke-width:0.25px;}.cls-4,.cls-5{fill:none;}.cls-4{stroke:#66fcf1;}.cls-11,.cls-12,.cls-14,.cls-17,.cls-4,.cls-5{stroke-linecap:round;}.cls-5{stroke:#45a29e;stroke-width:3px;}.cls-10,.cls-11,.cls-12,.cls-15,.cls-17,.cls-18,.cls-6,.cls-9{fill:#fff;}.cls-7{fill:#45a29e;}.cls-8{opacity:0.4;}.cls-10,.cls-11,.cls-12,.cls-13,.cls-15,.cls-16,.cls-17,.cls-18,.cls-9{stroke:#000;}.cls-15,.cls-16{stroke-width:0.75px;}.cls-17{stroke-width:0.5px;}.cls-18{stroke-width:2px;}</style></defs><title>bullet3</title><g id="Bullet3"><polygon class="cls-1" points="13.8 26.1 13.8 67.9 50 88.8 86.2 67.9 86.2 26.1 50 5.2 13.8 26.1"/><polygon class="cls-1" points="139.4 162 139.4 203.8 175.6 224.7 211.8 203.8 211.8 162 175.6 141.1 139.4 162"/><polygon class="cls-1" points="13.8 299.3 13.8 341.1 50 362 86.2 341.1 86.2 299.3 50 278.4 13.8 299.3"/><path class="cls-2" d="M110.3,57.4c-.1,0-.2.1-.2.3s0-.2-.1-.2-.1-.1-.2-.1a.1.1,0,0,1-.1-.1h.3c-.1,0-.1,0,0-.1h0a.1.1,0,0,0-.1-.1h0c0-.1,0-.1.1-.1h.3c0-.1,0-.2-.1-.2h-.3c-.1,0-.2,0-.2.1a.4.4,0,0,0-.1.3l-.5-.2-.8-.5-.7-.7c-.2-.2-.3-.3-.3-.4h-.9v.2l-.2.2h0a.1.1,0,0,1-.1-.1.4.4,0,0,1-.1-.3c-.1-.1-.1-.2-.2-.2s0-.2-.1-.2h-.4l-.4-.2-.6-.6-.7-.6-.5-.4h-.4l-.5-.2c-.2,0-.4-.2-.6-.4l-.6-.7a1.8,1.8,0,0,1-.5-.7l-.5-.5-.3-.4-.3-.3a.4.4,0,0,1-.1-.3c-.1-.1-.1-.3-.1-.6h0a.1.1,0,0,0,.1-.1h.1s0-.1-.2-.2a.9.9,0,0,1-.1-.5.7.7,0,0,1,.1-.5l.3-.4.4-.3.2-.4.8-.3.7-.3q.3-.1.3-.3c.1-.1.1-.1.1-.2h1.2s.1,0,.1.2l.2-.3.4-.3.3-.4h.2c.2-.1.3-.1.4,0h.4c.1,0,.1-.1,0-.2v-.2c0-.1.2-.1.4-.2l.5-.2h0l.2-.2.4-.2.4-.3.3-.2c0-.1,0-.2.1-.2l.3-.3c.1-.1.1-.2.2-.2v-.2c.1,0,.1-.1.2-.3a.3.3,0,0,1,.3-.3h0l.2.5h0l.3-.2c0-.1.1-.2.1-.3h0c0-.1-.1-.2-.2-.4s-.4-.3-.5-.2a.1.1,0,0,0-.1.1.1.1,0,0,0-.1.1h-.2c0-.1.1-.3.1-.4a.9.9,0,0,0,.1-.5h0l-.3.2-.4.2-.2-.7h-.1c0,.2-.1.3-.2.5a.8.8,0,0,1-.2.4c-.2-.1-.4-.4-.6-.6a.8.8,0,0,0-.7-.4h-.6c-.1,0-.2.2-.2.5h-.1v-.2H104a.1.1,0,0,0-.1-.1h-.3c-.1-.1-.1-.2-.2-.4s-.2-.3-.2-.4H103c0,.1-.1.1-.2.2l-.2.2h-.3v-.6l-.3-.6c0,.1-.1.2-.2.4v.5c.1.1.1.2,0,.2h0c0,.1,0,.1-.1.1a.1.1,0,0,1-.1.1v-.4a1,1,0,0,0-.1-.4h-.2v.2a.4.4,0,0,1-.1.3c0,.1-.1.1-.1.2l-.2.2h-.1a.1.1,0,0,0-.1-.1h-.2v.3a.4.4,0,0,1,.1.3l-.3-.2h-.2a.1.1,0,0,0-.1-.1h-.2l-.4.6h-.9a3.1,3.1,0,0,1-.1.9,1,1,0,0,1-.3.8h-.2v-.5h-.2a.3.3,0,0,0-.1.2.4.4,0,0,0-.1.3c0,.2,0,.4.2.5a.7.7,0,0,1,.1.5c-.3,0-.5.2-.5.6h-.1v.3l.3-.3.3.5c.1.2.2.3.2.5s-.1.1-.1.2h-.1c-.1.1-.1.1-.1.2s-.1.1-.1.3,0,.3.1.3h-.2a.1.1,0,0,0-.1-.1h-.2v.5a1.1,1.1,0,0,0,.1.5c.1.1.1.3.3.4h.4V47l-.2.3-.2.3c0,.1-.1.2-.1.3h0c.1.1.1.1.1.2a.1.1,0,0,1,.1.1v.6a.6.6,0,0,1-.1.6,1.4,1.4,0,0,0-.2.6c0,.2.1.3.3.4a.8.8,0,0,1,.2.4h-.1v.9c0,.3-.1.5-.1.7v.3h.2c.1,0,.1.1.1.2h0c-.1,0-.1,0-.1.1s-.1,0-.1.1-.1.2-.1.3h0c.1-.1.2-.2.1-.2h.2v.7l-.4.5-.5.4-.4.4a.2.2,0,0,1-.2.2h-.8V54.4c0-.1,0-.1-.1-.1s-.1-.3-.2-.8-.1-.9-.1-1.5-.1-1.1-.1-1.6a5.5,5.5,0,0,1,.1-.9,2,2,0,0,1-.1-.5,6.4,6.4,0,0,1-.2-.9c-.1-.3-.1-.7-.2-1.1a4.9,4.9,0,0,0-.1-1.2,3.1,3.1,0,0,0-.1-1V41.7h0a4.4,4.4,0,0,1-.2-1,2.8,2.8,0,0,1-.1-.9c0-.2.1-.2.1-.2h.2v-.6h.8l.2-.3h-1c0-.1.1-.2.2-.3s.3-.1.4-.4h.1l.3.2a.6.6,0,0,1,.4-.6,1.6,1.6,0,0,0,.4-.7l.3-.3H98a.3.3,0,0,0,.1-.2.1.1,0,0,0-.1-.1h-.2a.5.5,0,0,0,.4-.2c.1-.1.1-.2.2-.2a.2.2,0,0,1,.2.2c.1,0,.2.1.2.3s.2.2.2.3.1.2.2.2.1-.1.1-.3.1-.3.2-.5l.2-.5c.1-.1.1-.2.2-.2a3.6,3.6,0,0,1-.2,1.1,2.6,2.6,0,0,0-.3,1.1c-.1.5.1.7.5.7a1.5,1.5,0,0,1,.1-.7,4.3,4.3,0,0,0,.1-.5h-.2c0-.2,0-.3.1-.4l.3-.2h.2c.1,0,.1-.1.1-.2s.2.1.2,0h.3v-.4c-.1.1-.2.2-.3.1a.4.4,0,0,0,.1-.3c0-.2,0-.3.1-.3l.5.2.4.2h.1a.1.1,0,0,0,.1-.1h.2c0,.2.1.3.1.4a.1.1,0,0,0,.1.1h.6l.2.2c.1,0,.2,0,.2-.1l.2-.3c.1-.1.1-.2.1-.4l.2-.3.5.6c.2,0,.2,0,.3.2h0c.1,0,.1.1.1.3h-.2a.1.1,0,0,1-.1.1c0,.1,0,.1.1.2s.1-.1.2-.1h.4l-.3.4-.4.4h0v.2a.3.3,0,0,0,.1.2h-.3a.2.2,0,0,0,0,.3c0,.1,0,.2.2.3s.1-.1.1-.2h.6v-.9h.4l.3.4.3.3c0,.1.1.1.2.1V38h.3c0-.1.1-.1.1-.2h-.3l-.3-.3-.3-.3c-.1-.1-.1-.1-.1-.2h.4c.1-.1.1-.1,0-.2a.3.3,0,0,0-.1-.2.1.1,0,0,0-.1-.1l.7-.4v.4h0c0,.1.1.2.2.3h.4c.1,0,.2-.1.2-.3h-.1v-.2l.3.2c.1,0,.1.1.1.2s.1.1.1.2a.3.3,0,0,0,.1.2h.4c.2,0,.3.1.4.3s-.2,0-.2.1h0v.3h.1c.2,0,.3-.1.4-.3a.8.8,0,0,0,.2-.4,1.4,1.4,0,0,1,.5,1.1c0,.4.1.8.1,1.2s.1.2.2.2l.2.2.3.2a.4.4,0,0,1,.1.3h-.1c0,.1-.1.1-.1.2h-.1q-.2,0-.3-.3c0-.1-.1-.2-.1-.3v.4l.7.6h0a1.8,1.8,0,0,1-.7.7l.3.3c.2.1.2.2.2.3h0l-.4-.2h-.3c-.2,0-.2.1-.3.2a.4.4,0,0,1-.1.3H109l-.2.2-.2.2h0c0,.1,0,.2.1.2v.2a1.3,1.3,0,0,1-.1.6l-.3.6h-.5l-.3.2c0,.1-.1.3-.1.4a4.3,4.3,0,0,1-.1.5c0,.2-.1.3-.2.3V44.5c0-.1,0-.1-.1-.1a.1.1,0,0,1-.1.1c-.1,0,0,0,0,.1v.2h-1.2q0,.2.3.3c.2.1.2.2.2.4h-.5c-.2.1-.2.3-.1.5a.7.7,0,0,1-.2-.6h-.2c-.2,0-.2,0-.2.1v.4c-.1.2,0,.3.1.5a.8.8,0,0,1,.2.5h-.1c0,.1-.1.1-.3.1h-.4l-.3-.2-.4-.3v.6a.5.5,0,0,0,.2.4v1c-.4,0-.6-.1-.5-.3v-.7h-.4v-.3a.3.3,0,0,1-.1-.2h-.1c.2.1.3,0,.4-.1s.1-.2.1-.3h-.9v.5c0,.1,0,.1-.1.2v.3a.5.5,0,0,0,.2.4l.3.3.3.2c.1.1.3.2.3.4l.5-.2a.2.2,0,0,1,.2.2.4.4,0,0,1,.1.3h.8c.1,0,.1,0,.2.2s.2.2.2.3a.8.8,0,0,1-.1.3v.4h.1c.1-.1.1-.3.2-.4s.1-.2.3-.3h0c0,.1,0,.2-.1.2h0c0,.1.1.2.2.3l.3.3.3.3c.1.2.2.3.2.5s0,.2-.1.2v.2h.3c.1-.1.2-.2.4-.1h0c.1,0,.1.1.1.2a.1.1,0,0,1,.1.1c0,.1,0,.1.1,0h0v-.5c0-.1.2-.2.4-.1s.1-.1.2,0h.1c0,.1,0,.1.1.2s.1.1.1.2.2-.3.4-.3,0,.7.1.7a.2.2,0,0,0,.2.2h.3a.9.9,0,0,1,.6.3h.2c.1,0,.2,0,.2.1h.2c.1,0,.2,0,.2-.2s0-.2.1-.2h.1v.2a.1.1,0,0,0-.1.1h.1a.1.1,0,0,0,.1-.1h.5c.2.1.3.2.3.4h-1.1l.4.3.3.4.3.4.4.3c.2-.1.3-.2.3-.4a.7.7,0,0,0,.1-.5h-.1v-.2c.2,0,.3.1.3.2a1.1,1.1,0,0,0,.1.5v.6h0l-.2.2c-.1,0-.1.1-.2.3v.5a1.3,1.3,0,0,0-.1.5h-.6l.2.4v1.1h-.8v.2h-.4l-.3-.2-.3-.2a.3.3,0,0,1-.1-.2C110.5,57.5,110.4,57.4,110.3,57.4Zm-15-17.6a.4.4,0,0,0,.1.3c0,.1.1.1.2.1v-.4Zm.3,2.6a.4.4,0,0,0,.1.3v-.3Zm.3,13a.1.1,0,0,0,0,.2h.3c0-.1,0-.1.1-.2v-.2h0c0-.2,0-.3-.2-.3s-.2,0-.2.1Zm.3-17.7h0Zm.1,9.3c0,.2,0,.3.1.4l.3.2A.5.5,0,0,0,96.3,47Zm.1,7.4h0c.1,0,.1,0,.1-.1S96.5,54.4,96.4,54.4Zm.3-14.1H97v-.2h-.3Zm0,2.4h0Zm.2,11.9v.2a.1.1,0,0,0,.1.1H97C97,54.7,97,54.6,96.9,54.6Zm-.1-6.5.3-.2h-.2Zm.2-4.2a.3.3,0,0,1,.1.2h.2c-.1,0-.1-.1-.1-.2a.2.2,0,0,0-.2-.2h0Zm.1-6.9h0v0Zm.1,6.5c-.1-.1-.1-.1-.1,0h.1Zm-.1,3.3c0,.1.1.1.2.2v-.2Zm.1-6.8h0Zm.3-1.4v.2h.2v-.3Zm.2-1.4h0Zm.1,2v.2h.5l.3-.2.3-.3v-.2c0-.1,0-.2-.1-.2h-.3l-.3.2a.5.5,0,0,0-.4.2A.2.2,0,0,0,97.8,39.2Zm.3-1.7h.1V37h-.1ZM99.3,39c.1,0,.1,0,.1-.1s.1-.1.1-.2h0c0-.1-.1-.1-.2-.2Zm1.2-2v.2h.2a.3.3,0,0,0,.1-.2.1.1,0,0,1,.1-.1Zm.8,9.1.2.2v-.2Zm.2-10.6c-.1,0-.1,0-.1.1s0,.1,0,.2.1-.1.1-.2Zm.2,1a.4.4,0,0,0,.1.3h.1C101.9,36.6,101.8,36.6,101.7,36.5Zm.1-.6v.2c0,.1.1.1.2.1v-.3Zm.1,11.9v-.2h-.2Zm0-2.1Zm.1.9h-.1a.1.1,0,0,0,.2,0Zm0-9.3a.1.1,0,0,1,.1.1h.1v-.7a.3.3,0,0,0-.1.2Zm.5,8.8c-.1,0-.1,0-.1.1h.1C102.6,46.1,102.5,46.1,102.5,46.1Zm.3,2.1h0c.1,0,.1,0,.1-.1Zm.3-2.7h0c-.1,0-.1.1-.1.2h0a.1.1,0,0,0,.1.1v-.5Zm.1-9.3h0c0,.1,0,.1.1.1h-.1Zm.1.9v.4c0,.2.1.2.3.2v-.5a.4.4,0,0,0-.1-.3c0-.1-.1-.1-.2-.2v.4Zm.2,8.4c-.1.1-.1.1-.1.2a.2.2,0,0,0,.2.2h0a.4.4,0,0,0,.1-.3c.1-.1.1-.2.2-.2h.1l.2.2h.3a.8.8,0,0,0-.2-.5c-.1-.2-.2-.2-.5-.3l-.2.3A.4.4,0,0,0,103.5,45.5Zm.3-9.2c-.1,0-.2,0-.2.1a.4.4,0,0,0-.1.3h.3ZM103.6,49h0Zm.2-1.2h0Zm.3-12.2c-.1,0-.1,0-.1.1h.1Zm.4,3.3h0a.1.1,0,0,0-.1.1Zm-.1,10.9h.1v-.3h-.1Zm.3,3.5h-.1c0,.1,0,.1.1.1Zm.2.5h0c.1,0,.1,0,.1-.1S105,53.8,104.9,53.8Zm.1-4h.1v-.2H105Zm0,1.1h0Zm.2-6.2v-.3l-.2.2Zm.2,6.1h.1C105.5,50.8,105.5,50.8,105.4,50.8Zm.4-12.8h0Zm0,15.8h-.1c0,.1,0,.1.1.1h0Zm.1-9.7h0Zm.5-5.6h0c0,.1,0,.1.1.1s.1,0,0-.1S106.5,38.5,106.4,38.5Zm.5,5.1c-.1-.1-.2,0-.2.1s-.1.3-.1.4h.5v-.3C107.1,43.6,107,43.6,106.9,43.6Zm-.2,11h0Zm.5-17c-.1,0-.1,0-.1.1h.2C107.3,37.6,107.3,37.6,107.2,37.6Zm.2,16.9a.1.1,0,0,0-.1.1h0v.2c.1-.1.2-.2.2-.3Zm0-16.3v.4h.1a.3.3,0,0,0,.1-.2c.1-.1.2-.1.2-.2h-.3Zm.3-1.6c-.1,0-.1,0-.1.1h.2A.1.1,0,0,0,107.7,36.6Zm0,.6h.3a.4.4,0,0,1,.1.3c0,.1,0,.2.1.2s0,.2.1.2l.2-.2-.2-.8h-.4C107.8,37.1,107.7,37.1,107.7,37.2Zm.1,6.8h0a.3.3,0,0,0,.1.2h.1c0-.1,0-.1-.1-.3s-.1-.1-.2-.2h0a.1.1,0,0,1,.1.1Zm0-4.8h.1a.1.1,0,0,1,.1-.1h.2a.1.1,0,0,1-.1-.1h-.2Zm.5-.1h.1C108.4,39.1,108.4,39.1,108.3,39.1Zm0,15.8a.3.3,0,0,0,.3.3V55Zm.1-16.4h.1v.1Zm.2,2.7h.2l-.2-.3Zm.1,1v.2c0,.1,0,.1.1.2h.3v-.7l-.3.2C108.7,41.9,108.7,42,108.7,42.2Zm.1-3v.4l.4.2h0c0-.2-.1-.3-.1-.5s-.1-.3-.1-.5h-.1a.3.3,0,0,0-.1.2Zm0,16.5h.1v-.2h-.1Zm.1.6v-.2h-.1Zm0-18.1h.3c.1.1.1.1.1.2v.2l.2.2V37.8h-.4C109,37.9,108.9,38.1,108.9,38.2Zm.5-.9h0Zm0,4.3h.2v-.2h-.2Zm.2-1.8h0Zm.2,16.3a.1.1,0,0,0-.1.1h.2C109.9,56.1,109.9,56.1,109.8,56.1Zm0-15.3c-.1.2.1.3.3.3a.5.5,0,0,0-.3-.5h0a.1.1,0,0,1-.1.1Zm1.3,16.9a.3.3,0,0,0-.1.2.1.1,0,0,0,.2,0C111.2,57.8,111.2,57.7,111.1,57.7Zm0-2.6h.3a.3.3,0,0,1-.1-.2s-.1-.1-.1,0h-.1Zm.5-1.1h0c-.1,0-.1,0-.1.1Zm.2,3h0Zm.7-1.4a.1.1,0,0,0-.1.1v0C112.6,55.6,112.5,55.6,112.5,55.6Zm.1.1h-.1c0,.1,0,.1.1.1s.1,0,.1-.1Z"/><path class="cls-2" d="M122.9,55.4c0,.1-.1.1-.1.2v.2h-1l-.4-.2h-.6v-.2a.3.3,0,0,0-.1-.2h-.6v-.3l-.5.4a.1.1,0,0,0-.1-.1c0-.1-.1-.1-.1-.2v-.2c0-.1,0-.2-.1-.2h-.1v.2c0,.1-.1.1-.1.2h-1c-.1-.1-.1-.2-.1-.4v-.4a.2.2,0,0,0-.2-.2h-.7v-.3l-.5-.2-.4-.3-.2-.5-.3-.5a.3.3,0,0,1-.1-.2l-.2-.3a1.8,1.8,0,0,1-.5-.8,4.5,4.5,0,0,1-.2-.8h-.2V49a1,1,0,0,1-.1-.4v-.2c0-.2,0-.3.1-.4v-.6h-.1v-.6a1,1,0,0,1,.1-.4v-.6c.1-.3.1-.5.2-.6l.3-.3V45c-.1,0-.1.1-.1.2h.7a.3.3,0,0,1,.1-.2v-.3h.1v.3h1a1.4,1.4,0,0,0-.2-.6,1.5,1.5,0,0,1-.1-.7h.6a.2.2,0,0,0,.2-.2h-.5c0-.1.1-.2.2-.3s.1-.3.1-.4h.7c.3.1.4.1.4.3h.4l.5-.2c0-.1.1-.2.1-.4s.1-.3.2-.3a.3.3,0,0,0,.3.3h.4V42h-.5c.1,0,.1,0,.1-.1h.1a.3.3,0,0,0-.1-.2c0-.1,0-.1-.1-.1h1.1a1.1,1.1,0,0,1,.1.5c0,.2.1.3.3.5h.1v-.2h.1c0,.1,0,.1.1.2h.8c0-.1,0-.2-.2-.2h-.2a.3.3,0,0,1,.1-.2h.1l.2.2h.3a.5.5,0,0,0,.4-.2.5.5,0,0,1,.2-.4l.2.2c.1.2.2.2.2.3h.4v-1h.2a.6.6,0,0,0,0,.6,1.4,1.4,0,0,0,.2.7h.2V41.3h.2a.1.1,0,0,1,.1.1.8.8,0,0,0,.1.3v.4h.2l.2-.2h1l-.2.3v.2c-.1.1-.1.1,0,.1s0,.1.1.2h-.1l-.2.3v-.7a.3.3,0,0,1-.1-.2h-.3a1.5,1.5,0,0,0,.1.7c.1.1.1.3.1.6h-.3l.4.3c0,.1,0,.1.1,0h.1c.1,0,.2,0,.3.2v.4c0-.2.1-.4.2-.4h.5v.6h.5q0,.2.3.3h.5c-.1,0-.1,0-.1.1h-.9l.6.7h-.7a.3.3,0,0,1,.1.2h.1l.2.2.2.2a.4.4,0,0,0-.1.3l-.2.2a.2.2,0,0,0-.2-.2h-.1c-.1,0-.1.1-.1.2s.1,0,.1.1v.2c0,.2,0,.3-.1.3h-.8c-.2,0-.2.1-.2.2s.1.2-.1.2-.1-.1-.1-.2h-.2c-.3,0-.4.1-.4.2l-.3.2-.2-.2h-.4a.8.8,0,0,0-.1.4.4.4,0,0,0-.1.3c0,.1-.1.2-.1.3l-.3.2a.3.3,0,0,0,0-.4l-.3-.2h-.2l-.2.3h0a.1.1,0,0,1,.1-.1v-.2c0-.1,0-.1-.1-.1h-.6c-.1.1-.2.2-.2.3h0c0,.1.1.1.2.1s.2.1.2.2v.7h.1l-.4.2-.3.2h-.2c0-.1.1-.3.2-.3s.1-.2.1-.4,0-.2-.1-.2h-.3a.3.3,0,0,1,.1.2c-.1.1-.1.2-.2.4s-.1.2-.1.3h0a.4.4,0,0,0-.1-.3c0-.2-.1-.2-.2-.2h-1c0,.1,0,.1-.1.1h-.3a.6.6,0,0,0-.3-.6h-.1v.6c-.1,0-.2-.1-.2-.3l-.3-.2v.3c0,.1-.1.2-.1.3a.3.3,0,0,1,.1.2c.1.1.1.2.2.2h.4l.8.2.8.2.7.2.7.2h.2c.1,0,.2,0,.2.1h.1v.2h2.4a.4.4,0,0,0,.1.3h.9a.1.1,0,0,0,.1.1v.2h.1c.2,0,.2,0,.2-.2s0-.1.2-.1h.7c.1,0,.1.1.1.2h.2l.6-.5h1c0,.1.1.2.3.2l.5.2-.3.2v.4a.4.4,0,0,0-.1.3v.3c0,.1,0,.2-.1.2h-.1v.2h.3v.5h-.8c0,.1.1.1.1.2h.2c0,.1-.1.2-.1.3h-1.7v-.4a2.3,2.3,0,0,0-1,.4v-.6h-.2v.2c-.1.1-.1.1-.1.2H126v.2h-.5c-.1-.1-.1-.1,0-.2s.1-.1.1-.2h-1v-.3H124l-.2.2a.4.4,0,0,1-.1.3c0,.2,0,.2-.1.3a.1.1,0,0,1-.1.1c-.1,0-.2,0-.2-.1v-.2c-.1-.1-.1-.1-.1-.2s-.1-.1-.2-.1Zm-8-10.1a.1.1,0,0,0-.1.1c0,.1,0,.1.1.1h0Zm1,1.1a.1.1,0,0,0,0,.2c.1,0,.1,0,.1-.1S116,46.4,115.9,46.4Zm.1-.6c-.1,0-.1.1-.1.3l.3-.2Zm0,2h0Zm.5-2.8-.2.2v.3l.2-.2h.2a.1.1,0,0,0-.1-.1Zm.1.4v.2h0a.1.1,0,0,0,.1-.1C116.7,45.5,116.7,45.5,116.6,45.4Zm.8,3.5c0,.1,0,.1-.1.2h.3c.1,0,.1-.1.1-.2v-.3a.4.4,0,0,0-.1-.3c0-.1-.1-.2-.1-.4a.3.3,0,0,1,.1-.2h1.3c.1,0,.1-.1.1-.3s0-.2.1-.2h.9a.6.6,0,0,0,.5-.2l.4-.3a1,1,0,0,1,.1.4.5.5,0,0,0,.4.2h.5l.2-.9.4-.2h.5c0,.1.1.1.2.2h.4a.8.8,0,0,1,.1-.3v-.4h1.4v-.9c0,.1,0,.1.1.1l.3.2.2.2v-.2a.9.9,0,0,1-.3-.6,1.3,1.3,0,0,0-.5-.6l-.5-.4-.5-.2a.7.7,0,0,0-.6.2l-.5.3-.5.4H121v.2a.3.3,0,0,0-.1.2l-.2.2a.1.1,0,0,0-.1.1h-.3a.1.1,0,0,1-.1.1h-.5v.2a.3.3,0,0,0-.1.2h0a.1.1,0,0,1-.1.1h-.1a2.2,2.2,0,0,0-1,1.5c-.1-.1-.2-.1-.3.1l-.2.2c0,.1,0,.1-.1.3v.2h-.2l-.3-.6v.2h0c0,.2,0,.3.1.4s.1.2.1.4H117v.8h-.3v.2h.7Zm-.3.7H117C117.1,49.7,117.1,49.7,117.1,49.6Zm-.1-5.7h0a.1.1,0,0,1,.1.1h.5c0-.2-.1-.3-.2-.3h-.1a.1.1,0,0,0-.1.1Zm.3.4a.1.1,0,1,0,0,.2c.1,0,.1,0,.1-.1S117.4,44.3,117.3,44.3Zm.1-1.7c0,.2.1.3.2.3l.3.2c0-.3,0-.4-.1-.4Zm.3,7.7a.1.1,0,0,0-.1.1c0,.1,0,.2.1.2a.3.3,0,0,0,.1-.2Zm.2-1.4a.1.1,0,0,0-.1.1c0,.1,0,.2.1.2s.1-.1.1-.2A.1.1,0,0,0,117.9,48.9Zm0-5.4a.1.1,0,0,0,.1.1l.2-.2v-.2H118c-.1,0-.1,0-.1.1Zm0,1.8c0,.1,0,.1.1.1h-.1Zm.5,8.4h.2c.1,0,.1-.1.1-.2h0c0-.1-.1-.1-.2-.2h-.4a.1.1,0,0,1,.1.1Zm-.1.5h-.1a.1.1,0,0,0,.1.1h0Zm0-9.9h.1v-.4h-.1Zm.1,4.2c0-.1,0-.1-.1-.1h.1Zm0,5.9h-.1c0,.1,0,.1.1.1S118.5,54.4,118.4,54.4Zm.1-10.8c0-.1,0-.1-.1-.1h.1Zm-.1,9.4h0Zm.3,1.5h-.1a.1.1,0,0,0,.1.1Zm.1-.5a.3.3,0,0,0-.1.2h.2C118.9,54.1,118.9,54,118.8,54Zm0-2.8h0Zm.1-8.3h0c.1,0,.1,0,.1-.1S119,42.9,118.9,42.9Zm.2.1c-.1,0-.1,0-.1.1s0,.1.1.1a.1.1,0,1,0,0-.2Zm.1,1.5c-.1,0-.1,0-.1.1s0,.1.1.1a.1.1,0,0,0,0-.2Zm0,9.1h0Zm.2-10.7v.2a.1.1,0,0,1,.1.1h.5a.4.4,0,0,0-.1-.3l-.3-.3c0,.1,0,.1-.1.2S119.4,42.8,119.4,42.9Zm.6,10.6h-.3v.2h.4Zm.2,0h0c0,.1,0,.1.1.1v.2h.2v-.7A.3.3,0,0,0,120.2,53.5Zm.1-10.6h0c.1,0,.1,0,.1-.1S120.4,42.9,120.3,42.9Zm0,1.3h0a.1.1,0,0,0,.1-.1Zm.3-1.9h0Zm-.1,1.8c0-.2,0-.3.1-.3v.3Zm.3,5.6h0Zm.4,2.9c-.1,0-.1.1-.1.2a.1.1,0,0,0,.1.1h0Zm.1-3.3h-.1C121.2,49.4,121.2,49.4,121.3,49.3Zm0,5.4h-.1C121.2,54.9,121.2,54.9,121.3,54.7Zm0-11.5.2.4h.5a.1.1,0,0,0,.1-.1.1.1,0,0,1-.1-.1h-.2c-.1,0-.2,0-.2-.1h0a.1.1,0,0,1-.1-.1h-.2Zm.4,9.9h-.2a.1.1,0,0,0,.1.1C121.7,53.2,121.7,53.2,121.7,53.1Zm.4.1h0Zm.3-5.9h0Zm.3.8h0Zm-.1-1.7v.3c0,.1.1.2.1.3s.1.2.2.3a.2.2,0,0,0,.2.2h.1c.1,0,.1-.1.1-.3v-.3H123v-.2Zm.5-4v.2a.3.3,0,0,0,.1.2h.2c0-.1-.1-.1-.1-.2Zm0,5.4h.1v-.2h-.1Zm.3,5.4.4.4a.1.1,0,0,0,.1-.1h.1V53h-.6Zm0,2h.1c0-.1,0-.2-.1-.2Zm.3-1.4v.3c0,.1.1.2.3.2h0v-.4Zm.1-5.9v.2c0,.2.1.2.2.2s.1,0,.1-.2v-.2Zm.2.9v-.2h0Zm-.1-3c0,.1,0,.1.1.1h0l.3-.2h-.4Zm1,.2h-.2a.1.1,0,0,0-.1.1h.4Zm-.3-3.1h0Zm.3,12.2c-.1,0-.1,0-.1.1h.2A.1.1,0,0,0,124.9,55.1Zm.3-7.1h0Zm0-1.4a.1.1,0,0,0-.1.1h.2C125.3,46.6,125.3,46.6,125.2,46.6Zm.2-.5h-.2a.1.1,0,0,0,.1.1Zm-.2,1.4h0Zm.5.4c0-.1,0-.1-.1-.1s-.1,0,0,.1h.1Zm-.1-.7h0Zm.1-1.9a.1.1,0,0,0-.1.1c0,.1,0,.1.1.1a.1.1,0,0,0,.1-.1Zm.1.5a.9.9,0,0,0,.1.5l.3.4h.1a.3.3,0,0,1-.1-.2v-.2a.4.4,0,0,1-.1-.3Zm.4,1.6a.1.1,0,0,0-.1.1c0,.1,0,.1.1.1h0Zm.1-2.9c-.1,0-.1,0-.1.1s0,.2.1.1h0Zm.1-.4c-.1,0-.1,0-.1.1h.2A.1.1,0,0,0,126.4,44.1Zm.5,2h0Zm.1,7.4c-.2,0-.3.1-.3.2l.4-.2Zm0-9.1c-.1,0-.1,0-.1.1s0,.1.1.1a.1.1,0,0,0,0-.2Zm.1.1c-.1,0-.1,0-.1.1s0,.1.1.1a.1.1,0,1,0,0-.2Zm.4,9.5h.3c.1-.1.2-.1.2-.2h-.2a.1.1,0,0,0-.1.1h-.2Zm.3,1.1h0Zm.1-1.6c-.1,0-.1,0-.1.1s0,.1.1.1.1,0,.1-.1S128,53.5,127.9,53.5Zm.4.1c-.1,0-.2,0-.2.1h.2Zm.8,1.6h0Z"/><path class="cls-2" d="M135,55.3h0c0-.1,0-.1.1-.2H135l-.4.4-.4.4h-.1l-.2-.2h-.1v.2h-.5v-.2c.1,0,.1-.1.1-.2s-.4,0-.4.1h-.6c-.2-.1-.2-.2-.2-.3l.5-.3c.2-.1.3-.2.3-.4a1,1,0,0,0-.2-.6,1.1,1.1,0,0,1-.1-.5h.2a.1.1,0,0,0,.1-.1.3.3,0,0,0,.1-.2c0-.1.1-.2.1-.4a.4.4,0,0,1,.1-.3c0-.1.1-.1.2-.1h.3l.5-.3.4-.2h.9v.7h.5c.1,0,.2,0,.2.1s.1.1.2.2v.2c0,.1.1.1.2.1v-.9h.4l.3.3h.7l.3-.3.3-.2h2.7c.2-.1.4-.2.4-.4a2.5,2.5,0,0,0-.2-.7l-.5-.6-.6-.5a.7.7,0,0,0-.6-.2h-.6a.6.6,0,0,0-.6.3V50l-.2-.3v-.5c.1,0,.1-.1.1-.3a.9.9,0,0,0-.4-.8v1H138c-.2,0-.3-.1-.3-.2a1.3,1.3,0,0,1-.1-.6c-.1-.2-.1-.4-.2-.5a.3.3,0,0,0-.3-.3c-.2,0-.3.1-.3.2v.3c-.1.1-.1.1-.2,0h-.3v.2H136l-.3.3-.3.3h-.3c0-.1,0-.1-.1-.2a.1.1,0,0,1-.1-.1h-.3c0-.2,0-.3-.1-.3l-.3-.3c-.1,0-.2-.2-.3-.3a1.4,1.4,0,0,1-.2-.7v-.4a.7.7,0,0,1-.1-.5v-.9l.3-1a2.7,2.7,0,0,1,.7-.8l.2-.2h0V43a.2.2,0,0,1,0-.3h.1a.1.1,0,0,1,.1-.1.1.1,0,0,0,.1-.1l.3-.2c.1-.1.2-.2.2-.3h.3l.3-.2h.7c0,.1,0,.1.1.2v.2a.4.4,0,0,0,.1-.3.5.5,0,0,1,.2-.4v.2h.2l.2-.3.3-.2h.3a.2.2,0,0,0-.2.2h0l.5-.3c.1-.2.2-.3.2-.5h.6a.1.1,0,0,1,.1.1h.2a.3.3,0,0,0,.1-.2c0-.1,0-.1.1-.2h0c.1,0,.2.2.3.4s.2.4.3.4a.1.1,0,0,0,.1-.1h.3l.3.2.4.2.6.6.5.9a3.2,3.2,0,0,1,.3.9,3.1,3.1,0,0,1,.2.8v.2a.4.4,0,0,1-.1.3v.8a.3.3,0,0,0-.1.2c-.1.3-.3.5-.5.5h-.2v-.4c-.1-.1-.1-.3-.2-.6a1.8,1.8,0,0,1-.1-.6l-.5-.2a.8.8,0,0,1-.7-.4l-.2-.2h-3.4a2.1,2.1,0,0,0-1.2.5,1.6,1.6,0,0,0-.5,1.1h.4l.8.8v-.2a.1.1,0,0,0,.1-.1h.8l.9.2.8.3.6.5h.8l.4.2h.7l.4.3.4.3c.1.1.2.2.2.3s-.1.2-.2.3-.1.2-.1.3v.3c0,.2,0,.3.1.4l.2-.3h.3c.1,0,.2.1.2.3v.4c0,.2,0,.3-.1.3a.3.3,0,0,0-.1.2.1.1,0,0,0,.1.1v.2a1.6,1.6,0,0,1-.1.4l-.3.7-.3.8c-.1.2-.2.3-.2.4h-.2a.1.1,0,0,0-.1-.1l-.4.7-.6.7c-.1-.1-.2-.2-.2-.3a.8.8,0,0,1-.1-.4h-.2l-.3.3v.3h0c.1.1.1.1.1.2h-.1l-.3-.2-.3-.2h-.1v.4h-.6a.1.1,0,0,0-.1-.1v-.2c0-.1,0-.1-.1-.2a.2.2,0,0,0-.2.2c.1.1,0,.2-.1.3l-.2.2h-1.7a1.7,1.7,0,0,1-.2-.5c-.1-.1-.1-.3-.1-.6h-.1l-.2.2h-.3a1.5,1.5,0,0,1-.1.7l-.5.4c0-.1-.1-.2-.2-.3s-.1-.2-.1-.3h0ZM133.2,54c-.1-.1-.1,0-.1,0s0,.1.1.1S133.3,54,133.2,54Zm.6,0h0C133.9,54.1,133.9,54,133.8,54Zm0,.6.3-.2h-.3Zm.7-10.7c-.1,0-.1,0-.1.1s0,.1.1.1a.1.1,0,0,0,0-.2Zm.8.5h0Zm0-1.8v.2h.1a.2.2,0,0,0,.2-.2c0-.1-.1-.2-.2-.3S135.3,42.5,135.3,42.6Zm.5.8c0,.1.1.2.1.3l.2.3a.1.1,0,0,0,.1.1h.1l.4-.2a.4.4,0,0,0,.1-.3.3.3,0,0,0-.1-.2h-.5c0-.1-.1-.2-.1-.3s-.1-.2,0-.3-.2.2-.2.3A.4.4,0,0,0,135.8,43.4Zm.3,2.7c-.1,0-.1.1-.1.2s0,.1.1.1a.1.1,0,0,0,.1-.1Zm.1-3.7c-.1,0-.1.1-.1.2s0,.1.1.1.1,0,.1-.1S136.3,42.4,136.2,42.4Zm.8,11.1c0-.1-.1-.1-.1,0h.1a.1.1,0,0,1,.1-.1Zm.1-10.2a.9.9,0,0,0,.1.5c0,.1.2.2.3.2V42.9l-.3.2Zm.4,9.2a.1.1,0,0,0-.1.1.3.3,0,0,0,.1.2c.1,0,.1-.1.1-.2S137.6,52.5,137.5,52.5Zm0,2.4a.1.1,0,0,0-.1.1.3.3,0,0,0,.1.2c.1,0,.1-.1.1-.2S137.6,54.9,137.5,54.9Zm.6-1.1h.1v-.3h-.1Zm1-12.5c0,.2,0,.2.1.3h.3c0-.1,0-.2-.1-.2Zm.3,7.1v-.1Zm.7-6v.2h0Zm.2,5.7v.2a.1.1,0,0,0,.1.1c.1,0,.1,0,.1-.1S140.4,48.1,140.3,48.1Zm1.5-6.5c-.1,0-.1.1-.1.2s0,.1.1.1h0Zm1.4,9h0Z"/><path class="cls-2" d="M153.9,55.4c0,.1-.1.1-.1.2v.2h-1l-.4-.2h-.6v-.2a.3.3,0,0,0-.1-.2h-.6v-.3l-.5.4a.1.1,0,0,0-.1-.1c0-.1-.1-.1-.1-.2v-.2c0-.1,0-.2-.1-.2h-.2v.4h-1c-.1-.1-.1-.2-.1-.4v-.4a.2.2,0,0,0-.2-.2h-.7v-.3l-.5-.2-.4-.3-.2-.5-.3-.5a.3.3,0,0,1-.1-.2l-.2-.3a1.8,1.8,0,0,1-.5-.8,4.5,4.5,0,0,1-.2-.8h-.2V49a1,1,0,0,1-.1-.4v-.2c0-.2,0-.3.1-.4v-.6h-.1v-.6a1,1,0,0,1,.1-.4v-.6c.1-.3.1-.5.2-.6s.2-.3.3-.3V45c-.1,0-.1.1-.1.2h.7a.3.3,0,0,1,.1-.2v-.3h.1v.3h1a1.4,1.4,0,0,0-.2-.6,1.5,1.5,0,0,1-.1-.7h.6a.2.2,0,0,0,.2-.2h-.5c0-.1.1-.2.2-.3s.1-.3.1-.4h.7c.2.1.4.1.4.3h.4l.5-.2c0-.1.1-.2.1-.4s.1-.3.2-.3a.3.3,0,0,0,.3.3h.4V42h-.5c.1,0,.1,0,.1-.1h.1a.3.3,0,0,0-.1-.2c0-.1,0-.1-.1-.1h1.1a1.1,1.1,0,0,1,.1.5c0,.2.1.3.2.5h.2v-.2h.1c0,.1,0,.1.1.2h.8a.2.2,0,0,0-.2-.2h-.2a.3.3,0,0,1,.1-.2h.1l.2.2h.3a.5.5,0,0,0,.4-.2.5.5,0,0,1,.2-.4c.1,0,.1.1.2.2s.2.2.2.3h.4v-1h.2a.6.6,0,0,0,0,.6,1.4,1.4,0,0,0,.2.7h.2V41.3h.2c.1,0,.1.1.2.3v.4h.2l.2-.2h1l-.2.3v.2c-.1.1-.1.1,0,.1s0,.1.1.2h.5a.1.1,0,0,1-.1.1h-.5l-.2.3v-.7a.3.3,0,0,1-.1-.2h-.3a1.5,1.5,0,0,0,.1.7c.1.1.1.3.1.6h-.3l.4.3h.2c.1,0,.2,0,.3.2v.4c0-.2.1-.4.2-.4h.5v.6h.5q0,.2.3.3h.5a.1.1,0,0,1-.1.1h-.9l.6.7h-.7a.3.3,0,0,1,.1.2h.1l.2.2.2.2a.4.4,0,0,0-.1.3l-.2.2a.2.2,0,0,0-.2-.2h-.1c-.1,0-.1.1-.1.2s.1,0,.1.1v.2c0,.2,0,.3-.1.3h-.8c-.2,0-.2.1-.2.2s.1.2-.1.2-.1-.1-.1-.2h-.2c-.3,0-.4.1-.4.2l-.3.2-.2-.2h-.4a.8.8,0,0,0-.1.4.4.4,0,0,0-.1.3c0,.1-.1.2-.1.3l-.3.2a.3.3,0,0,0,0-.4l-.3-.2h-.2l-.2.3h0a.1.1,0,0,1,.1-.1v-.2c0-.1,0-.1-.1-.1h-.6c-.1.1-.2.2-.2.3h0c0,.1.1.1.2.1l.2.2v.3c-.1.2-.1.3,0,.4h.1l-.4.2-.3.2h-.2c0-.1.1-.3.2-.3s.1-.2.1-.4,0-.2-.1-.2h-.3a.3.3,0,0,1,.1.2l-.2.4c0,.1-.1.2-.1.3h0a.4.4,0,0,0-.1-.3c0-.2-.1-.2-.2-.2h-1c0,.1,0,.1-.1.1h-.3a.6.6,0,0,0-.3-.6h-.1v.6c-.1,0-.2-.1-.2-.3l-.3-.2v.3c0,.1-.1.2-.1.3a.3.3,0,0,1,.1.2c.1.1.1.2.2.2h.4l.8.2.7.2.7.2.8.2h.2c.1,0,.2,0,.2.1h.1v.2h2.4a.4.4,0,0,0,.1.3h.9c0,.1.1.1.1.2h.1c.2,0,.2,0,.2-.2s0-.1.2-.1h.7c.1,0,.1.1.1.2h.2l.6-.5h1c0,.1.1.2.3.2l.5.2-.3.2v.4a.4.4,0,0,0-.1.3v.3c0,.1,0,.2-.1.2h-.1v.2h.3v.5h-.8c0,.1.1.1.1.2h.2c0,.1-.1.2-.2.3h-1.6v-.4l-1.1.4v-.6h-.1v.2c-.1.1-.1.1-.1.2H157v.2h-.5c-.1-.1-.1-.1,0-.2s.1-.1.1-.2h-1v-.3H155c-.1,0-.1.1-.2.2a.4.4,0,0,1-.1.3c0,.2,0,.2-.1.3a.1.1,0,0,1-.1.1c-.1,0-.2,0-.2-.1v-.2c-.1-.1-.1-.1-.1-.2s-.1-.1-.2-.1Zm-8-10.1a.1.1,0,0,0-.1.1c0,.1,0,.1.1.1h0Zm1,1.1a.1.1,0,1,0,0,.2c.1,0,.1,0,.1-.1S147,46.4,146.9,46.4Zm.1-.6c-.1,0-.1.1-.1.3l.3-.2Zm0,2h0Zm.5-2.8c-.1,0-.1,0-.2.2v.3l.2-.2h.2a.1.1,0,0,0-.1-.1Zm.1.4v.2h0a.1.1,0,0,0,.1-.1C147.7,45.5,147.7,45.5,147.6,45.4Zm.8,3.5c0,.1,0,.1-.1.2h.3v-.5a.4.4,0,0,0-.1-.3c0-.1-.1-.2-.1-.4a.3.3,0,0,1,.1-.2h1.3c.1,0,.1-.1.1-.3s0-.2.1-.2h.9a.6.6,0,0,0,.5-.2l.4-.3a1,1,0,0,0,.1.4.5.5,0,0,0,.4.2h.5l.2-.9.4-.2h.5c0,.1.1.1.2.2h.4a.8.8,0,0,1,.1-.3v-.4h1.4v-.9c0,.1,0,.1.1.1l.3.2.2.2v-.2a.9.9,0,0,1-.3-.6,1.3,1.3,0,0,0-.5-.6l-.5-.4-.5-.2a.7.7,0,0,0-.6.2l-.5.3-.5.4H152v.2a.3.3,0,0,0-.1.2l-.2.2a.1.1,0,0,0-.1.1h-.3a.1.1,0,0,1-.1.1h-.5v.2a.3.3,0,0,0-.1.2h0a.1.1,0,0,1-.1.1h-.1a2.2,2.2,0,0,0-1,1.5c-.1-.1-.2-.1-.3.1l-.2.2c0,.1,0,.1-.1.3v.2h-.2l-.3-.6v.2h0c0,.2,0,.3.1.4v.4H148v.8h-.3v.2h.7Zm-.3.7H148C148.1,49.7,148.1,49.7,148.1,49.6Zm-.1-5.7h0a.1.1,0,0,1,.1.1h.5c0-.2-.1-.3-.2-.3h-.1a.1.1,0,0,0-.1.1Zm.3.4a.1.1,0,1,0,0,.2c.1,0,.1,0,.1-.1S148.4,44.3,148.3,44.3Zm.1-1.7c0,.2,0,.3.2.3l.3.2c0-.3,0-.4-.1-.4Zm.3,7.7a.1.1,0,0,0-.1.1c0,.1,0,.2.1.2v-.2Zm.2-1.4a.1.1,0,0,0-.1.1c0,.1,0,.2.1.2s.1-.1.1-.2A.1.1,0,0,0,148.9,48.9Zm0-5.4a.1.1,0,0,0,.1.1c.1,0,.1-.1.1-.2v-.2H149c-.1,0-.1,0-.1.1Zm0,1.8c0,.1,0,.1.1.1h-.1Zm.5,8.4h.2c.1,0,.1-.1.1-.2h0c0-.1-.1-.1-.2-.2h-.4a.1.1,0,0,1,.1.1Zm-.1.5h-.1a.1.1,0,0,0,.1.1h0Zm0-9.9h.1v-.4h-.1Zm.1,4.2c0-.1,0-.1-.1-.1h.1Zm0,5.9h-.1c0,.1,0,.1.1.1S149.5,54.4,149.4,54.4Zm.1-10.8c0-.1,0-.1-.1-.1h.1Zm-.1,9.4h0Zm.3,1.5h-.1a.1.1,0,0,0,.1.1Zm.1-.5a.3.3,0,0,0-.1.2h.2C149.9,54.1,149.9,54,149.8,54Zm0-2.8h0Zm.1-8.3h0c.1,0,.1,0,.1-.1S150,42.9,149.9,42.9Zm.2.1c-.1,0-.1,0-.1.1s0,.1.1.1h0Zm.1,1.5c-.1,0-.1,0-.1.1s0,.1.1.1a.1.1,0,0,0,0-.2Zm0,9.1h0Zm.2-10.7v.2a.1.1,0,0,1,.1.1h.5c0-.1-.1-.2-.1-.3s-.2-.2-.3-.3,0,.1-.1.2S150.4,42.8,150.4,42.9Zm.6,10.6h-.3v.2h.4Zm.2,0h0c0,.1,0,.1.1.1v.2h.2v-.7A.3.3,0,0,0,151.2,53.5Zm.1-10.6h0c.1,0,.1,0,.1-.1S151.4,42.9,151.3,42.9Zm0,1.3h0a.1.1,0,0,0,.1-.1Zm.3-1.9h0Zm-.1,1.8c0-.2,0-.3.1-.3v.3Zm.3,5.6h0Zm.3,2.9v.2h0a.1.1,0,0,0,.1-.1C152.2,52.7,152.2,52.6,152.1,52.6Zm.2-3.3h-.2C152.2,49.4,152.2,49.4,152.3,49.3Zm0,5.4h-.2C152.2,54.9,152.2,54.9,152.3,54.7Zm0-11.5a.5.5,0,0,0,.2.4h.5a.1.1,0,0,0,.1-.1.1.1,0,0,1-.1-.1h-.2c-.1,0-.2,0-.2-.1h0a.1.1,0,0,1-.1-.1h-.2Zm.4,9.9h-.2a.1.1,0,0,0,.1.1C152.7,53.2,152.7,53.2,152.7,53.1Zm.4.1h0Zm.3-5.9h0Zm.3.8h0Zm-.1-1.7v.3c0,.1.1.2.1.3s.1.2.1.3l.3.2h.1c.1,0,.1-.1.1-.3v-.3H154a6634428825494.2,6634428825494.2,0,0,0-.4-.4Zm.5-4v.2a.3.3,0,0,0,.1.2h.2c0-.1-.1-.1-.1-.2Zm0,5.4h.1v-.2h-.1Zm.3,5.4.4.4a.1.1,0,0,0,.1-.1h.1V53h-.6Zm0,2h.1c0-.1,0-.2-.1-.2Zm.3-1.4v.3c0,.1.1.2.3.2h0v-.4Zm.1-5.9v.2c0,.2.1.2.2.2s.1,0,.1-.2v-.2Zm.2.9v-.2h0Zm-.1-3c0,.1,0,.1.1.1h0l.3-.2h-.4Zm.9.2a.1.1,0,0,1-.1.1.1.1,0,0,0-.1.1h.4Zm-.2-3.1h0Zm.2,12.2h.2C156,55.1,155.9,55.1,155.8,55.1Zm.4-7.1h0Zm0-1.4a.1.1,0,0,0-.1.1h.2C156.3,46.6,156.3,46.6,156.2,46.6Zm.2-.5h-.2a.1.1,0,0,0,.1.1Zm-.2,1.4h0Zm.5.4c0-.1,0-.1-.1-.1s-.1,0,0,.1h.1Zm-.1-.7h0Zm.1-1.9a.1.1,0,0,0-.1.1c0,.1,0,.1.1.1a.1.1,0,0,0,.1-.1Zm.1.5a.9.9,0,0,0,.1.5l.3.4h.1a.3.3,0,0,1-.1-.2v-.2a.4.4,0,0,1-.1-.3Zm.4,1.6a.1.1,0,0,0-.1.1c0,.1,0,.1.1.1h0Zm.1-2.9c-.1,0-.1,0-.1.1s0,.2.1.1h0Zm.1-.4c-.1,0-.1,0-.1.1h.2A.1.1,0,0,0,157.4,44.1Zm.4,2h0Zm.2,7.4c-.2,0-.3.1-.3.2l.4-.2Zm0-9.1c-.1,0-.1,0-.1.1s0,.1.1.1a.1.1,0,0,0,0-.2Zm.1.1c-.1,0-.1,0-.1.1s0,.1.1.1a.1.1,0,0,0,0-.2Zm.4,9.5h.3c.1-.1.2-.1.2-.2h-.2a.1.1,0,0,0-.1.1h-.2Zm.3,1.1h0Zm.1-1.6c-.1,0-.1,0-.1.1s0,.1.1.1.1,0,.1-.1S159,53.5,158.9,53.5Zm.3.1a.1.1,0,0,0-.1.1h.2C159.3,53.6,159.3,53.6,159.2,53.6Zm.9,1.6h0Z"/><path class="cls-2" d="M176.4,54.9h-.5l-.7-.2-.7-.4-.4-.3v-.2l-.3-.7-.4-.4-.4-.3-.3-.4h0v-.4h-.3v.2a.3.3,0,0,0-.1.2l-.3.4-.4.3-.3.4a.4.4,0,0,0-.2.4h.4c.1,0,.1,0,.1.1h.1v.2h-.2a.1.1,0,0,0-.1.1.3.3,0,0,0-.1.2v.2h-.6l-.2-.2h-.3l-.4.3h-.5l-.4.3c-.1,0-.2.1-.2.3h-2a3.2,3.2,0,0,1-1.4-.3,1,1,0,0,1-.6-1v-.5a.9.9,0,0,1,.1-.5h-.9c.1,0,.1.1.1.2a.3.3,0,0,1,.1.2h0l-.5-.2-.3-.5v-.6a4.3,4.3,0,0,0-.1-.5v-.2c0-.1-.1-.2-.1-.3l-.2-.2v-.2c-.1,0-.1-.1-.1-.3s-.1-.2-.1-.4-.1-.3-.1-.5v-.3h.3c0-.1-.1-.2-.1-.3a.4.4,0,0,1-.1-.3.8.8,0,0,1,.1-.4c.1-.1.1-.2.3-.2h.2v.2h.3l-.3-.3h-.3c-.2,0-.3,0-.3-.1a.2.2,0,0,1-.2-.2.3.3,0,0,1,.1-.2h.4c.1,0,.1-.1.1-.2h.9v-.3l-.7-.3v-.2a1.5,1.5,0,0,1,.2-.8.5.5,0,0,1,.4-.3h.5c.2-.1.3-.1.4-.3h-.3c0-.1,0-.3.1-.3l.4-.2h.8v-.4l.3-.2.2-.2v-.2h0l-.3-.4h0c0-.1,0-.1.1-.2h.3a.1.1,0,0,1,.1.1c.1,0,.1,0,.1.1h1.2a.1.1,0,0,0,.1.1h.6l.4-.4.5-.5h.7l.4.2.7.5.8.6.5.3.3.3c0,.2.1.3.2.5s.1.3.1.4v.4l.3.2c.1,0,.1.1.2.2l.2.3c0,.1.1.1.2.1s0,.1.1.3.1.2.1.4l.2.3v.3h.1c0,.1,0,.1.1.1h0l-.5-.2h-.5V47c.1.2.1.3.2.3h1.2a.4.4,0,0,1-.1.3c0,.1-.1.2-.1.3s-.1.1,0,.2l.3,1a.2.2,0,0,0,.2.2c.2-.1.2,0,.3.2l-.2.2c-.1.2-.1.2-.1.3a2843326639546.9,2843326639546.9,0,0,1,.4.4c.1.1.2.1.2.2s.1.1.1.2v.6c0,.1.1.1.1.2l.3.2h.3c.1.1.2.1.2.2h0c.1.1.1.3.2.5s0,.3.1.3.1.1.3.2l.7.3.7.3.5.3c-.2.1-.3.1-.3.2v.3a.4.4,0,0,0,.1.3c0,.1-.1.2-.1.3l-.5.2h-1.2c-.1,0-.2,0-.2-.1l-.2-.2v-.2A.2.2,0,0,0,176.4,54.9ZM165,50.6l.3.6c.1.2.2.4.3.4l.5.2h1.4l.2-.2h.2a.5.5,0,0,1,.4-.2c0-.1.2-.1.4-.1h.3a1.3,1.3,0,0,0,.7-.6,3.9,3.9,0,0,1,.4-.9c0-.1.1-.1.2-.2h.2c-.1-.1-.2-.1-.2-.2l.2-.2.2-.2c.1-.5.3-1.1.4-1.8a10.3,10.3,0,0,0,.1-1.7c0-.3,0-.5-.1-.6l-.5-.4h-1.8l-.7.4-.7.5-.3.2v.3a.4.4,0,0,1-.1.3h-.2a.1.1,0,0,1-.1.1l-.5.5h0v.2c.1,0,.1.1.1.3v.6a.4.4,0,0,0-.1.3c-.1.1-.1.3-.2.4a.9.9,0,0,1-.4.6.5.5,0,0,1-.4.3h-.5c-.1.1-.2.1-.2.2a.5.5,0,0,0,.2.4h.8c.1.1.2.1.2.3l-.3.2Zm1.8,1.8h-.1C166.8,52.5,166.8,52.5,166.8,52.4Zm.3-.2H167c0,.1,0,.1.1.1s.1,0,.1-.1Zm.1-7.8h.2v-.2h-.2Zm1.2,7.8.2-.2.2-.2h-.4Zm1.5-10.7h-.1c0,.1,0,.1.1.1Zm-.1,10.3h.1v-.2h-.1Zm.1.4h-.1c0,.1,0,.1.1.1s.1,0,.1-.1Zm.3-2.2c0,.1,0,.2.1.2h.5v-.6h-.3Zm.1-8.4v.2h0c.1,0,.2,0,.2-.1A.2.2,0,0,0,170.3,41.6Zm1.7,9.8h.3v-.3H172Z"/><path class="cls-2" d="M182.9,55.9h-.2c0-.1-.1,0-.2.1v-.4c-.1-.3-.1-.4-.2-.5V53.7a4120842734950.5,4120842734950.5,0,0,1-.2-.6.5.5,0,0,1,.2-.4c.2,0,.2-.2.2-.4v-.4a.6.6,0,0,0-.1-.4c0-.1,0-.1-.1-.3l-.2-.2v-.2c0-.2,0-.3.1-.4h.1l-.3-.9V48.1a.1.1,0,0,0,.1-.1h0v-.9c0-.2-.1-.4-.1-.6a1.4,1.4,0,0,1-.2-.6l-.4-.3a.1.1,0,0,0-.1.1h-.8a1.4,1.4,0,0,0-.2-.6c0-.2-.2-.3-.5-.2a.8.8,0,0,0-.1-.4c-.1-.3-.2-.4-.3-.4a.8.8,0,0,0,.4-.7,1.9,1.9,0,0,0,.1-.8h-.2s-.1,0-.1-.2v-.8c0-.2,0-.3.1-.4s.1.1.1.2v.6c0,.1,0,.1.1.1h.3v.4h.1c.1-.1.1-.1.1-.2h0a.3.3,0,0,0-.1-.2h0l.2-.3h.2v.2h.1a.3.3,0,0,1,.1.2h.8a.9.9,0,0,0,.4-.6h.3l.2.3c0,.1.1.1.1.2s.1.1.2.1.2,0,.2-.1.1-.2.2-.2a1.3,1.3,0,0,0,.2.8l.5.2h.5c.2,0,.2.1.3.3s.1-.2.3-.3l.4-.2h.5l.7-.5.6-.7h0a.1.1,0,0,1,.1-.1h.2a.1.1,0,0,0,.2,0l.3-.2c.1-.1.1-.2.2-.2h0a.1.1,0,0,1,.1-.1h.4a.1.1,0,0,1,.1-.1h.2a.1.1,0,0,1,.1.1l.2.2h.8v.3a.6.6,0,0,1,.1.4h.5l.3.2a1,1,0,0,1,.1.3l.2.3.3.4h.1v.4h.2c0-.1,0-.1.1-.1h.1l.2.2h.2v1h-.1a.2.2,0,0,1-.4-.1l-.3-.3h-.1v.4a.4.4,0,0,0,.1.3h0c0,.1-.1.1-.2.2s-.1.2-.3.3l-.3.3h-.5c0-.1-.1-.2-.1-.3l-.2-.3a.2.2,0,0,0-.2-.2h-.7c-.1-.1-.2-.2-.2-.3v-.6c0-.1.1-.2.2-.3h-.7c-.2,0-.3,0-.3-.1h-.3a.9.9,0,0,0-.7.3l-.3.7h0c-.1,0-.2,0-.2-.1v-.2h-.6l-.3.2c-.2.1-.2.2-.2.3h0a.1.1,0,0,1-.1-.1h-.2c-.2,0-.3,0-.4.2a.7.7,0,0,0-.1.5c0,.1.1.1.2.2h.4l-.2.5v.6a.4.4,0,0,1,.1.3c0,.1,0,.1-.1.1v.2h0a995164323832.2,995164323832.2,0,0,1,.2.2h-.1a1.7,1.7,0,0,0,.2.5,2.5,2.5,0,0,1,.2.7v.2c0,.1-.1.2-.1.3s-.1.2-.1.3h-.2v.3a5.2,5.2,0,0,0,.2,1.1,5.2,5.2,0,0,1,.2,1.1.8.8,0,0,1-.2.5l-.3.2H185c-.1,0-.2,0-.2.1a.4.4,0,0,0,.1.3.3.3,0,0,1,.1.2.5.5,0,0,1-.2.4l-.4.2-.5.2-.5.3h0a.1.1,0,0,0-.1.1h-.1l-.2-.2h-.3l-.2.2h0a.5.5,0,0,1,.2-.4C182.8,56.2,182.9,56.1,182.9,55.9ZM180.3,43c-.1,0-.1,0-.1.1s0,.1.1.1a.1.1,0,0,0,0-.2Zm.4-.6h.1A.1.1,0,0,0,180.7,42.4Zm1.7.7c-.2,0-.2.1-.3.2v.3h.2v-.4Zm0,7.8v-.2h-.1Zm.7,4.1c-.2-.1-.3,0-.3.2v.3h.2c0-.1.1-.1.1-.2h0Zm-.2-5.2h.1v-.2h-.1Zm.5,4.9a.4.4,0,0,0,.1.3v-.3Zm.5-3.7a.1.1,0,1,0,.1.1A.1.1,0,0,0,183.9,51Zm1.1.3-.2.2v.2h.2Zm.1,3H185c0,.1,0,.1.1.1Zm.2-3.3h0Zm.2-6.5c-.1,0-.1,0-.1.1s0,.1.1.1h0Zm2.7-.2v-.2h0Zm.4-.2h0Zm1.9,0h.1A.1.1,0,0,0,190.5,44.1Zm.3.8h0Zm.2-.3h0Z"/><path class="cls-2" d="M202.9,55.4a.8.8,0,0,0-.1-.3v-.2a.2.2,0,0,0-.2-.2h-.4c-.1,0-.1-.1-.1-.2l-.3.3-.3.2v-.3h-.3l-.2.2a.4.4,0,0,1-.1.3h0c-.2,0-.2-.1-.2-.2s0-.3.1-.4.1-.2.1-.4-.1-.5-.4-.5h-.2a.1.1,0,0,1-.1.1h-.6c-.1,0-.1,0-.1.1h-.2l-.4.2v-.2h-1.2c0-.1-.1-.1-.2-.1h-.1c-.1,0-.1.1-.2.2l-.2.2h-.1v-.2a.3.3,0,0,1,.1-.2.3.3,0,0,0,.1-.2h0c0-.2,0-.3-.2-.3s-.1.1-.1.2V54c-.2,0-.2-.1-.2-.3v-.3h-.1c-.1,0-.2,0-.2-.1H196c-.1,0-.1-.1-.1-.2s0-.2.1-.2v-.3h-.5a.1.1,0,0,1-.1.1v.2h-.3v-.3h0a.1.1,0,0,1-.1-.1.3.3,0,0,1,.1-.2h.1v-.4h-.3v-.2h-.3a.1.1,0,0,0-.1.1c-.1.1-.1.1,0,.2s0,.1.1.2h.3c.1,0,.1.1.1.2h-.7a2,2,0,0,0-.1-.5c-.1-.1-.2-.2-.2-.3h-.3V51h.1c0-.1,0-.2-.1-.2s-.2-.1-.2-.2,0-.1.1-.1h0a.1.1,0,0,1,.1-.1h-.2v-.2h-.1c0-.1.1-.2.2-.3h.7l.3-.2c-.1-.1-.1-.2-.2-.2h-.8c-.1,0-.1,0-.1.1s-.1-.1-.1-.2h0l.2-.4c0-.1.1-.2.2-.4l.3-.3a.3.3,0,0,0,.1-.2c0-.2,0-.3-.1-.4a.6.6,0,0,1-.1-.4.5.5,0,0,1,.2-.4c.1-.2.2-.3.2-.5v-.5h.4v-.4h.2v.6l.2-.2h1.1l-.3-.3-.5-.2v-.4h.6a.8.8,0,0,0,.1.4q0,.1.3.3h.1a.1.1,0,0,1,.1-.1v-1l-.4-.2-.3-.2h0l.3-.5h.8c0-.1.1-.1.2-.3s.1-.2.2-.4.1-.3.2-.4h.2V43a.4.4,0,0,1-.1.3h-.3v.2c0,.1,0,.1-.1.1h0c0,.1,0,.1.1.1h.5c-.1.1-.1.1,0,.1s.1.1,0,.1h.4v-.9h.4l.3.2h.1c0-.1-.1-.1-.2-.2s-.1-.2-.2-.3h0c.1,0,.2,0,.2.1h.1c.1-.1.1-.2.1-.4s0-.3-.1-.4v-.4c0-.1,0,0,.1,0h.3a.1.1,0,0,1,.1.1h.1a.1.1,0,0,0,.1-.1h.1c0-.1.1-.1.2-.3l.4-.2h.5a.1.1,0,0,1,.1.1h.7a.3.3,0,0,0-.1.2,995164323832.5,995164323832.5,0,0,1-.2.2.5.5,0,0,0,.4-.2l.3-.2.2-.3c0-.1.1-.1.2-.1s.2,0,.2.1.2.1.2.2l.3.3h.3v-.2c0-.1,0-.1-.1-.1H203v-.2h.6c0,.1,0,0-.1,0l.6.6c0,.1.1.1.1,0a.1.1,0,0,0,.1-.1.3.3,0,0,0,.1-.2h.7a.8.8,0,0,0,.1.3v.4h.1a.1.1,0,0,0,.1-.1h.1v-1l.3,1.5.7-.5h0c0-.1-.1-.1-.2-.1s-.2-.1-.3-.2h.8v.2c0,.1.1.2.1.3h0a.4.4,0,0,1-.1.3l-.2.2c.1-.1.1-.1.2,0h.1v.2a.1.1,0,0,1,.1.1h.2a.1.1,0,0,0,.1-.1h-.1l.2.2h.2a.1.1,0,0,1,.1.1.3.3,0,0,0,.1.2v1.2c0,.1,0,.2.1.2a.1.1,0,0,1,.1.1h.3a.1.1,0,0,1-.1.1h0l-.5-.2c-.2-.1-.4-.2-.4-.3s-.2.1-.2.2v.2h-.5l-.4-.3h.2v-.4h-.2c-.1-.1-.2-.1-.2-.2h0a.5.5,0,0,0-.4.2l-.3.3h-.2a.1.1,0,0,0-.1-.1c0-.1,0-.1-.1-.1h-.5l-.2-.2h-.3c0,.1-.1.2-.2.3s-.1.2-.2.3h-2.9a.3.3,0,0,1-.1.2h-.2c-.2,0-.3-.1-.3-.2a.2.2,0,0,0-.2-.2c-.1,0-.2,0-.2.1h-.5c0-.1-.1-.1-.2-.1s.1.3.1.4.1.2.2.4.1,0,.1.1h0a.1.1,0,0,0,.1.1c0,.1-.1.2-.1.3h-.6l-.3.5a4.3,4.3,0,0,0-.1.5V48a.4.4,0,0,0-.1.3c0,.1-.1.3-.1.4a1.4,1.4,0,0,1-.2.6l-.8-.6h0v.2h0v.6c.1.1.1.2.2.2h0c0,.1,0,.1-.1.1h1l-.2.5h.2v.6c.2,0,.3,0,.3.1s-.1.1-.1.3h.2l.2.2c.2.2.3.3.3.4s.1.1.2.2,0,.1.1.1h.9c0,.1,0,.1.2.1h.2c0,.1.1.1.3.1h2.5v.4q.3-.2.3-.3a.5.5,0,0,1,.2-.4l1-.3,1-.2h.9a.1.1,0,0,0,.1.1h.8l.4.2v.3c0,.1.1.2.1.3h.1a.1.1,0,0,0-.1.1h-.2a.1.1,0,0,1,.1.1h-.1a.2.2,0,0,1-.2.2h-.1a.3.3,0,0,1,.1-.2h0c0-.2,0-.3-.2-.3s-.1.1-.2.2v.2h-1.2v.5c0,.1.1.1.2.2h-.5v.4a.2.2,0,0,1-.2.2c-.2.1-.2.2-.2.4h-.1v-.3c-.1-.2-.1-.2-.1-.3s-.2,0-.2-.1h-.2v.2c0,.1-.1.2-.1.3h-2.3Zm-9.2-6a.1.1,0,0,0-.1.1c0,.1,0,.1.1.1s.1,0,.1-.1A.1.1,0,0,0,193.7,49.4Zm0-1a.1.1,0,0,0-.1.1h.1Zm.7,1.1c.1,0,.1-.1.2-.2h-.2Zm.6.2h0Zm.1-4.4v.3c.1.1.1.2.2.2h.2c.1,0,.1-.1.1-.2a.2.2,0,0,0-.2-.2Zm0,1.1h.1v-.2h-.1Zm.4,4.2h-.2a.1.1,0,1,0,.2,0Zm.4-2-.3.2c-.1.1-.2.2-.2.3h.5c.1-.1.2-.2.2-.3h-.2Zm-.3-1h.1v-.2c0-.1,0-.1-.1-.1Zm.3,4.4a.1.1,0,0,0-.1.1h.1a.1.1,0,0,0,.1-.1C196,52,196,52,195.9,52Zm.2-4.7a.1.1,0,0,0,0,.2c.1,0,.1,0,.1-.1S196.2,47.3,196.1,47.3Zm0,.6h0Zm.3-4.7h0Zm.2,2.9v.2a.1.1,0,0,0-.1.1h.2v-.5h-.1Zm.1-.8h0Zm0,1.8h0a1105738137560.5,1105738137560.5,0,0,1,.2.2c0,.1.1.1.1.3s.1.1.1.2h.2c.1,0,.1,0,.1.1h.3a.4.4,0,0,0,.1-.3,2,2,0,0,0-.1-.7.5.5,0,0,0-.5-.3h-.4C196.7,46.9,196.7,47,196.7,47.1Zm.2,5.9h-.1a.1.1,0,0,1,.1-.1h0Zm.4-8.6h0Zm.3,1.9a.3.3,0,0,1,.1.2.1.1,0,0,0,.2,0,.3.3,0,0,0,.1-.2Zm2.1-3.2c.2,0,.2-.1.2-.2h-.2Zm.5-1a.1.1,0,0,0,.1.1h.2a.1.1,0,0,1,.1-.1Zm.7.2h0c-.1.1-.1.1-.1.2a1.8,1.8,0,0,1-.1.6v.6h.1a.8.8,0,0,0,.2-.5.7.7,0,0,0,.1-.5v-.3C201.1,42.4,201,42.4,200.9,42.3Zm.3-.3a.9.9,0,0,0,.3.6l.2-.4.4.2c.1,0,.1,0,.1-.1a.8.8,0,0,0-.1-.4c0-.1-.1-.1-.2-.1h-.4C201.3,41.8,201.2,41.9,201.2,42Zm0,1.4a.1.1,0,0,0,.1.1h.2a.3.3,0,0,1,.1-.2h.3c.1-.1.2-.1.2-.2h0v-.2h-.2l-.3.4A.5.5,0,0,0,201.2,43.4Zm.3.6v-.2h-.1Zm.3-.7c-.1,0-.1,0-.1.1s0,.1.1.1a.1.1,0,0,0,0-.2Zm.1,1.1h0Zm.5-.3a.4.4,0,0,0,.1-.3h-.1Zm.1-2h0Zm.1-.4c0-.1,0-.1-.1-.1h.1Zm.7.3a.2.2,0,0,0-.2.2h.2Zm-.2,13.2h.9a.4.4,0,0,0-.1-.3.4.4,0,0,0-.1-.3h-.2a.1.1,0,0,0-.1.1h-.4Zm.2-11.6a.1.1,0,0,0-.1.1h.1Zm.6-1.8a.1.1,0,0,0-.1.1h0c-.1,0-.1,0-.1.1a.1.1,0,0,0-.1.1h0c0,.1-.1.2-.1.3v.4h.3c0-.1.1-.1.2-.1h.6l-.3-.3-.3-.3Zm-.4,1.5v.3l.2.2h.1v-.7h-.2C203.5,43.1,203.5,43.2,203.5,43.3Zm1.2,11.4c-.1,0-.1.1-.1.2s0,.1.1,0h0Zm0-12.5h0Zm.1-.8h.1v0Zm1.5,11.2a.3.3,0,0,1-.1.2.4.4,0,0,1-.1.3h.2v-.3h0Zm.4-10.6c-.1,0-.1,0-.1.1s0,.1.1.1h0Zm.2,1.2c-.1,0-.2.1-.2.3h0Zm.1,1h0a.1.1,0,0,0-.1.1h.1Zm.6,8h-.1c0,.1,0,.1.1.1h0Z"/><path class="cls-2" d="M219.9,48.8l-.6-.5v-.5c-.1-.4-.3-.6-.4-.6h-.4c-.1.1-.1.3-.2.4v.5c0,.2,0,.3-.1.4l-.2.2-.3.2-.4.3h-.3V48.3c-.1.1-.2.2-.2.3s-.1,0-.1.1h-.2v.2c.1,0,.1.1.1.2v.2c-.1.1-.1.1-.1.2h.4a4.3,4.3,0,0,0-.1.5.8.8,0,0,1-.6.2.1.1,0,0,1-.1-.1c0-.1,0-.2-.2-.2h-.1c.1,0,.1.1.1.2a.1.1,0,0,1-.1.1h-.1v.2a4.9,4.9,0,0,1-.1,1.2,4.3,4.3,0,0,1-.2,1.1,4.1,4.1,0,0,1-.5.9,2.3,2.3,0,0,1-.7.7c-.1.1-.2.1-.2.3s0,.1-.2.1-.3,0-.3-.1a1.6,1.6,0,0,1,.3-.6c.1-.1.1-.2.1-.4h.3l-.6.2-.5.4h-.8c0-.1,0-.3-.1-.3s-.1-.2-.1-.3h-.1a.1.1,0,0,0-.1.1h0a.3.3,0,0,1,.1.2h.2l-.2.5h-.3q0,.1-.3.3l-.2.3h-.1c-.1,0-.1,0-.1.1a1.1,1.1,0,0,1,.1-.6,4.3,4.3,0,0,0,.1-.5c0-.3-.1-.6-.1-.9a2.8,2.8,0,0,1-.1-.9.6.6,0,0,1,.1-.4.8.8,0,0,0,.2-.5c0-.1-.1-.1-.2-.2s-.1-.1-.1-.3a2.5,2.5,0,0,1,.2-1.2,6,6,0,0,0,.2-1.2.3.3,0,0,0-.1-.2.3.3,0,0,1-.1-.2c0-.1-.1-.2-.1-.4v-.5a.9.9,0,0,1-.1-.5V39.1c-.2-.7-.3-1.4-.5-2.2a7.8,7.8,0,0,1-.2-2.2c0-.2,0-.3.2-.4h.5v.5l.5-.3a.4.4,0,0,1,.1-.3v-.5l.3.3H213q.3.1.3.3v.5h.3c.2,0,.3,0,.3.2v.3c0,.1-.1.2-.1.4s-.1.3-.2.4v.2l-.4.6c-.1.1-.2.2-.2.3s-.2.1-.2.2h1.1c.1,0,.2,0,.2.1s-.1.2-.1.4a1.4,1.4,0,0,0-.2.6l-.3.6c0,.1-.1.3-.1.4v.2h.2a.1.1,0,0,1,.1.1c.1,0,.1,0,.1.1l-.3.3c-.2,0-.3.1-.3.2l.4.3.4.4.4.5a.6.6,0,0,1,.1.4h0c0,.1,0,.1-.1.2l-.4.2-.5.4h.1l.2.3.2.3h.1c-.1.2-.2.4-.4.4a.8.8,0,0,0-.2.6.3.3,0,0,0,.1.2l.3.3.2.4h.1a1.8,1.8,0,0,1-.1.6,3.9,3.9,0,0,0-.2.6.1.1,0,0,1-.1.1h-.3v1.9a1.1,1.1,0,0,0,.3-.5l.5-.7a4.3,4.3,0,0,1,.4-.7c.2-.3.3-.4.4-.4l.8-.4.5-.5.4-.6.5-.7c.1-.2.2-.3.2-.5a.8.8,0,0,1,.2-.4c.2.1.2.2.3.4v.3l1-1c.1-.1.2-.2.2-.3l.2-.3.2-.3h.4l.8.3a1.7,1.7,0,0,1,.6.6,2.2,2.2,0,0,1,.5.8,3.1,3.1,0,0,1,.2.8h-.9v.4c.1.1.1.1.1,0h.6a.8.8,0,0,1,.2.4.4.4,0,0,1,.1.3.4.4,0,0,0,.1.3l.5.2a.3.3,0,0,1-.1.2l-.2.3-.2.3V47l.7.4-.5.7c0,.1,0,.1.1.2h.6c0,.1-.1.1-.2.1h-.5c-.1,0-.2.1-.1.1s.1.2.3.3l.6.4.5.3q.3.1.3.3h-1.1c-.2,0-.3,0-.3.1l.3.6c.1.2.1.3.2.4v.2l.7-.8V51h.5l.3.3c0,.1.1.2.2.3l.4.2v1.8l-.4.5c-.1.2-.2.3-.2.5l-.4.3c-.1.2-.2.2-.4.2H224l-1-.3-1-.5a.8.8,0,0,1-.4-.4V52.6c0-.3,0-.4-.2-.6s0,.1-.1.2v.3a.4.4,0,0,0-.1.3h-.3a1,1,0,0,1-.1-.4v-.7a1.5,1.5,0,0,0-.1-.7v-.4h-.1l-.3.4-.2.3a.1.1,0,0,1-.1.1c0-.1-.1-.1-.1-.3s-.1-.2-.1-.4v-.5l-.2-.9ZM211,54.9a.2.2,0,0,0-.2.2c0,.1.1.1.2.1a.1.1,0,0,0,.1-.1A.3.3,0,0,0,211,54.9Zm.2-2.2a.3.3,0,0,0-.1.2.1.1,0,0,0,.1.1c.1,0,.1,0,.1-.1S211.3,52.7,211.2,52.7Zm.6-17.9h0Zm.7-.4c0-.1,0-.1-.1-.1h.1Zm.3.1h-.1a.3.3,0,0,0,.1.2.1.1,0,0,1,.1-.1A.1.1,0,0,0,212.8,34.5Zm1,16.8c0,.1-.1.1-.2.2h-.3l-.2.2c-.1,0-.1.1-.1.2h.6c.2,0,.2-.2.2-.4v-.2Zm-.3-5.4v.3h.3C213.8,46,213.7,45.9,213.5,45.9Zm.4,6.4c0,.1.1.2.2.4l.3.2h.1l.4-.6h0a.1.1,0,0,1-.1-.1h0v-.2h.1v-.2h.2v-.2c-.1-.1-.1-.2-.2-.2h-.1a.5.5,0,0,1-.3.4c-.2.2-.2.3-.2.4v.2c0,.1,0,.1.1.1h-.6Zm1.2-2.6h0Zm3-4h0Zm1.3-1.9a.2.2,0,0,1-.2.2l-.3.2h-.2a.4.4,0,0,0-.1.3h.6c.2,0,.3-.1.3-.4h0C219.5,43.9,219.4,43.9,219.4,43.8Zm.1,5.7h0Zm.9-6.8h0Zm.3,1h-.1c0,.1,0,.2.1.2s.1-.1.1-.2Zm1.9,10.2c-.1,0-.1,0-.1.1s0,.1.1.1a.1.1,0,0,0,0-.2Zm.7-.6c-.1,0-.1.1-.1.2s0,.1.1.1.1,0,.1-.1S223.4,53.3,223.3,53.3Zm1.4-1.1c-.1,0-.2,0-.3.2v.4l.3-.2Zm.5-.2c-.1.1-.2.1-.2.2v.3h.2Z"/><path class="cls-3" d="M16,164.7h8.7a13.6,13.6,0,1,1,0,27.1H16Zm19.2,13.5A10.4,10.4,0,0,0,24.7,168H19.4v20.5h5.3A10.5,10.5,0,0,0,35.2,178.2Z"/><path class="cls-3" d="M57.7,183.9H44.3c.4,2.9,2.5,5.1,5,5.1a6.7,6.7,0,0,0,4.3-1.8l2.7,1.6a11,11,0,0,1-2.3,2,10.2,10.2,0,0,1-4.6,1.3,7.8,7.8,0,0,1-5.9-2.7,9.1,9.1,0,0,1-2.3-5.5,1.9,1.9,0,0,1-.1-.8,6.9,6.9,0,0,1,.3-2,8.8,8.8,0,0,1,2.1-4.2,8,8,0,0,1,5.9-2.7,7.8,7.8,0,0,1,5.9,2.7,8.1,8.1,0,0,1,2.2,4.2A10.9,10.9,0,0,1,57.7,183.9Zm-3.4-2.8h-.1a5.2,5.2,0,0,0-4.8-3.7,5.3,5.3,0,0,0-4.8,3.7h9.7Z"/><path class="cls-3" d="M72.7,186.6a4.6,4.6,0,0,1-.8,2.8,5.5,5.5,0,0,1-2.3,1.9,7.8,7.8,0,0,1-3.1.6l-1.8-.2a11.5,11.5,0,0,1-5.2-2.5l2-2.2a7.5,7.5,0,0,0,4.8,2,4.5,4.5,0,0,0,2-.4,2.2,2.2,0,0,0,1.4-2c0-1.2-1-1.9-3.4-2.3a17.8,17.8,0,0,1-4-1.2,4.5,4.5,0,0,1-2.5-4,4.4,4.4,0,0,1,.9-2.7,5.2,5.2,0,0,1,2.1-1.7,7.3,7.3,0,0,1,3-.6h1.3a9.5,9.5,0,0,1,4.7,2.1l-1.9,2.2a6.2,6.2,0,0,0-3.9-1.6,5.3,5.3,0,0,0-1.9.4,2.2,2.2,0,0,0-1.2,1.8c0,1.1.9,1.7,3.2,2.2a25.6,25.6,0,0,1,4,1.2,4,4,0,0,1,1.8,1.5A3.8,3.8,0,0,1,72.7,186.6Z"/><path class="cls-3" d="M76.5,169.4a2.2,2.2,0,1,1,4.3,0,2.1,2.1,0,0,1-2.1,2.1A2.1,2.1,0,0,1,76.5,169.4Zm.5,5h3.3v17.4H77Z"/><path class="cls-3" d="M102.1,174.4v18.2a9,9,0,0,1-9.1,9.1,9.9,9.9,0,0,1-4.9-1.3l-1.6-1.3,2.4-2.1a8.5,8.5,0,0,0,4.1,1.5,5.9,5.9,0,0,0,5.8-5.9v-2.9a8.9,8.9,0,0,1-5.8,2.4,9.4,9.4,0,0,1-6.5-2.6,9.3,9.3,0,0,1,0-12.9A9.4,9.4,0,0,1,93,174a8.9,8.9,0,0,1,5.8,2.4v-2Zm-3.3,8.7a5.8,5.8,0,0,0-5.8-5.9,5.9,5.9,0,1,0,0,11.7A5.8,5.8,0,0,0,98.8,183.1Z"/><path class="cls-3" d="M123.4,182.4v9.4h-3.3v-9.4a5.1,5.1,0,1,0-10.2,0v9.4h-3.3V174.4h3.3V176a8.1,8.1,0,0,1,11.1.4A8.7,8.7,0,0,1,123.4,182.4Z"/><path class="cls-4" d="M97.3,320.9h0V310.8h0v-5.2h0V302h13.3l5.4,1.7h0l2.9,1.3h.1l2.3,5.5h0l-.7,4.2h0l-3.1,3.2,2.4,1.9h0l1.3,3.2h0l.2,5.4h0l-3.1,4.4h0l-5.1,1.7h0l-9,.3h-7v-8.1h0Zm.2-3.1v3l1.1-.6Zm-.1,3.2v5.3l1.7-4.7Zm0,5.8v4.6l2.6-2Zm.1-21v4.8l1.7-2.2Zm2.9,4.6-2.9.4v3.5Zm-2.9,10.5,1.6.6-.6-1.2Zm1.7.8-1.7,4.9,4.1,1.4Zm-1.6-19.6v3.4l2.5-1.8Zm-.1,3.6,1.8,2.7,2.6-3.3Zm3.1,4.7-3.1,4.1,4.4,3.5,3.4-3.4ZM97.5,315v2.5h.6Zm0,16.6v3l4.3-3.3Zm.1-20.9,2.9-.4-1.2-1.8Zm.7,6.9,3.5.4-4.2-3.4Zm-.7.1,1,2.4h.1l-.5-2.3Zm4,10.5-4-1.4,2.6,2.5Zm-1.5-24.4-2.5,1.8,4.3-.6Zm.1,25.6-2.6,2,4.4-.2Zm-2.5,5.3h6.6l-2.2-3.5Zm4.5-32.6H97.7l2.4,1.5Zm-3.9,15.6.5,2.2,3-1.8Zm.3,2.5.4.8-.2-.9Zm.3-.1.3,1.3,2.5-3.1Zm.4,1.5,2.4,6.4,3.6-6.2Zm0-.1h5.9l-3.3-3.4Zm0-13.1,1.2,1.8,1.4-5Zm3-6.2-2.1,1.5,1.8,1.2Zm-2,27.2,1.7,1.7-.4-2.9Zm1.7-24.3-1.4,5.2,4.7-1.1Zm3.3,4.2-4.6,1.1,4.7,4.1Zm0,12.6-3.5,6.2,3.7-.5Zm-2.6,8.6,2.8-2.7-3.7.4Zm-.9-2,.3,2.6.5-.5Zm3.6-13.8-3.4,3.4,3.3,3.5Zm-.5-10.9-2.5-1.7-.3,2.8Zm.1,1-2.9.2,3.2,4.1Zm-2.8,26.4,2,3.1-1.5-3.6Zm2.8-26.5v-.8l-2.5,1Zm-2.4-2.6,3.6,1.3,4.2-1.4Zm3.5,1.3-3.4-1.2,2.3,1.6Zm-3.3,27.2,1.6,4.1,1.1-6.8Zm1.7,4.1,5.3-3.5-4.2-3.4Zm.1.1,8.6-.3-3.3-3.2Zm3.8-30.4-3.4-.5v.7Zm.3,0-3.6.4.3,4.3Zm-2.5-.9-1,.3,3.1.4Zm-.7,11.2v6.9l6.1-3.3Zm.2,12.9h6.7l1.2-4.4-4.1-1.3h-4.1Zm7-17.6-1.5-.7h-5.8v5.2h5.9l2-2Zm-1.6-.9-2.3-4.6-3.3,4.7Zm.3,9.4-5.8,3.1h3.9Zm-5.8-3.9,5.9,3.6v-3.6Zm.2,13.1,4.1,3.4,2.4-3.5Zm4.8-25.6-4.2,1.4,2.4.8Zm.2,2v-2l-1.7,2.2Zm.1,2v-1.9l-1.8.2Zm.1.1-1.9-1.5,1.9,2.7Zm0,1.4-1.8-2.6,1.9,3.9Zm-1.3,14.1,3.9,1.3-1-2.4Zm0-.1,2.8-1.1-.5-1.1Zm2.3-2.3-.4-.9-1.8,3Zm-2,11.8,2.8-.2-.4-3.2Zm.1.1,3.1,3.2-.4-3.4Zm1.5-27.2-.8-1.7v1.8Zm-.8-1.9.9,1.9,4.2-.4Zm.9,2.1h-.8l.2,2,1.5,1.3.4-.4Zm.9,3.4-1.5-1.3v1.2l.7,1Zm-.9.9-.5-.8v1.4Zm.3.5-.2-.4-.4.5Zm0,0-.6.2,1.2.6Zm1.4,3.7-1.9,1.9.9,1Zm-1.9,2.1V318l.7-2.1Zm2.1,2.8-1.2-1.6-.7,2.2Zm-1.5,1.6.5-.5-.9-.3Zm3.9-15.5-4.2.4,1.3,2.9Zm-3.4,4-.8.8.3.4,1.3-.3v-.2Zm.1,11,.3-.4h-1.1Zm.9-1-1.6.5h1.2l.5-.5Zm.2,2.4v-.9l-1.1-.4-.6.5.5,1.2Zm-.5-11.3-1.1.2.5.8Zm-1,6.9h0Zm1.6,1.8-1.4-1.6h0l1.2,1.6Zm-1,13.4,2-.2-2.4-3Zm1-13.6-.4-4.5-1,2.9Zm-1.4,10.1,6.3-2.5-5.1-1.8Zm2.5,3.2,3.8-5.6-6.3,2.5Zm-1.9-23.4-.4.4.9.7h0Zm.6,15.6v-2.6l-1.1.4Zm-.9-4.1,1,.4v-.9h-.7Zm0-8.7.7,2.2v-1.9Zm.9-1.2-.8,1,.8-.3Zm-.1,1.4v-.5l-.8.2Zm-.3,24.2,1.6-3.6-2,.2Zm.2-25.7-.4.7.6-.7Zm2.4-4.6-2.7,3,.5,1Zm-2,13.9-.2-.2-.4.4h.6Zm-.5,16.5,4.9-1.7-3.3-2Zm.2-26h0Zm1.6,2.4-1.5-.6v2.1Zm-.6,6,4.6-4.4h-5.6Zm.8-5.9-1.8,1.5h5.5Zm-1.4,6.4.5-.4-.9-3.7Zm-.2-8.9,1.5-3.1-1.6,2.8Zm1,.8-1,.3v.6l1.6.7.8-.7Zm-1,13.5,1.3-3-1.2.4Zm.8-13.6-.7-.5v.8Zm-.7,8.6v-.2h0Zm2.6,3.8-1.3-1.8-1.4,3.1Zm-2.6-1.5,1.1-.4-1.1-.4Zm0-1,1.1.4-.9-1.3H114Zm3.6,3.9-1-1.3-2.6,1.3Zm.2-17.1-1.5-2.1-2.2,4.6Zm.8,2-4.5.7.8.6Zm-4.3,10.2-.2-.4v.4Zm4.6,6.7-1.3-1.7H114ZM117.7,306l-3.7,2.5,5-.8Zm-3,11.8-.6-.2.3.5h.4Zm-.1-.3v-.2l-.4.2Zm-.3.7h-.1l.5.7Zm.3-1V317l-.3.3Zm.1.4h0Zm.3,1.7-.2-1.1h-.4Zm-.3-2.2,3.6-1.5.9-3-4.6,4.4Zm3.1.1.5-1.5-3.6,1.5v.3l2.4.3Zm-3,.4h0l.7.3H117Zm.4.4h-.4v.2Zm3.6-10.1-3.9,1.4,1.3.9Zm-3.4,10.2h-.5l.3,1.4,1.2-1.1Zm6.1,10.4-6.4,2.2,3.4,2Zm-6.3,2.1,6.3-2.2-2.6-3.4Zm3.4-11.3-1.8-.7-1.5,1h3.6Zm-2,2.2,1-.5-2.3-1.2Zm2.4-1.6-3.6-.2,2.3,1.2,1.5-.7Zm-.1-7.6-2.7-2-.7.6Zm-2.4,6.1.4-.4h-1.2Zm-.7.7.8-.5h-.1Zm3.5-6.7-.3-4.5-2.7,2.3Zm-.3-7.5-2.7-1.1,1.5,2Zm-2.3,13.6.8-.5h-.4l-.5.4Zm2.6,4.4.2-.9-1.8-.9-1.1.5,1,1.4Zm-.8-3.7-.8-1.2-.8.5Zm-.9-1.3.2-.5-.5.4Zm1.3,6.9.4-1.8h-1.6Zm-1.1-7.1,2-2.2-1.9,1.7Zm1.3-12.7-1.3.9,1.2,1.7Zm.7,15.9-.5-.6-1.5.7,1.7.9Zm0-1.2-1.9-1.5.8,1.1ZM118,317l2.5-2.2-2.1.9Zm2.7-2.4-1.3-2-1,2.9Zm-1,5.2-.9-.4.2.4Zm1.6,3.3-2.3,1.8,2.5,3.4Zm-2.3,1.7,2.2-1.8h-1.8Zm.2-17v0Zm.1,12.4.6-.3h-.8Zm2-10-2.1-5v2.7Zm-1.2,1.5,1.3-1.3-2.1-2.3v.2Zm-.1.1-.7-2.9v3.4Zm.6,2.5-.6-2.4-.6.6Zm-.8,6.5.2-.9-.6.3Zm-.4,2.1h1.7l-1.5-.8Zm1.8-.1-1.3-1.8-.3,1Zm-.1-.2-1-2.6-.2.9Zm.3-12-1.3,1.2.6,2.5Z"/><path class="cls-4" d="M151.6,315v6.9l-.2,4.4-.3,2.2h0l-3.5,4.2h0l-3.5,2.1h-8.8l-3.1-2h-.1l-4.4-5.2h0l-.7-4.3h0v-3.6l-.2-4.3-.2-3v-5l.3-3.7h0l2.3-1.6h0l5.5,1.1h.1l-.7,4,.9,5.6h0v6.6l.3,2.7,2.3,6.1,5.9-2.5.3-6.6-.2-4.2V302.5h0l4.4-.4,3.5.7h0V315Zm-24.9-2.9,1.4-2.8-1.4-1.8Zm0,.3.2,2.7,1.3-1.9Zm.1-5.4,1.1-2.5-.9-.8Zm2.8-.8-2.8,1.1,1.3,1.9Zm-1.6-1.6-1.2,2.6,2.8-1.1Zm-1.2,7.6,2.8-.9-1.5-1.9Zm0,.1,1.5.8,1.2-1.7Zm.2,3.1v4l1.8-2.5Zm1.3-2.1-1.3,1.9,3.6-.7Zm-1.3,2,2,1.5,1.6-2.2Zm2.1-13.2-2,1.5.9.8Zm-2,17.8v3.2l.8-.7Zm4.6-.8-4.6.6,1.2,2.3Zm-4.6,4.1.8.6v-1.1Zm0,.1.6,3.8.2-3.2ZM129,317l-1.9,2.5,4.6-.5Zm-.8,5.1-.9-1.8.7,2Zm-.7.7.5-.3h-.1Zm.5,1.2-.2,3.4,2.1-2Zm-.2,3.6,4.4,5,1.7-4.7Zm.1-.1,5.9.3-3.8-2.3Zm.1-3.6,1.8,1.3-1.7-2.5Zm1.2-21.7-1.2,2.3,1.6,1.5ZM128,322.4h.1l.2-.2h0Zm.1.2,1.4,2-1-2Zm.1-13.3,1.4,1.9v-4.9Zm0,13.2h0Zm.2-.3,1.4-1.3-1.5,1.2Zm0-9,2.2,1.2-1-3Zm2.5,9.1.9-3.1-3.4,3.1v.2Zm-.1.1-2.2.2,1.4,2.7Zm-1.7-5.5,2.7,2-1.1-4.3Zm2.7-12.1-2.5-2.7.4,3.9Zm2.8-1.7-5.3-1.1,2.5,2.7Zm-4.9,8.1,4.2-4.1-4.2-.9Zm5.1,1.5-5.1-1.3,1.1,3Zm.1-.1-.9-5.4-4.2,4.1Zm-1.1-5.6-2-2.1-2,1.2Zm-3.7,18.3,4.8-3.2-4,.3Zm0,.1,3.9,2.4,1.1-5.6Zm2.8-8.5,1.9-4.1-4,1.7Zm-.1.1-2-2.3,1.1,4.2Zm2.2,5-3.1-2.8-.9,3.1Zm-.3-18.8-2.8,1.6L134,307ZM131.9,319l2.8.2-1.8-2.1Zm3.2,2.9-.3-2.6-2.8-.2Zm-2.8,10.8,3,1.9-.8-3.8Zm1.7-4.6-1.7,4.5,2.2-1.9Zm.9-15.1-2,4,1.9,2.1Zm2.5,15.1-2.2-5.9-1.1,5.6Zm-2.8,2.5,2.8-2.4-3.3-.3Zm0,.1.8,3.8,2-6.2Zm.8,4h4.4l-2.3-6.5Zm2.2-6.5,2.2,6.4v-6.2Zm5.5-2.3-5.4,2.2,2.2.2Zm-3.2,8.8,4.4-4.3-4.3-1.9Zm.1.1h4l.3-4.2Zm3.4-9.1-3.4,2.7,4.3,1.9Zm.1-.2,2.7-1.5-2.4-1.9Zm0,.2.9,4.6,4.3-4.2Zm.1-11.8v.8h0Zm0,1v.1Zm.1,6.3v0Zm2.6,2.9-2.7,1.5,5.1.4Zm-2.7-9.3Zm2.5-11.2-2.4-1v3Zm-2.4,8.2,3-1.3-3-4.6Zm0,.2v2.6l1-1Zm5.1-7.3-5.1,1.1,3.1,4.7.6-.3Zm-5.1,7.2,1.1,1.6,2.3-2.2Zm0,3,3.6,2.3-2.5-3.6-1.1,1.1Zm0,.1v3.9l3.6-1.5Zm.1,4.1v2.8l1.6-2Zm2.4-15.5-2.4,2,4.8-1Zm1.6-1.4-3.9.4,2.3.9Zm-.5,15.3-3.4,1.5,1.5.8Zm-1.8,2.5-1.6,2h5.6Zm-1.6,2.1,2.4,1.9,3.2-1.8Zm.2-10.4,3.1-.5-.4-.6Zm0,22.9,3.4-2-3.1-2.1Zm.4-4.2,3,2.2.6-3.2Zm3.6-1.1.6-3.1-4.1,4.1Zm-3.2-15.7,2.5,3.6-.2-5.9Zm4.7,8.4-2.1-4.5-2,2.4Zm-.9-17.4-.8-2.4-1.6,1.4ZM146.4,324l2.4,2,.8-3.8Zm.8-12.9.2-.7-.5.2Zm.3,6.2,4-2.3-4.2-3.7Zm-.2-6.2,2.4-1.7-2.2.9Zm4.2,3.8-1.2-4.9-2.9,1.2Zm-1.5-5.7-1.2-4.3-1.2,5.3Zm1.5,5.9-3.9,2.2,3.8,1.4Zm-1,5.5.9-1.8-3.8-1.3Zm-.1.1-2.7-3,2,4.3Zm-2.7,11.8,3.2-3.9-2.7.8Zm2.5-22.6v-.6l-2.4,1.7Zm1.1-7-3.3-.7.9,2.4Zm-3,26.3,2.7-.7-2.1-2.3Zm3.1-26.2-2.5,1.7,1.5,2.7Zm-1.3,21.1-.4-1.7-.8,3.4Zm.4,2.1-.4-1.9-1.2,1.7Zm-1.5-.1,2,2.2-.5-2Zm1.4-18.5-1.4-2.5,1.1,3.9Zm1.1,14.3-1-1.1-.7,1.3Zm-1.1,1.8,1.1-1.7-1.7.2Zm-.3.3.2-.2-.4-1.1Zm.1-14.8,1.2.2-.9-1.7Zm.1.7,1-.4-1.1-.2Zm.9,16.1-.8-2.1-.2.2.4,2.1h.6Zm.3-11.4v-5.1l-1,.5Zm-.3,11.2.3-3.7-1.1,1.7Zm.2-22.4-.9,4.2.9,1.6Zm.1,18.4V319l-.9,1.7Zm-.5,6.3.2-1.8h-.6Zm.2-1.3v-.5h0Zm.2-1.5v.7h0Z"/><path class="cls-4" d="M156.2,322.9v-6l-.3-7v-8h8V310l-.2,4.7v3.6l-.4,3.8v10.3l.2,2h0l-5.4.3-2.5-.3h-.1l-.2-7Zm.8,1.4-1.3,3.1,3.6.6Zm-.8,6.7,3.1-2.9-3.6-.6Zm-.5-2.6.2,5.1.2-2.4Zm.1-1.4,1.2-2.8-.7-1.1Zm.1-21.5,1,.6-1-3.8Zm0,.2v3.9l1.1-3.3Zm4.2-2.6-4.2-1.1,1.2,4.1Zm-4.2,6.8,2,3.9,5.2-4.3-6-3.2Zm0,.2.3,6.6,1.6-2.8Zm0,24.3,2.4.3-2.1-3.5Zm2-20.4-1.7,2.9,3.2,1.5Zm-1.7,3.2v5.6l1.4-2Zm0,13.9,2.2,3.5,1-6.4Zm.1-29.1,3.9,1-.3-1.1Zm0,15,1.5,3.7,1.6-2.1Zm0,6,.7,1,.5-1.2Zm1.7-1.3-1.6,1.2,1.1-.2Zm-.2-.8-1.3,1.8,1.5-1.2Zm-.7,3.3,2.2,3.6-1-5.1h-.7Zm4.2-18.6-1.1-2.4-3,3Zm-4.1.7,5.9,3-1.7-3.6Zm.5,16.4h.6l-.2-.9Zm.1-1.9.3.6,1.1-2.4Zm5.8-6.1-5.7-.8,1.6,4.6Zm.1-.1-.4-4.1-5.3,3.3Zm-5.3,8,4.4-.5-4.6-.5Zm2.4-2.7-1.3-1.3-1.3,2.8Zm2.4,2.1-2.3-2-2.6,1.5Zm-4.8.7,1.1,5.2,3.7-5.8Zm5.1,9.7-4-4.2-1,6.4Zm-.3-22v-.8l-4.6,3.8Zm.3,22.1-4.8,2.2,5-.3Zm-3.9-4.5,3.8-1.1v-4.7Zm3.8-1-3.8,1.1,3.9,4.1Zm.3-12.2-4.1,3.7,4.1-.3Zm-2.8,5,2.6-1.5-3.9.3Zm2.5-17.9H160l.3,1.1Zm.4,3.3v-3.3l-3.3,1.2Zm-2.4.4,2.3-.3-3.3-2.1Zm2.3,12.8-2.7,1.5,2.3,2.1Zm-.5-9.1.6-3.9-2.3.3Zm.6-3.4-.6,3.5.7.5Zm.1,4.1-.6-.4v.7Zm0,.1-.5.4.3,3.5Z"/><path class="cls-4" d="M188,327.5h2.6v2.8l-.3,4.2h0l-5.5.4-5.2-.3H168.7l-.2-6.1v-3.3l.3-5.9V301.9h4.9l3.2.6h.1l-.2,2.8-.7,3.9.8,4.4-.6,3.2.7,4.2h0l-.2,3.5-.4,2.3,5,.9Zm-19.4-2v2.7l.6-1.3Zm0-.4,1.4-1.7-1.1-3.8Zm0,.2.6,1.4.5-1.2Zm1.4-1.8-1.4,1.7,1.2.2.5-1.1Zm-1.4,5,2.5,2.9-1.7-4Zm0,.1.2,5.9,2.4-2.8Zm.2-22,2.8-2.8-2.8-1.8Zm3-2.5-3,2.6,1.8,3.5Zm-3,9,1.8-2.8-1.8-3.4Zm0,.2,3.4,1.8-1.6-4.6Zm0,.1.2,5.8,3.2-3.9Zm.4,13.6-.4,1.1.6-.8Zm-.3,7.6h4.8l-2.4-2.8Zm4.6-32.6h-4.6l2.7,1.7Zm-1.3,13.5-3.2,3.8,2.5.3Zm-.7,4.2-2.5-.3,2.2,2.5Zm-2.5-.2,1.1,3.8,1-1.2Zm.3,7.4v.3l1.2-1.6h-.7Zm1.3-1.1-1.1,1.5,1.7,4.1Zm-.3-1.4-.4,1h.7Zm1.4-20.5-1.6,1.6,1.7-1.5Zm-1.6,19.5.2.7.7-1.8Zm1-.9-.7,1.8.2,1Zm-.4-12.2,5.1-1.1-3.9-5.1Zm3.3,2-3.3-1.8,1.6,4.6Zm-3.3,13.4.7,5.9,4.7-4.8Zm3.4-13.5,1.7-2.9-5,1.1Zm-2.9,10-.4,3.2,1.5-2.2Zm3,2.7-1.8-1.6-1.6,2.2Zm-3.3.7,5.2,1.1-1.8-1.7Zm.7-5.9-.3,2.2,1.9-2Zm1.1,3,.7-1-2,.4Zm-1.3,9,5.4,1.2-.6-6Zm.1-9.5.9.9.3-.3Zm0,9.6,2.3,2.8,2.9-1.6Zm3-11.7-1.2-.2-1.8,1.9Zm-1,1.5,1-1.4-3,1.7Zm.5-2.6-1.7-3.6-.6,4.2,1.5.2Zm-1.2-16.2-1.1,1h.1Zm3.1,6.3.5-3.9L172,304Zm-1.3-6-1-1.1-1.6,1.8Zm.1.1-2.6.7,4.3,1.2h0Zm1,13.5-3.3-1.3,1.7,3.5,1.3-1.4Zm.9-3.1-2.5-1.3-1.7,2.9Zm-.9,3,.9-2.9-4.2,1.6Zm0,8-.2-.5-2.7-1.3-.3.4,1.8,1.7Zm-.2-.7-.6-2.5-1.3.3-.8,1Zm-1.4-4.8-.7.7,1.2.2Zm.8,2.2-.3-1.1-.9,1.3Zm1.7-18.8-2.9-.5,1,1.1ZM174,334.6h5.4l-2.6-1.5Zm2.6-21-.7-4.3-1.7,2.9Zm-2,6.3.7-2.2-1.1,1.3Zm1.5,6.7-.4-1.9-1.3.3Zm.7-5.7-.7-3.9-1.4,3Zm-.2.1-1.8-.8.5,1.1Zm-.2-16.1.4-2.3-2,.6ZM175,321.3h.1l-.3-.7Zm0-2.1,1-2.2-.5.5Zm1.4,5-1.2-2.8H175l.6,2.6.8.4Zm.1-.3.3-2.8-1.5.3Zm-.4-7.1h-.3l-.2.6Zm.3,7.7h0l-.7-.4v.5Zm-.2,2,.2-1.9h-.6Zm.3-12.1-.7,2.2h.3Zm-.3-7.2.4-1.9h-.1Zm5,20.6-4.9-.9.6,5.9Zm-4.8-2.3.2-.9h-.1Zm.3-21.6-.2,1.1h.1Zm-.1,20.5h0Zm.1-1.5v0Zm4.5,5.1-4.3,4.9,2.6,1.6Zm-1.5,6.5,6-3.2-4.4-3.4Zm.1,0,5,.2.9-3.2Zm8.1-6.9-6.5.3,4.3,3.4Zm-2.1,3.8-.9,3.3,2.5-2.1Zm-.8,3.3,5.1-.3-2.6-1.7Zm2.5-2.2,1.7-1.3-.2-.6-3.1.8Zm.9-3.4-.4-1.4-2,3.4Zm-2.4,2.1,2.9-.7-.4-1.3Zm1.6,1.4,2.6,1.7-1-3Zm2.8-5.1h-2.3l.9,1Zm-1.4,1.2-.9-.9.4,1.2Zm0,0-.4.4.4,1.4,1.4-.3Zm.2,2.4,1.1-.8-1.2.3Zm1.3-3.6-1.4,1.2,1.3,1.3Zm-.3,6.6.2-3.7-1.1.8Z"/><path class="cls-4" d="M218,324.2l-.5,2.6h0l-.8,2.2h0l-2.7,3.3h0l-1.9,1-2.1.9h-.1l-4.3.5H193.7l-.2-4.4.8-4.7-.7-.9h-.1l.2-5.3-.3-4,.9-2.2-.6-5.2v-3.7l-.2-2.4H202l2.7.2,3.1-.2,2,.6,2.2.8,4.2,3.7h0l1.5,3.7h0l.3,4.7v8.7Zm-24.5-8.9,1.2.5-.4-2.4Zm0,.2.3,3.6.8-3Zm.8,10.2-.7,4.4,2.4-2.4Zm1.6,2.3-2.3,2.3v1.9Zm-2.3-3.5,4.1-3.4-3.9-1.6Zm0,7.7v.3h0Zm.1-30.1.2,2.1,1.5-.5Zm0,22.5h.8l2,.6.2-1.1,1-3Zm.6.8v-.6h-.7Zm3-23.4h-3.5l1.8,1.7,1.8,1Zm-3.5,5.8.9-1.7-.8-1.6Zm.9-1.6-.9,1.8,2.1,1.6Zm-.9,1.9.6,4.9,1.5-3.3Zm0,24.3v2.2l2.6-3.2Zm2.3-4.5-2.3,4.4,2.8-1.1Zm-2.3,6.8H198l-1.4-3.4Zm.9-18.6-.8,3.2,3.4-1.8Zm-.8,3.3,3.9,1.6-.5-3.5Zm.1-15.1.8,1.7,3.8-1.2h-1.1Zm.1,0,3.1.4-1.7-.9Zm.6,11.6h-.4l.4.2Zm-.2,9v.6l1.7,2.1.4-2.2Zm-.1-11.6.4,2.5,4.7-1.5Zm1.5-3.4-1.4,3.3h1.9Zm-1.1,6.1.8.4-.8-.4Zm4.2-11.2-4.2,1.3,1.2,3.6,3.3.9,2.2-1.6Zm-4.2,8.5,4.2.8-2.5-.9Zm4.8,1.1-4.7,1.5,2.5,1.5Zm-3.6-4.6.5,3.3,2.7-2.4Zm.6,15.6-.4,2.2,2.4-1.6Zm2.1.7-2.5,1.6,3.6,3.1Zm-2,5.1,3-.3-3.5-3.1Zm2.6-20.4-2.7,2.3,3,1.1Zm-2.7,14.5,2,.6-.8-4.6-1,2.9Zm.1,6,1.3,3.4,1.8-3.7Zm2.3-26.6-1.6-2.5v2.5Zm2.9-2.7h-4.4l1.6,2.6Zm-4.4,15.6.4,3.4,3.5-1.3Zm2.2-3.2-2.2,3,3.9-.5Zm-2.1,3.1,3.8,2.1V317Zm.3,3.6.8,4.7,2.8-3.2Zm3.5-1.3-3.4,1.3,3.5,1.4Zm-3.3,15h3.5l-1.7-3.8Zm.7-8.7,1.1,4.7,1.7-3.2Zm2.7-3.4-2.7,3.2,2.8,1Zm-2.3-18,3.8,3.1-1-3.9Zm2.4,22.3-2.4-.8,2.5,1.3Zm.4-23.2V302l-2.7,2.6Zm1,4.2-3.7-3.1,2.3,4Zm-1.5,1.2-2.1,1.5,2,1.8Zm-2.1,1.6.4,3.4,1.6-1.6Zm.4,3.5,1.6,2.4v-4Zm.1,16.7,1.8,3.7,2.4-3.7Zm.1-.1h4.1l-.6-3.3Zm.1-.3,3.3-3h-1.7Zm3.5-3.1,2.5-.3,3.4-2.2.5-4.8V318l-.4-5.5-2.4-3.1-4.2-1.4-1.5,4.6v10Zm-2-15.3,1.4-4.1-1.4,1Zm1.8,15.2-1.8-4.5v4Zm-.2.1-1.4-.5v.5Zm-1.3,7.2,3-1.7-.8-2-1.3,2.3Zm0,.1h3.6l-.6-1.7Zm2.7-32.6-2.5-.2v1.7Zm-.2,3-2.2-1.2.9,3.8Zm.3-3-2.5,1.6,2.2,1.3Zm2.5,7-2.7-3.9-1.3,2.6Zm-3,21.7,1.8,1.3-.5-4.5h-1.9Zm0-3.4h1.3l.4-.2Zm.8,5.4.9-.5-1.6-1.3Zm2.6-28.9-2.8-1.8-.3,2.9Zm1.8,4.7-1.3-3.6h-3.6l2.8,4.1ZM208,305l-.3-.9-2.9,1Zm-.2-2.5-2.8-.3,2.7,1.7ZM205,333l.6,1.6.4-2.1Zm2.8-31-2.2.2h2.2Zm-2.2,25.6,1.4,2.8.8-3.3Zm.5,4.6.8-1.7-1.3-2.6Zm-.4,2.5,4-.4-3.3-1.7Zm.1-.7.5-1.4-.2-.2Zm.3-6.7-.3.2,1.2-.3Zm.2,5.1.4-1.2-.6,1.1Zm3-7.1-2.9,1.8h1.4Zm-2.9,7.2,3.3,1.6-2.7-3.4Zm.6-2,2.9,3.7,3.4-3.8-1.2-1.8-4.2-1.5Zm2.4-21.7-1.9.6,2,1Zm.1,1.7-2-1,2.2,2.8Zm-1.6-8v1.4l1.8-1.3h-1.7Zm.2,2.4,3.5-1.4-3.8.5Zm-.2-2.8v.3h1.2Zm0,24.9,4.1,1.4-2.4-3.3Zm3.9-23.6-2.1-.7-1.7,1.2Zm2.4,4.2-2.2-4.2-3.8,1.6,1.3,3.7Zm-2.6,3.9-2.1-2.6.2,1.5Zm2.5-3.8-4.6,1.1,2.3,2.7Zm-4.5,17.2,2.4-2.4-1.9-1.6Zm5.2,2.3-2.7-4.6-2.5,2.4,2.6,3.5Zm-3.1-15.6-2-1v1.8Zm-1.5,6.1.8-2.6-1.1-2.4Zm1.2-4.3-1.5-.8,1.1,2.3Zm0-.1.3-1.6-1.8.7Zm.5,9-1.1-2.6-.7.5v.6Zm-1.1-2.7-.6-1.4v1.9Zm-.7,14.5,2-.9,1-2.6Zm.7-14.6,3.3-2.4-3.9.9Zm1.5-3.6-1.2-.7-.8,2.6Zm-2,2,3.9-.9-1.8-1.1Zm1.8,4.5,4.4-.7-2.1-4.7-3.5,2.6Zm1.5-7.8-2.1-1.2-.4,1.6Zm-1.2,1.2,1.2-1.1-2.4.4Zm1.2-1.4-1.8-2.6-.3,1.5Zm.1.1,2.2-4.3-4,1.5Zm.5-6.8-2.3,3.8,4-1.4Zm1.9-.7-3.9-3.4,2.1,3.9Zm-2.2,25.3-.6-1.8-1.1,2.7Zm1-5.2,1.7-2.4-4.4-2.1Zm-1.6,3.2,1.5-2.9-2.6,1.2Zm3.3-5.7v-2.8l-4.2.7Zm-2.3-7.7-.6-2.2-1.2,1.1Zm2.2,12.3-3.1,1.2.6,1.9Zm-3.1,1.1,3.1-1.3-1.6-1.7Zm4.5-14.8-.3-4.6-3.8,3.6Zm-2.3.9-1.8-1.7.6,2.2Zm2.2-.9-3.9-.8,1.8,1.7Zm-3.9-1.2,3.7-3.5-1.5-.5H216Zm2.1-5.1v-2.1l-1.8.5Zm.5,12.3.3-2.4-2.3-2Zm-.5-12.2-1.4-1.3,1.4,2Zm-1.4,7.7,2.2.5-1.1-1Zm2.2,2v-1.4l-2.3-.5Zm-.2,10,.7-2.5-.6-1.7-1.7,2.4Zm1.3-13.4-2.1.9,1.2,1Zm-.5-5-1.3-1.2v.7Zm.1,0-1.3-3.3v2Zm-.9,11,1.4-1.5-1.1-.9Zm1.4-1.3-1.4,1.4,1.3,2.3Zm-.1,3.9-1.3-2.3.2,2.7Zm-.6,2.1.6-2-1.1.4Zm-.4-7.3,1,.9-.9-2.1Zm.1,8.9.4-1.1h-.1Zm1-8v-4.1l-.8,1.8Zm-.3,5.6-.3,1h.1Z"/><path class="cls-5" d="M164.6,68.9a50.8,50.8,0,0,1-45.9,45.7"/><path class="cls-6" d="M160,68.9a4.6,4.6,0,0,1,4.8-4.3,4.5,4.5,0,0,1,4.3,4.7,4.6,4.6,0,0,1-4.8,4.3A4.5,4.5,0,0,1,160,68.9Z"/><path class="cls-7" d="M159.4,68.8a5.2,5.2,0,1,0,5.4-4.8,5.2,5.2,0,0,0-5.4,4.8C159.3,71.7,159.6,66,159.4,68.8Zm9.1.5a4,4,0,0,1-4.1,3.7,3.9,3.9,0,0,1-3.8-4.1,4,4,0,0,1,4.1-3.7,3.9,3.9,0,0,1,3.8,4.1C168.3,71.5,168.6,67.1,168.5,69.3Z"/><polygon class="cls-7" points="120.7 124.1 114 114.8 119.5 104.8 119.6 104.8 120.8 124.1 120.7 124.1"/><path class="cls-5" d="M99.6,115a50.8,50.8,0,0,0-45.3,42.7"/><path class="cls-6" d="M99.2,110.5a4.5,4.5,0,0,1,4.7,4.3,4.5,4.5,0,0,1-4.3,4.7,4.3,4.3,0,0,1-4.7-4.2A4.6,4.6,0,0,1,99.2,110.5Z"/><path class="cls-7" d="M99.1,109.9a5.1,5.1,0,0,0-4.8,5.4,5,5,0,0,0,5.3,4.8,5.1,5.1,0,0,0,4.9-5.3,5.3,5.3,0,0,0-5.4-4.9Zm.5,9a3.8,3.8,0,0,1-4.1-3.7,3.9,3.9,0,0,1,3.7-4.1,4,4,0,0,1,4.1,3.7,3.9,3.9,0,0,1-3.7,4.1Z"/><polygon class="cls-7" points="63.6 157.3 45.5 155.7 53.7 165.6 63.6 157.3"/><polygon class="cls-8" points="65.2 79.9 31.6 62.3 66 56.1 86.2 67.9 65.2 79.9"/><polygon class="cls-8" points="184.5 219.6 153.6 202 159.3 178.3 161.9 190.3 189.9 161 209.3 205.3 184.5 219.6"/><polygon class="cls-8" points="50 362 16.1 321.8 35.9 304.2 50 317.9 61.9 298.3 84.1 321.9 86.2 323.6 86.2 341.1 50 362"/><path class="cls-5" d="M53.9,202.1a51,51,0,0,0,42.7,45.4"/><path class="cls-6" d="M49.5,202.6a4.3,4.3,0,0,1,4.2-4.7,4.6,4.6,0,0,1,4.8,4.3,4.5,4.5,0,0,1-4.3,4.7A4.5,4.5,0,0,1,49.5,202.6Z"/><path class="cls-7" d="M48.9,202.6a5.1,5.1,0,0,0,5.3,4.9,5.3,5.3,0,0,0,4.9-5.4,5.1,5.1,0,0,0-5.4-4.8,5,5,0,0,0-4.8,5.3C49,205.5,48.7,199.8,48.9,202.6Zm9-.4a4,4,0,0,1-3.7,4.1,3.9,3.9,0,0,1-4.1-3.7,3.8,3.8,0,0,1,3.7-4.1,3.9,3.9,0,0,1,4.1,3.7Z"/><polygon class="cls-7" points="96.2 238.2 94.6 256.3 104.5 248.1 96.2 238.2"/><path class="cls-5" d="M118.9,248.3A50.7,50.7,0,0,1,164.2,291"/><path class="cls-6" d="M118.9,252.8a4.5,4.5,0,0,1-4.3-4.7,4.6,4.6,0,0,1,4.8-4.3,4.5,4.5,0,0,1-.5,9Z"/><path class="cls-7" d="M118.9,253.4a5,5,0,0,0,5.3-4.8,5.1,5.1,0,0,0-4.8-5.4,5.2,5.2,0,0,0-5.4,4.9,5.1,5.1,0,0,0,4.9,5.3Zm.4-9a3.9,3.9,0,0,1,3.7,4.1,3.8,3.8,0,0,1-4.1,3.7,3.9,3.9,0,0,1-3.7-4.1,4,4,0,0,1,4.1-3.7Z"/><polygon class="cls-7" points="173.1 288.9 154.9 290.6 164.8 298.8 173.1 288.9"/><path class="cls-9" d="M57.8,59.3a2,2,0,0,1-1.3-.4,1.9,1.9,0,0,1-.2-2.7l.2-.2c1.8-2.2,3.8-5.5,2.8-9.1s-4.3-5.5-6.2-6.5a1.8,1.8,0,0,1-.8-2.5,1.9,1.9,0,0,1,2.5-.8c4.2,2.1,7.1,5.2,8.1,8.8s0,8.4-3.5,12.6l-.2.2A2,2,0,0,1,57.8,59.3Z"/><rect class="cls-10" x="31.6" y="56.1" width="33.9" height="6.16"/><rect class="cls-11" x="42.5" y="32.7" width="17.3" height="8.43" transform="translate(-8.8 56.5) rotate(-53.9)"/><rect class="cls-11" x="43.1" y="43.6" width="3.5" height="3.51" transform="translate(-18.2 54.9) rotate(-53.9)"/><rect class="cls-11" x="55.5" y="25.2" width="4.4" height="5.69" transform="translate(1.1 58.1) rotate(-53.9)"/><line class="cls-9" x1="42" y1="56.1" x2="42" y2="49.7"/><line class="cls-12" x1="35.4" y1="47.6" x2="44.7" y2="50.7"/><polygon class="cls-10" points="162.4 168.9 162.4 204.8 189.9 204.8 189.9 161 170.4 161 162.4 168.9"/><polygon class="cls-13" points="170.5 161 162.4 169 170.5 169 170.5 161"/><line class="cls-14" x1="167.5" y1="171.1" x2="184.8" y2="171.1"/><line class="cls-14" x1="167.5" y1="174.8" x2="184.8" y2="174.8"/><line class="cls-14" x1="167.2" y1="178.5" x2="184.5" y2="178.5"/><line class="cls-14" x1="167.2" y1="182.2" x2="184.5" y2="182.2"/><line class="cls-14" x1="167.2" y1="185.9" x2="184.5" y2="185.9"/><line class="cls-14" x1="167.2" y1="189.6" x2="184.5" y2="189.6"/><line class="cls-14" x1="167.2" y1="193.3" x2="184.5" y2="193.3"/><line class="cls-14" x1="167.2" y1="197.1" x2="184.5" y2="197.1"/><line class="cls-14" x1="167.2" y1="200.8" x2="184.5" y2="200.8"/><polygon class="cls-15" points="153.7 178.3 156.2 171.9 158.9 178.3 159 201.7 153.8 201.7 153.7 178.3"/><polygon class="cls-16" points="157.6 175.5 154.7 175.7 156.2 171.9 157.6 175.5"/><line class="cls-17" x1="157.5" y1="180.3" x2="157.4" y2="198.6"/><line class="cls-17" x1="155.2" y1="180.3" x2="155.1" y2="198.6"/><line class="cls-17" x1="156.4" y1="180.3" x2="156.3" y2="198.6"/><path class="cls-18" d="M34.8,340.8a1.3,1.3,0,0,1-1.2-.5l-16.2-19,16.2-19a1.5,1.5,0,0,1,2.3,1.9L21.4,321.3l14.5,17.1a1.5,1.5,0,0,1-.2,2.1A1.4,1.4,0,0,1,34.8,340.8Z"/><path class="cls-18" d="M65.5,340.8a1.6,1.6,0,0,1-.9-.3,1.5,1.5,0,0,1-.2-2.1L79,321.3,64.4,304.2a1.5,1.5,0,1,1,2.3-1.9l16.2,19-16.2,19A1.3,1.3,0,0,1,65.5,340.8Z"/><path class="cls-18" d="M40.1,345.4l-.6-.2a1.5,1.5,0,0,1-.8-1.9L59.2,297a1.5,1.5,0,1,1,2.7,1.3L41.5,344.5A1.7,1.7,0,0,1,40.1,345.4Z"/></g></svg>