<svg xmlns="http://www.w3.org/2000/svg" viewBox="0 0 678.7 220"><defs><style>.cls-1,.cls-3{fill:#0b0c10;}.cls-1,.cls-2,.cls-3{stroke:#1f2833;stroke-width:1.2px;}.cls-1,.cls-2{stroke-miterlimit:10;}.cls-2{fill:none;}.cls-3{stroke-linejoin:round;}</style></defs><title>welcome-background</title><g id="heading-background"><polygon class="cls-1" points="9.1 25.5 9.1 50.5 30.7 63 52.4 50.5 52.4 25.5 30.7 13.1 9.1 25.5"/><line class="cls-2" x1="30.7" y1="63" x2="30.7" y2="140.5"/><line class="cls-2" x1="30.7" y1="13.1" x2="30.7"/><line class="cls-2" x1="30.7" y1="220" x2="30.7" y2="189.9"/><line class="cls-2" x1="86.7" y1="62.4" x2="86.7" y2="139.9"/><line class="cls-2" x1="86.7" y1="37.4" x2="86.7" y2="-0.1"/><line class="cls-2" x1="86.7" y1="220" x2="86.7" y2="165.9"/><line class="cls-2" x1="142.7" y1="59.1" x2="142.7" y2="30.9"/><line class="cls-2" x1="142.7" y1="3.8" x2="142.7"/><line class="cls-2" x1="306.3" y1="3.7" x2="306.3"/><line class="cls-2" x1="470.2" y1="3.7" x2="470.2"/><line class="cls-2" x1="634.1" y1="3.7" x2="634.1"/><line class="cls-2" x1="142.7" y1="181.8" x2="142.7" y2="143.8"/><line class="cls-2" x1="142.7" y1="220" x2="142.7" y2="209"/><line class="cls-2" x1="198.7" y1="62.8" x2="198.7" y2="140.3"/><line class="cls-2" x1="198.7" y1="13.1" x2="198.7"/><line class="cls-2" x1="198.7" y1="220" x2="198.7" y2="189.7"/><polygon class="cls-1" points="30.7 13.1 21.9 38 40 38 30.7 13.1"/><polygon class="cls-1" points="30.7 63 21.9 38 40 38 30.7 63"/><polygon class="cls-3" points="21.9 38 9.1 25.5 9.1 50.5 21.9 38"/><polygon class="cls-3" points="40 38 52.4 50.5 52.4 25.5 40 38"/><polygon class="cls-1" points="75 43.7 75 57.3 86.7 64.1 98.5 57.3 98.5 43.7 86.7 37 75 43.7"/><polygon class="cls-1" points="86.7 37 81.9 50.5 91.7 50.5 86.7 37"/><polygon class="cls-1" points="86.7 64.1 81.9 50.5 91.7 50.5 86.7 64.1"/><polygon class="cls-3" points="81.9 50.5 75 43.7 75 57.3 81.9 50.5"/><polygon class="cls-3" points="91.7 50.5 98.5 57.3 98.5 43.7 91.7 50.5"/><polygon class="cls-1" points="131 10.6 131 24.1 142.7 30.9 154.5 24.1 154.5 10.6 142.7 3.8 131 10.6"/><polygon class="cls-1" points="142.7 3.8 137.9 17.3 147.7 17.3 142.7 3.8"/><polygon class="cls-1" points="142.7 30.9 137.9 17.3 147.7 17.3 142.7 30.9"/><polygon class="cls-3" points="137.9 17.3 131 10.6 131 24.1 137.9 17.3"/><polygon class="cls-3" points="147.7 17.3 154.5 24.1 154.5 10.6 147.7 17.3"/><polygon class="cls-1" points="75 145.5 75 159.1 86.7 165.9 98.5 159.1 98.5 145.5 86.7 138.7 75 145.5"/><polygon class="cls-1" points="86.7 138.7 81.9 152.3 91.7 152.3 86.7 138.7"/><polygon class="cls-1" points="86.7 165.9 81.9 152.3 91.7 152.3 86.7 165.9"/><polygon class="cls-3" points="81.9 152.3 75 145.5 75 159.1 81.9 152.3"/><polygon class="cls-3" points="91.7 152.3 98.5 159.1 98.5 145.5 91.7 152.3"/><polygon class="cls-1" points="130.9 188.6 130.9 202.2 142.7 209 154.4 202.2 154.4 188.6 142.7 181.8 130.9 188.6"/><polygon class="cls-1" points="142.7 181.8 137.9 195.4 147.7 195.4 142.7 181.8"/><polygon class="cls-1" points="142.7 209 137.9 195.4 147.7 195.4 142.7 209"/><polygon class="cls-3" points="137.9 195.4 130.9 188.6 130.9 202.2 137.9 195.4"/><polygon class="cls-3" points="147.7 195.4 154.4 202.2 154.4 188.6 147.7 195.4"/><polygon class="cls-1" points="9 152.3 9 177.3 30.7 189.8 52.3 177.3 52.3 152.3 30.7 139.8 9 152.3"/><polygon class="cls-1" points="30.7 139.8 21.8 164.8 39.9 164.8 30.7 139.8"/><polygon class="cls-1" points="30.7 189.8 21.8 164.8 39.9 164.8 30.7 189.8"/><polygon class="cls-3" points="21.8 164.8 9 152.3 9 177.3 21.8 164.8"/><polygon class="cls-3" points="39.9 164.8 52.3 177.3 52.3 152.3 39.9 164.8"/><polygon class="cls-1" points="177 152.3 177 177.3 198.7 189.8 220.3 177.3 220.3 152.3 198.7 139.8 177 152.3"/><polygon class="cls-1" points="198.7 139.8 189.8 164.8 207.9 164.8 198.7 139.8"/><polygon class="cls-1" points="198.7 189.8 189.8 164.8 207.9 164.8 198.7 189.8"/><polygon class="cls-3" points="189.8 164.8 177 152.3 177 177.3 189.8 164.8"/><polygon class="cls-3" points="207.9 164.8 220.3 177.3 220.3 152.3 207.9 164.8"/><polygon class="cls-1" points="177 25.6 177 50.5 198.7 63 220.3 50.5 220.3 25.6 198.7 13.1 177 25.6"/><polygon class="cls-1" points="198.7 13.1 189.8 38 207.9 38 198.7 13.1"/><polygon class="cls-1" points="198.7 63 189.8 38 207.9 38 198.7 63"/><polygon class="cls-3" points="189.8 38 177 25.6 177 50.5 189.8 38"/><polygon class="cls-3" points="207.9 38 220.3 50.5 220.3 25.6 207.9 38"/><polygon class="cls-1" points="105.7 79.8 105.7 122.5 142.7 143.8 179.7 122.5 179.7 79.8 142.7 58.4 105.7 79.8"/><polygon class="cls-1" points="142.7 58.4 127.6 101.1 158.5 101.1 142.7 58.4"/><polygon class="cls-1" points="142.7 143.8 127.6 101.1 158.5 101.1 142.7 143.8"/><polygon class="cls-3" points="127.6 101.1 105.7 79.8 105.7 122.5 127.6 101.1"/><polygon class="cls-3" points="158.5 101.1 179.7 122.5 179.7 79.8 158.5 101.1"/><line class="cls-2" x1="250.3" y1="62.4" x2="250.3" y2="140"/><line class="cls-2" x1="250.3" y1="37.5" x2="250.3"/><line class="cls-2" x1="250.2" y1="220" x2="250.2" y2="166"/><line class="cls-2" x1="306.3" y1="59.2" x2="306.3" y2="31"/><line class="cls-2" x1="306.2" y1="181.9" x2="306.2" y2="143.9"/><line class="cls-2" x1="306.2" y1="220.1" x2="306.2" y2="209.1"/><line class="cls-2" x1="362.3" y1="62.9" x2="362.3" y2="140.4"/><line class="cls-2" x1="362.3" y1="12.9" x2="362.3"/><line class="cls-2" x1="362.2" y1="219.9" x2="362.2" y2="189.8"/><polygon class="cls-1" points="238.5 43.8 238.5 57.4 250.3 64.2 262 57.4 262 43.8 250.3 37 238.5 43.8"/><polygon class="cls-1" points="250.3 37 245.5 50.6 255.3 50.6 250.3 37"/><polygon class="cls-1" points="250.3 64.2 245.5 50.6 255.3 50.6 250.3 64.2"/><polygon class="cls-3" points="245.5 50.6 238.5 43.8 238.5 57.4 245.5 50.6"/><polygon class="cls-3" points="255.3 50.6 262 57.4 262 43.8 255.3 50.6"/><polygon class="cls-1" points="294.5 10.6 294.5 24.2 306.3 31 318 24.2 318 10.6 306.3 3.8 294.5 10.6"/><polygon class="cls-1" points="306.3 3.8 301.5 17.4 311.3 17.4 306.3 3.8"/><polygon class="cls-1" points="306.3 31 301.5 17.4 311.3 17.4 306.3 31"/><polygon class="cls-3" points="301.5 17.4 294.5 10.6 294.5 24.2 301.5 17.4"/><polygon class="cls-3" points="311.3 17.4 318 24.2 318 10.6 311.3 17.4"/><polygon class="cls-1" points="238.5 145.6 238.5 159.2 250.3 166 262 159.2 262 145.6 250.3 138.8 238.5 145.6"/><polygon class="cls-1" points="250.3 138.8 245.5 152.4 255.3 152.4 250.3 138.8"/><polygon class="cls-1" points="250.3 166 245.5 152.4 255.3 152.4 250.3 166"/><polygon class="cls-3" points="245.5 152.4 238.5 145.6 238.5 159.2 245.5 152.4"/><polygon class="cls-3" points="255.3 152.4 262 159.2 262 145.6 255.3 152.4"/><polygon class="cls-1" points="294.5 188.7 294.5 202.3 306.2 209.1 318 202.3 318 188.7 306.2 181.9 294.5 188.7"/><polygon class="cls-1" points="306.2 181.9 301.4 195.5 311.3 195.5 306.2 181.9"/><polygon class="cls-1" points="306.2 209.1 301.4 195.5 311.3 195.5 306.2 209.1"/><polygon class="cls-3" points="301.4 195.5 294.5 188.7 294.5 202.3 301.4 195.5"/><polygon class="cls-3" points="311.3 195.5 318 202.3 318 188.7 311.3 195.5"/><polygon class="cls-1" points="340.6 152.4 340.6 177.4 362.2 189.9 383.9 177.4 383.9 152.4 362.2 139.9 340.6 152.4"/><polygon class="cls-1" points="362.2 139.9 353.4 164.9 371.5 164.9 362.2 139.9"/><polygon class="cls-1" points="362.2 189.9 353.4 164.9 371.5 164.9 362.2 189.9"/><polygon class="cls-3" points="353.4 164.9 340.6 152.4 340.6 177.4 353.4 164.9"/><polygon class="cls-3" points="371.5 164.9 383.9 177.4 383.9 152.4 371.5 164.9"/><polygon class="cls-1" points="340.6 25.6 340.6 50.6 362.2 63.1 383.9 50.6 383.9 25.6 362.2 13.1 340.6 25.6"/><polygon class="cls-1" points="362.2 13.1 353.4 38.1 371.5 38.1 362.2 13.1"/><polygon class="cls-1" points="362.2 63.1 353.4 38.1 371.5 38.1 362.2 63.1"/><polygon class="cls-3" points="353.4 38.1 340.6 25.6 340.6 50.6 353.4 38.1"/><polygon class="cls-3" points="371.5 38.1 383.9 50.6 383.9 25.6 371.5 38.1"/><polygon class="cls-1" points="269.3 79.8 269.3 122.6 306.3 143.9 343.3 122.6 343.3 79.8 306.3 58.5 269.3 79.8"/><polygon class="cls-1" points="306.2 58.5 291.2 101.2 322.1 101.2 306.2 58.5"/><polygon class="cls-1" points="306.2 143.9 291.2 101.2 322.1 101.2 306.2 143.9"/><polygon class="cls-3" points="291.2 101.2 269.3 79.8 269.3 122.6 291.2 101.2"/><polygon class="cls-3" points="322.1 101.2 343.3 122.6 343.3 79.8 322.1 101.2"/><line class="cls-2" x1="414.2" y1="62.4" x2="414.2" y2="140"/><line class="cls-2" x1="414.2" y1="37.5" x2="414.2"/><line class="cls-2" x1="414.2" y1="219.5" x2="414.2" y2="166"/><line class="cls-2" x1="470.2" y1="59.2" x2="470.2" y2="31"/><line class="cls-2" x1="470.2" y1="181.9" x2="470.2" y2="143.9"/><line class="cls-2" x1="470.2" y1="220.1" x2="470.2" y2="209.1"/><line class="cls-2" x1="634.1" y1="220.1" x2="634.1" y2="209.1"/><line class="cls-2" x1="526.2" y1="62.9" x2="526.2" y2="140.4"/><line class="cls-2" x1="526.2" y1="12.9" x2="526.2"/><line class="cls-2" x1="526.2" y1="219.9" x2="526.2" y2="189.8"/><polygon class="cls-1" points="402.4 43.8 402.4 57.4 414.2 64.2 426 57.4 426 43.8 414.2 37 402.4 43.8"/><polygon class="cls-1" points="414.2 37 409.4 50.6 419.2 50.6 414.2 37"/><polygon class="cls-1" points="414.2 64.2 409.4 50.6 419.2 50.6 414.2 64.2"/><polygon class="cls-3" points="409.4 50.6 402.4 43.8 402.4 57.4 409.4 50.6"/><polygon class="cls-3" points="419.2 50.6 426 57.4 426 43.8 419.2 50.6"/><polygon class="cls-1" points="458.4 10.6 458.4 24.2 470.2 31 482 24.2 482 10.6 470.2 3.8 458.4 10.6"/><polygon class="cls-1" points="470.2 3.8 465.4 17.4 475.2 17.4 470.2 3.8"/><polygon class="cls-1" points="470.2 31 465.4 17.4 475.2 17.4 470.2 31"/><polygon class="cls-3" points="465.4 17.4 458.4 10.6 458.4 24.2 465.4 17.4"/><polygon class="cls-3" points="475.2 17.4 482 24.2 482 10.6 475.2 17.4"/><polygon class="cls-1" points="402.4 145.6 402.4 159.2 414.2 166 426 159.2 426 145.6 414.2 138.8 402.4 145.6"/><polygon class="cls-1" points="414.2 138.8 409.4 152.4 419.2 152.4 414.2 138.8"/><polygon class="cls-1" points="414.2 166 409.4 152.4 419.2 152.4 414.2 166"/><polygon class="cls-3" points="409.4 152.4 402.4 145.6 402.4 159.2 409.4 152.4"/><polygon class="cls-3" points="419.2 152.4 426 159.2 426 145.6 419.2 152.4"/><polygon class="cls-1" points="458.4 188.7 458.4 202.3 470.2 209.1 481.9 202.3 481.9 188.7 470.2 181.9 458.4 188.7"/><polygon class="cls-1" points="470.2 181.9 465.4 195.5 475.2 195.5 470.2 181.9"/><polygon class="cls-1" points="470.2 209.1 465.4 195.5 475.2 195.5 470.2 209.1"/><polygon class="cls-3" points="465.4 195.5 458.4 188.7 458.4 202.3 465.4 195.5"/><polygon class="cls-3" points="475.2 195.5 481.9 202.3 481.9 188.7 475.2 195.5"/><polygon class="cls-1" points="504.5 152.4 504.5 177.4 526.2 189.9 547.8 177.4 547.8 152.4 526.2 139.9 504.5 152.4"/><polygon class="cls-1" points="526.1 139.9 517.3 164.9 535.4 164.9 526.1 139.9"/><polygon class="cls-1" points="526.1 189.9 517.3 164.9 535.4 164.9 526.1 189.9"/><polygon class="cls-3" points="517.3 164.9 504.5 152.4 504.5 177.4 517.3 164.9"/><polygon class="cls-3" points="535.4 164.9 547.8 177.4 547.8 152.4 535.4 164.9"/><polygon class="cls-1" points="504.5 25.6 504.5 50.6 526.2 63.1 547.8 50.6 547.8 25.6 526.2 13.1 504.5 25.6"/><polygon class="cls-1" points="526.1 13.1 517.3 38.1 535.4 38.1 526.1 13.1"/><polygon class="cls-1" points="526.1 63.1 517.3 38.1 535.4 38.1 526.1 63.1"/><polygon class="cls-3" points="517.3 38.1 504.5 25.6 504.5 50.6 517.3 38.1"/><polygon class="cls-3" points="535.4 38.1 547.8 50.6 547.8 25.6 535.4 38.1"/><polygon class="cls-1" points="433.2 79.8 433.2 122.6 470.2 143.9 507.2 122.6 507.2 79.8 470.2 58.5 433.2 79.8"/><polygon class="cls-1" points="470.1 58.5 455.1 101.2 486 101.2 470.1 58.5"/><polygon class="cls-1" points="470.1 143.9 455.1 101.2 486 101.2 470.1 143.9"/><polygon class="cls-3" points="455.1 101.2 433.2 79.8 433.2 122.6 455.1 101.2"/><polygon class="cls-3" points="486 101.2 507.2 122.6 507.2 79.8 486 101.2"/><line class="cls-2" x1="578.1" y1="62.6" x2="578.1" y2="140.1"/><line class="cls-2" x1="578.1" y1="37.6" x2="578.1" y2="0.1"/><line class="cls-2" x1="578.1" y1="220" x2="578.1" y2="166.1"/><line class="cls-2" x1="634.1" y1="59.3" x2="634.1" y2="31.1"/><line class="cls-2" x1="634.1" y1="182" x2="634.1" y2="144"/><polygon class="cls-1" points="566.3 44 566.3 57.5 578.1 64.3 589.8 57.5 589.8 44 578.1 37.2 566.3 44"/><polygon class="cls-1" points="578.1 37.2 573.3 50.7 583.1 50.7 578.1 37.2"/><polygon class="cls-1" points="578.1 64.3 573.3 50.7 583.1 50.7 578.1 64.3"/><polygon class="cls-3" points="573.3 50.7 566.3 44 566.3 57.5 573.3 50.7"/><polygon class="cls-3" points="583.1 50.7 589.8 57.5 589.8 44 583.1 50.7"/><polygon class="cls-1" points="622.3 10.8 622.3 24.3 634.1 31.1 645.8 24.3 645.8 10.8 634.1 4 622.3 10.8"/><polygon class="cls-1" points="634.1 4 629.3 17.5 639.1 17.5 634.1 4"/><polygon class="cls-1" points="634.1 31.1 629.3 17.5 639.1 17.5 634.1 31.1"/><polygon class="cls-3" points="629.3 17.5 622.3 10.8 622.3 24.3 629.3 17.5"/><polygon class="cls-3" points="639.1 17.5 645.8 24.3 645.8 10.8 639.1 17.5"/><polygon class="cls-1" points="566.3 145.7 566.3 159.3 578.1 166.1 589.8 159.3 589.8 145.7 578.1 138.9 566.3 145.7"/><polygon class="cls-1" points="578.1 138.9 573.3 152.5 583.1 152.5 578.1 138.9"/><polygon class="cls-1" points="578.1 166.1 573.3 152.5 583.1 152.5 578.1 166.1"/><polygon class="cls-3" points="573.3 152.5 566.3 145.7 566.3 159.3 573.3 152.5"/><polygon class="cls-3" points="583.1 152.5 589.8 159.3 589.8 145.7 583.1 152.5"/><polygon class="cls-1" points="622.3 188.8 622.3 202.4 634.1 209.2 645.8 202.4 645.8 188.8 634.1 182 622.3 188.8"/><polygon class="cls-1" points="634 182 629.3 195.6 639.1 195.6 634 182"/><polygon class="cls-1" points="634 209.2 629.3 195.6 639.1 195.6 634 209.2"/><polygon class="cls-3" points="629.3 195.6 622.3 188.8 622.3 202.4 629.3 195.6"/><polygon class="cls-3" points="639.1 195.6 645.8 202.4 645.8 188.8 639.1 195.6"/><polygon class="cls-1" points="597.1 80 597.1 122.7 634.1 144 671.1 122.7 671.1 80 634.1 58.6 597.1 80"/><polygon class="cls-1" points="634 58.6 619 101.3 649.9 101.3 634 58.6"/><polygon class="cls-1" points="634 144 619 101.3 649.9 101.3 634 144"/><polygon class="cls-3" points="619 101.3 597.1 80 597.1 122.7 619 101.3"/><polygon class="cls-3" points="649.9 101.3 671.1 122.7 671.1 80 649.9 101.3"/></g></svg>