<svg id="Layer_1" data-name="Layer 1" xmlns="http://www.w3.org/2000/svg" viewBox="0 0 500 300"><defs><style>.cls-1,.cls-2,.cls-3,.cls-4,.cls-5,.cls-6,.cls-7,.cls-8{fill:#66fcf1;}.cls-2{opacity:0.6;}.cls-3{opacity:0.8;}.cls-4{opacity:0.9;}.cls-5{opacity:0.7;}.cls-6{opacity:0.3;}.cls-7{opacity:0.5;}.cls-8{opacity:0.75;}</style></defs><title>welcome-background</title><polygon class="cls-1" points="38.8 273.2 23.3 300 54.2 300 38.8 273.2"/><polygon class="cls-1" points="348.6 273.2 333.1 300 364.1 300 348.6 273.2"/><polygon class="cls-1" points="286.6 219.5 271.1 246.3 302.1 246.3 286.6 219.5"/><polygon class="cls-1" points="116.2 192.8 100.7 219.6 131.7 219.6 116.2 192.8"/><polygon class="cls-1" points="178.2 192.7 162.7 219.5 193.7 219.5 178.2 192.7"/><polygon class="cls-2" points="364.1 246.3 348.6 273.2 379.6 273.2 364.1 246.3"/><polygon class="cls-2" points="190.2 134.1 174.7 161 205.7 161 190.2 134.1"/><polygon class="cls-1" points="143.7 0 128.2 26.8 159.2 26.8 143.7 0"/><polygon class="cls-1" points="81.8 0.1 66.3 26.9 97.3 26.9 81.8 0.1"/><polygon class="cls-1" points="100.7 219.5 85.2 246.3 116.2 246.3 100.7 219.5"/><polygon class="cls-1" points="193.7 219.5 178.2 246.4 209.2 246.4 193.7 219.5"/><polygon class="cls-1" points="162.7 219.5 147.2 246.3 178.2 246.3 162.7 219.5"/><polygon class="cls-1" points="147.2 192.7 131.7 219.5 162.7 219.5 147.2 192.7"/><polygon class="cls-1" points="302.1 246.3 286.6 273.2 317.6 273.2 302.1 246.3"/><polygon class="cls-1" points="302.1 192.8 286.6 219.6 317.6 219.6 302.1 192.8"/><polygon class="cls-3" points="333.1 246.3 317.6 273.2 348.6 273.2 333.1 246.3"/><polygon class="cls-3" points="54.2 246.3 38.8 273.2 69.7 273.2 54.2 246.3"/><polygon class="cls-3" points="162.7 273 147.2 299.8 178.2 299.8 162.7 273"/><polygon class="cls-4" points="69.7 273.2 54.2 300 85.2 300 69.7 273.2"/><polygon class="cls-4" points="147.2 246.3 131.7 273.2 162.7 273.2 147.2 246.3"/><polygon class="cls-4" points="116.2 246.3 100.7 273.2 131.7 273.2 116.2 246.3"/><polygon class="cls-4" points="209.2 246.4 193.7 273.2 224.7 273.2 209.2 246.4"/><polygon class="cls-4" points="85.2 192.8 69.7 219.6 100.7 219.6 85.2 192.8"/><polygon class="cls-2" points="69.7 219.5 54.2 246.3 85.2 246.3 69.7 219.5"/><polygon class="cls-5" points="26.8 108.3 0 92.8 0 123.8 26.8 108.3"/><polygon class="cls-5" points="26.8 139.3 0 123.8 0 154.8 26.8 139.3"/><polygon class="cls-2" points="419.7 165.5 392.8 150 392.8 181 419.7 165.5"/><polygon class="cls-2" points="392.8 150 366 134.5 366 165.5 392.8 150"/><polygon class="cls-2" points="80.5 170.3 53.7 154.8 53.7 185.8 80.5 170.3"/><polygon class="cls-2" points="473.2 103.5 446.3 88 446.3 119 473.2 103.5"/><polygon class="cls-2" points="339.1 150 312.3 134.5 312.3 165.5 339.1 150"/><polygon class="cls-3" points="473.3 72.5 446.5 57 446.5 88 473.3 72.5"/><polygon class="cls-2" points="53.7 154.8 26.8 139.3 26.8 170.3 53.7 154.8"/><polygon class="cls-2" points="80.5 139.3 53.7 123.8 53.7 154.8 80.5 139.3"/><polygon class="cls-2" points="107.3 154.8 80.5 139.3 80.5 170.3 107.3 154.8"/><polygon class="cls-2" points="107.3 123.8 80.5 108.3 80.5 139.3 107.3 123.8"/><polygon class="cls-2" points="473.2 134.5 446.3 119 446.3 150 473.2 134.5"/><polygon class="cls-6" points="80.5 108.3 53.7 92.8 53.7 123.8 80.5 108.3"/><polygon class="cls-7" points="53.7 92.8 26.8 77.3 26.8 108.3 53.7 92.8"/><polygon class="cls-4" points="26.8 170.3 0 154.8 0 185.8 26.8 170.3"/><polygon class="cls-3" points="85.2 246.3 69.7 273.2 100.7 273.2 85.2 246.3"/><polygon class="cls-3" points="38.8 219.5 23.3 246.3 54.2 246.3 38.8 219.5"/><polygon class="cls-4" points="69.7 273.2 54.2 246.3 85.2 246.3 69.7 273.2"/><polygon class="cls-4" points="333.1 300 317.6 273.2 348.6 273.2 333.1 300"/><polygon class="cls-1" points="426.1 246.4 410.6 273.2 441.5 273.2 426.1 246.4"/><polygon class="cls-3" points="410.6 219.5 395.1 246.4 426.1 246.4 410.6 219.5"/><polygon class="cls-4" points="410.6 273.2 395.1 246.4 426.1 246.4 410.6 273.2"/><polygon class="cls-2" points="298.6 53.7 283.1 80.5 314.1 80.5 298.6 53.7"/><polygon class="cls-2" points="267.5 53.7 252.1 80.5 283 80.5 267.5 53.7"/><polygon class="cls-4" points="283 80.5 267.5 53.7 298.5 53.7 283 80.5"/><polygon class="cls-4" points="379.6 273.2 364.1 246.3 395.1 246.3 379.6 273.2"/><polygon class="cls-3" points="162.7 219.5 147.2 192.7 178.2 192.7 162.7 219.5"/><polygon class="cls-3" points="178.2 299.8 162.7 273 193.7 273 178.2 299.8"/><polygon class="cls-1" points="271.1 192.7 255.6 219.5 286.6 219.5 271.1 192.7"/><polygon class="cls-1" points="240.2 192.7 224.7 219.5 255.6 219.5 240.2 192.7"/><polygon class="cls-3" points="255.6 219.5 240.2 192.7 271.1 192.7 255.6 219.5"/><polygon class="cls-3" points="224.7 273.2 209.2 246.4 240.2 246.4 224.7 273.2"/><polygon class="cls-5" points="286.6 219.6 271.1 192.8 302.1 192.8 286.6 219.6"/><polygon class="cls-4" points="317.6 219.6 302.1 192.8 333.1 192.8 317.6 219.6"/><polygon class="cls-4" points="333.1 246.3 317.6 219.5 348.6 219.5 333.1 246.3"/><polygon class="cls-4" points="345.1 80.6 329.6 53.8 360.6 53.8 345.1 80.6"/><polygon class="cls-4" points="298.5 53.8 283 27 314 27 298.5 53.8"/><polygon class="cls-3" points="159.2 26.8 143.7 0 174.7 0 159.2 26.8"/><polygon class="cls-1" points="329.6 0.1 314.1 27 345.1 27 329.6 0.1"/><polygon class="cls-3" points="345.1 26.9 329.6 0.1 360.6 0.1 345.1 26.9"/><polygon class="cls-3" points="298.4 107.3 282.9 80.5 313.9 80.5 298.4 107.3"/><polygon class="cls-2" points="391.6 53.8 376.1 80.6 407.1 80.6 391.6 53.8"/><polygon class="cls-3" points="391.6 107.4 376.1 80.6 407.1 80.6 391.6 107.4"/><polygon class="cls-2" points="329.6 53.8 314.1 80.6 345.1 80.6 329.6 53.8"/><polygon class="cls-3" points="329.6 107.4 314.1 80.6 345.1 80.6 329.6 107.4"/><polygon class="cls-3" points="422.6 0.1 407.1 27 438.1 27 422.6 0.1"/><polygon class="cls-2" points="391.6 0.1 376.1 27 407.1 27 391.6 0.1"/><polygon class="cls-4" points="407.1 27 391.6 0.1 422.6 0.1 407.1 27"/><polygon class="cls-2" points="205.2 0.1 189.7 26.9 220.7 26.9 205.2 0.1"/><polygon class="cls-2" points="174.3 0.1 158.8 26.9 189.7 26.9 174.3 0.1"/><polygon class="cls-4" points="189.7 26.9 174.3 0.1 205.2 0.1 189.7 26.9"/><polygon class="cls-5" points="252.2 134.1 236.7 107.3 267.7 107.3 252.2 134.1"/><polygon class="cls-3" points="422.6 53.8 407.1 27 438.1 27 422.6 53.8"/><polygon class="cls-4" points="0 123.8 26.8 108.3 26.8 139.3 0 123.8"/><polygon class="cls-1" points="26.8 108.3 53.7 92.8 53.7 123.8 26.8 108.3"/><polygon class="cls-1" points="80.5 139.3 107.3 123.8 107.3 154.8 80.5 139.3"/><polygon class="cls-3" points="26.8 77.3 0 61.8 0 92.8 26.8 77.3"/><polygon class="cls-1" points="0 92.8 26.8 77.3 26.8 108.3 0 92.8"/><polygon class="cls-1" points="26.8 77.3 53.7 61.8 53.7 92.8 26.8 77.3"/><polygon class="cls-6" points="53.7 61.8 26.8 46.3 26.8 77.3 53.7 61.8"/><polygon class="cls-5" points="107.3 92.8 80.5 77.3 80.5 108.3 107.3 92.8"/><polygon class="cls-7" points="26.8 46.3 0 30.8 0 61.8 26.8 46.3"/><polygon class="cls-1" points="0 61.8 26.8 46.3 26.8 77.3 0 61.8"/><polygon class="cls-1" points="0 30.8 26.8 15.3 26.8 46.3 0 30.8"/><polygon class="cls-1" points="419.5 103.5 446.3 88 446.3 119 419.5 103.5"/><polygon class="cls-1" points="53.7 185.8 80.5 170.3 80.5 201.2 53.7 185.8"/><polygon class="cls-1" points="26.8 201.2 53.7 185.8 53.7 216.7 26.8 201.2"/><polygon class="cls-7" points="26.8 139.3 53.7 123.8 53.7 154.8 26.8 139.3"/><polygon class="cls-4" points="26.8 170.3 53.7 154.8 53.7 185.8 26.8 170.3"/><polygon class="cls-2" points="26.8 201.2 0 185.8 0 216.7 26.8 201.2"/><polygon class="cls-7" points="0 185.8 26.8 170.3 26.8 201.2 0 185.8"/><polygon class="cls-1" points="446.3 119 473.2 103.5 473.2 134.5 446.3 119"/><polygon class="cls-7" points="419.5 134.5 446.3 119 446.3 150 419.5 134.5"/><polygon class="cls-1" points="339.2 150 366 134.5 366 165.5 339.2 150"/><polygon class="cls-1" points="285.5 150 312.3 134.5 312.3 165.5 285.5 150"/><polygon class="cls-7" points="473.2 227.5 500 212 500 243 473.2 227.5"/><polygon class="cls-4" points="392.8 150 419.7 134.5 419.7 165.5 392.8 150"/><polygon class="cls-2" points="446.5 212 419.7 196.5 419.7 227.5 446.5 212"/><polygon class="cls-4" points="419.7 196.5 446.5 181 446.5 212 419.7 196.5"/><polygon class="cls-2" points="419.7 134.5 392.8 119 392.8 150 419.7 134.5"/><polygon class="cls-4" points="392.8 119 419.7 103.5 419.7 134.5 392.8 119"/><polygon class="cls-2" points="500 212 473.2 196.5 473.2 227.5 500 212"/><polygon class="cls-4" points="473.2 196.5 500 181 500 212 473.2 196.5"/><polygon class="cls-2" points="500 181 473.2 165.5 473.2 196.5 500 181"/><polygon class="cls-4" points="473.2 165.5 500 150 500 181 473.2 165.5"/><polygon class="cls-7" points="446.3 150 473.2 134.5 473.2 165.5 446.3 150"/><polygon class="cls-2" points="473.2 165.5 446.3 150 446.3 181 473.2 165.5"/><polygon class="cls-7" points="446.3 181 473.2 165.5 473.2 196.5 446.3 181"/><polygon class="cls-7" points="419.6 165.5 446.4 150 446.4 181 419.6 165.5"/><polygon class="cls-7" points="446.3 212 473.2 196.5 473.2 227.5 446.3 212"/><polygon class="cls-2" points="366 134.5 339.2 119 339.2 150 366 134.5"/><polygon class="cls-4" points="339.2 119 366 103.5 366 134.5 339.2 119"/><polygon class="cls-1" points="258.6 134.5 285.5 119 285.5 150 258.6 134.5"/><polygon class="cls-2" points="312.3 134.5 285.5 119 285.5 150 312.3 134.5"/><polygon class="cls-4" points="285.5 119 312.3 103.5 312.3 134.5 285.5 119"/><polygon class="cls-7" points="366 134.5 392.8 119 392.8 150 366 134.5"/><polygon class="cls-2" points="473.2 134.5 500 119 500 150 473.2 134.5"/><polygon class="cls-1" points="85.2 300 69.7 273.2 100.7 273.2 85.2 300"/><polygon class="cls-8" points="100.7 219.6 85.2 192.8 116.2 192.8 100.7 219.6"/><polygon class="cls-5" points="143.7 53.6 128.2 80.5 159.2 80.5 143.7 53.6"/><polygon class="cls-5" points="128.2 80.4 112.7 107.3 143.7 107.3 128.2 80.4"/><polygon class="cls-4" points="112.7 53.6 97.2 80.5 128.2 80.5 112.7 53.6"/><polygon class="cls-4" points="159.2 134.1 143.7 160.9 174.7 160.9 159.2 134.1"/><polygon class="cls-4" points="143.7 53.7 128.2 26.8 159.2 26.8 143.7 53.7"/><polygon class="cls-4" points="66.3 26.9 50.8 0.1 81.8 0.1 66.3 26.9"/><polygon class="cls-4" points="97.3 26.9 81.8 0.1 112.7 0.1 97.3 26.9"/><polygon class="cls-1" points="190.2 80.5 174.7 107.3 205.7 107.3 190.2 80.5"/><polygon class="cls-3" points="205.7 107.3 190.2 80.5 221.2 80.5 205.7 107.3"/><polygon class="cls-3" points="236.7 107.3 221.2 80.5 252.2 80.5 236.7 107.3"/><polygon class="cls-3" points="159.2 134.1 143.7 107.3 174.7 107.3 159.2 134.1"/><polygon class="cls-4" points="190.2 134.2 174.7 107.3 205.7 107.3 190.2 134.2"/><polygon class="cls-4" points="143.7 107.3 128.2 80.5 159.2 80.5 143.7 107.3"/><polygon class="cls-7" points="128.2 80.5 112.7 53.6 143.7 53.6 128.2 80.5"/><polygon class="cls-8" points="147.2 246.3 131.7 219.5 162.7 219.5 147.2 246.3"/><polygon class="cls-8" points="209.2 246.4 193.7 219.5 224.7 219.5 209.2 246.4"/><polygon class="cls-1" points="240.2 246.4 224.7 273.2 255.6 273.2 240.2 246.4"/><polygon class="cls-4" points="255.6 273.2 240.2 300 271.1 300 255.6 273.2"/><polygon class="cls-4" points="178.2 246.3 162.7 273.2 193.7 273.2 178.2 246.3"/><polygon class="cls-8" points="255.6 273.2 240.2 246.4 271.1 246.4 255.6 273.2"/><polygon class="cls-8" points="159.2 80.5 143.7 53.6 174.7 53.6 159.2 80.5"/><polygon class="cls-5" points="97.2 26.8 81.8 53.6 112.7 53.6 97.2 26.8"/><polygon class="cls-4" points="174.7 53.6 159.2 80.5 190.2 80.5 174.7 53.6"/><polygon class="cls-5" points="205.7 107.3 190.2 134.1 221.2 134.1 205.7 107.3"/><polygon class="cls-4" points="205.7 160.9 190.2 134.1 221.2 134.1 205.7 160.9"/><polygon class="cls-8" points="221.2 134.1 205.7 107.3 236.7 107.3 221.2 134.1"/><polygon class="cls-4" points="236.7 107.3 221.2 134.1 252.2 134.1 236.7 107.3"/><polygon class="cls-7" points="81.8 53.7 66.3 26.9 97.3 26.9 81.8 53.7"/><polygon class="cls-8" points="112.7 53.7 97.3 26.8 128.2 26.8 112.7 53.7"/><polygon class="cls-8" points="348.6 273.2 333.1 246.3 364.1 246.3 348.6 273.2"/><polygon class="cls-2" points="345.1 26.8 329.6 53.7 360.6 53.7 345.1 26.8"/><polygon class="cls-3" points="314 27 298.5 53.8 329.5 53.8 314 27"/><polygon class="cls-8" points="329.5 53.8 314 27 345 27 329.5 53.8"/><polygon class="cls-1" points="360.6 0.1 345.1 26.9 376.1 26.9 360.6 0.1"/><polygon class="cls-3" points="376.1 26.9 360.6 0.1 391.6 0.1 376.1 26.9"/><polygon class="cls-2" points="484.5 0.1 469.1 27 500 27 484.5 0.1"/><polygon class="cls-2" points="453.6 0.1 438.1 27 469.1 27 453.6 0.1"/><polygon class="cls-1" points="469.1 27 453.6 0.1 484.5 0.1 469.1 27"/><polygon class="cls-3" points="438.1 26.9 422.6 0.1 453.6 0.1 438.1 26.9"/><polygon class="cls-2" points="376.1 26.9 360.6 53.8 391.6 53.8 376.1 26.9"/><polygon class="cls-8" points="360.6 53.8 345.1 26.9 376.1 26.9 360.6 53.8"/><polygon class="cls-1" points="267.4 0 251.9 26.8 282.9 26.8 267.4 0"/><polygon class="cls-3" points="282.9 27 267.4 0.1 298.4 0.1 282.9 27"/><polygon class="cls-2" points="282.9 26.8 267.4 53.7 298.4 53.7 282.9 26.8"/><polygon class="cls-3" points="251.9 26.8 236.4 53.7 267.4 53.7 251.9 26.8"/><polygon class="cls-2" points="220.7 26.8 205.2 53.7 236.2 53.7 220.7 26.8"/><polygon class="cls-3" points="189.7 26.9 174.3 53.7 205.2 53.7 189.7 26.9"/><polygon class="cls-8" points="267.4 53.7 251.9 26.8 282.9 26.8 267.4 53.7"/><polygon class="cls-8" points="302.1 246.3 286.6 219.5 317.6 219.5 302.1 246.3"/><polygon class="cls-8" points="379.6 219.6 364.1 192.8 395.1 192.8 379.6 219.6"/><polygon class="cls-1" points="364.1 192.8 348.6 219.6 379.6 219.6 364.1 192.8"/><polygon class="cls-1" points="348.6 219.5 333.1 246.4 364.1 246.4 348.6 219.5"/><polygon class="cls-4" points="395.1 246.4 379.6 219.5 410.6 219.5 395.1 246.4"/><polygon class="cls-8" points="364.1 246.4 348.6 219.5 379.6 219.5 364.1 246.4"/><polygon class="cls-7" points="100.7 273.2 85.2 246.3 116.2 246.3 100.7 273.2"/><polygon class="cls-7" points="38.8 273.2 23.3 246.3 54.2 246.3 38.8 273.2"/><polygon class="cls-7" points="317.6 273.2 302.1 246.3 333.1 246.3 317.6 273.2"/><polygon class="cls-5" points="54.2 300 38.8 273.2 69.7 273.2 54.2 300"/><polygon class="cls-1" points="379.6 273.2 364.1 300 395.1 300 379.6 273.2"/><polygon class="cls-4" points="410.6 273.2 395.1 300 426.1 300 410.6 273.2"/><polygon class="cls-1" points="426.1 300 410.6 273.2 441.5 273.2 426.1 300"/><polygon class="cls-5" points="395.1 300 379.6 273.2 410.6 273.2 395.1 300"/><polygon class="cls-2" points="457 246.4 441.5 273.2 472.5 273.2 457 246.4"/><polygon class="cls-4" points="472.5 273.2 457 246.4 488 246.4 472.5 273.2"/><polygon class="cls-1" points="472.5 273.2 457 300 488 300 472.5 273.2"/><polygon class="cls-5" points="85.2 246.3 69.7 219.5 100.7 219.5 85.2 246.3"/><polygon class="cls-5" points="116.2 299.8 100.7 273 131.7 273 116.2 299.8"/></svg>