<svg xmlns="http://www.w3.org/2000/svg" xmlns:xlink="http://www.w3.org/1999/xlink" viewBox="0 0 500 300"><defs><style>.cls-1,.cls-2,.cls-23{fill:none;stroke:#66fcf1;}.cls-1,.cls-2,.cls-22,.cls-23,.cls-3,.cls-4,.cls-5,.cls-6,.cls-7,.cls-8{stroke-linecap:round;}.cls-1,.cls-2,.cls-22,.cls-23,.cls-24,.cls-3,.cls-4,.cls-5,.cls-6,.cls-7,.cls-8{stroke-miterlimit:10;}.cls-1,.cls-3{stroke-width:9px;}.cls-2,.cls-8{stroke-width:27px;}.cls-20,.cls-22,.cls-3,.cls-4,.cls-5,.cls-6,.cls-7,.cls-8{fill:#fff;}.cls-22,.cls-3,.cls-4,.cls-5,.cls-6,.cls-7,.cls-8{stroke:#ffbd11;}.cls-4{stroke-width:5.76px;}.cls-5{stroke-width:12.24px;}.cls-23,.cls-6{stroke-width:18px;}.cls-7{stroke-width:14.4px;}.cls-9{fill:url(#linear-gradient);}.cls-10{fill:url(#linear-gradient-2);}.cls-11{fill:url(#linear-gradient-3);}.cls-12{fill:url(#linear-gradient-4);}.cls-13{fill:url(#linear-gradient-5);}.cls-14{fill:url(#linear-gradient-6);}.cls-15{fill:url(#linear-gradient-7);}.cls-16{fill:url(#linear-gradient-8);}.cls-17{fill:url(#linear-gradient-9);}.cls-18{fill:#762b90;}.cls-19{fill:#66fcf1;}.cls-21{fill:#ffbd11;}.cls-22{stroke-width:15.12px;}.cls-24{fill:#45a29e;stroke:#0b0c10;stroke-width:6.48px;}</style><linearGradient id="linear-gradient" x1="55.37" y1="152.53" x2="151.41" y2="152.53" gradientTransform="matrix(0.71, 0.22, -0.71, 0.22, 143.88, 103.22)" gradientUnits="userSpaceOnUse"><stop offset="0" stop-color="#fff"/><stop offset="1"/></linearGradient><linearGradient id="linear-gradient-2" x1="73.91" y1="35.81" x2="169.95" y2="35.81" gradientTransform="matrix(0.71, 0.22, -0.71, 0.22, 100.93, 41.78)" xlink:href="#linear-gradient"/><linearGradient id="linear-gradient-3" x1="139.84" y1="88.99" x2="235.88" y2="88.99" gradientTransform="matrix(0.71, 0.22, -0.71, 0.22, 116.4, 27.9)" xlink:href="#linear-gradient"/><linearGradient id="linear-gradient-4" x1="121.52" y1="204.07" x2="217.56" y2="204.07" gradientTransform="matrix(0.71, 0.22, -0.71, 0.22, 158.75, 88.5)" xlink:href="#linear-gradient"/><linearGradient id="linear-gradient-5" x1="329.98" y1="419.49" x2="426.02" y2="419.49" gradientTransform="matrix(0.71, 0.22, -0.71, 0.22, 224.66, 65.28)" xlink:href="#linear-gradient"/><linearGradient id="linear-gradient-6" x1="363.73" y1="423.91" x2="459.77" y2="423.91" gradientTransform="matrix(0.71, 0.22, -0.71, 0.22, 224.39, 48.21)" xlink:href="#linear-gradient"/><linearGradient id="linear-gradient-7" x1="409.08" y1="454.13" x2="505.12" y2="454.13" gradientTransform="matrix(0.71, 0.22, -0.71, 0.22, 232.75, 35.89)" xlink:href="#linear-gradient"/><linearGradient id="linear-gradient-8" x1="485.56" y1="502.5" x2="581.6" y2="502.5" gradientTransform="matrix(0.71, 0.22, -0.71, 0.22, 245.92, 13.96)" xlink:href="#linear-gradient"/><linearGradient id="linear-gradient-9" x1="111.12" y1="244.08" x2="207.16" y2="244.08" gradientTransform="matrix(0.71, 0.22, -0.71, 0.22, 173.69, 111.84)" xlink:href="#linear-gradient"/></defs><title>work-splash</title><g id="Portfolio-Logo"><line class="cls-1" x1="326.9" y1="36.1" x2="338.1" y2="24.9"/><line class="cls-2" x1="373.5" y1="107.4" x2="401.7" y2="79.2"/><line class="cls-3" x1="215.7" y1="191.2" x2="222.3" y2="184.6"/><line class="cls-4" x1="186.5" y1="145.9" x2="193.1" y2="139.3"/><line class="cls-4" x1="165.6" y1="166.8" x2="178.5" y2="154"/><line class="cls-3" x1="246.1" y1="84.3" x2="252.6" y2="77.7"/><line class="cls-5" x1="245" y1="40.3" x2="251.6" y2="33.7"/><line class="cls-5" x1="329.2" y1="167.4" x2="335.8" y2="160.8"/><line class="cls-6" x1="248.3" y1="131.6" x2="254.9" y2="125"/><line class="cls-7" x1="295" y1="125.7" x2="314.1" y2="106.6"/><line class="cls-8" x1="156.3" y1="216.4" x2="189.4" y2="183.4"/><rect class="cls-9" x="43.2" y="157.7" width="131.9" height="1.19" transform="translate(-80 123.5) rotate(-45)"/><rect class="cls-10" x="95.9" y="75.1" width="131.9" height="1.19" transform="translate(-6.1 136.6) rotate(-45)"/><rect class="cls-11" x="120.4" y="86.9" width="131.9" height="1.19" transform="translate(-7.3 157.4) rotate(-45)"/><rect class="cls-12" x="68.4" y="168.3" width="131.9" height="1.19" transform="translate(-80.1 144.4) rotate(-45)"/><rect class="cls-13" x="129.4" y="236.2" width="131.9" height="1.19" transform="translate(-110.2 207.5) rotate(-45)"/><rect class="cls-14" x="149.8" y="227.4" width="131.9" height="1.19" transform="translate(-98 219.4) rotate(-45)"/><rect class="cls-15" x="168.9" y="231.3" width="131.9" height="1.19" transform="translate(-95.2 234) rotate(-45)"/><rect class="cls-16" x="201.9" y="236.2" width="131.9" height="1.19" transform="translate(-89 258.8) rotate(-45)"/><rect class="cls-17" x="47.7" y="198" width="131.9" height="1.19" transform="translate(-107.1 138.5) rotate(-45)"/><line class="cls-2" x1="187.7" y1="67.8" x2="216" y2="39.5"/><path class="cls-18" d="M371.4,73.7a43,43,0,0,0-60.7,0l-35.1,35.1a40.3,40.3,0,0,0-5.6-6.9,42.7,42.7,0,0,0-60.6,0l-82.1,82A42.9,42.9,0,1,0,188,244.5l35.1-35.1a41,41,0,0,0,5.6,7,42.7,42.7,0,0,0,60.6,0l82.1-82A43,43,0,0,0,371.4,73.7Z"/><path class="cls-19" d="M266.2,85.6a21,21,0,0,0-6-14.7,20.7,20.7,0,0,0-29.3,0l-31.7,31.7-7.5-7.5a14.1,14.1,0,0,0-4.9-3.1,13.3,13.3,0,0,0-15.3,2.7l-49.7,49.6a13.5,13.5,0,0,0,0,19.1,13.2,13.2,0,0,0,9.5,4,13.4,13.4,0,0,0,9.6-4L181.3,123l3.9,3.8a20.2,20.2,0,0,0,6,13.1,14,14,0,0,0,3.3,2.7l-17,17a20.7,20.7,0,0,0,29.3,29.3l39.7-39.6a20.8,20.8,0,0,0,0-29.4,21.6,21.6,0,0,0-3.3-2.7l17-16.9A21,21,0,0,0,266.2,85.6Z"/><line class="cls-3" x1="198.1" y1="56.9" x2="204.7" y2="50.3"/><line class="cls-20" x1="265.4" y1="183.5" x2="285.5" y2="163.3"/><path class="cls-21" d="M265.4,197.3a13.8,13.8,0,0,1-9.8-23.5l20.2-20.2a13.8,13.8,0,0,1,19.5,19.5l-20.2,20.2A13.6,13.6,0,0,1,265.4,197.3Z"/><line class="cls-1" x1="282" y1="81" x2="304.5" y2="58.5"/><line class="cls-22" x1="198.5" y1="164.5" x2="205.1" y2="157.9"/><line class="cls-23" x1="214.2" y1="240.8" x2="263.9" y2="191.1"/><line class="cls-8" x1="215.8" y1="115.2" x2="222.4" y2="108.6"/><line class="cls-5" x1="228.8" y1="226.2" x2="235.4" y2="219.6"/><path class="cls-24" d="M206.6,184.5c-18.5,0-33.9-16-33.9-35.7a8.7,8.7,0,0,1,17.3,0,18.3,18.3,0,0,0,5.2,13.2,15.1,15.1,0,0,0,11.4,5.2,15.9,15.9,0,0,0,11.7-5.2,19.7,19.7,0,0,0,5.2-13.2,8.7,8.7,0,0,1,17.3,0C240.8,168.5,225.4,184.5,206.6,184.5ZM240.8,140a12.8,12.8,0,0,0-8.7-3.5,12,12,0,0,0-8.6,3.5V50.7H200.6a8.6,8.6,0,1,1,0-17.2h31.5a8.7,8.7,0,0,1,8.7,8.6Z"/><path class="cls-24" d="M277.3,94.2a28.9,28.9,0,0,0-6.3,2.6,42.9,42.9,0,0,0-9.1,6.4,44,44,0,0,0-8.2,11.7V42.3a8.7,8.7,0,0,1,17.3,0V79.9A19.3,19.3,0,0,0,277.3,94.2Zm35.8,90.3a8.7,8.7,0,0,1-8.6-8.7V132a20.1,20.1,0,0,0-5.2-13.2,16.3,16.3,0,0,0-11.7-5.2,15.4,15.4,0,0,0-11.4,5.2A18.7,18.7,0,0,0,271,132v43.8a8.7,8.7,0,1,1-17.3,0V132c0-19.7,15.4-35.7,33.9-35.7s34.2,16,34.2,35.7v43.8A8.7,8.7,0,0,1,313.1,184.5Zm8.7-104.6a36.4,36.4,0,0,1-8.5,23.3,38.3,38.3,0,0,0-15.1-9,20,20,0,0,0,6.3-14.3v-38a8.7,8.7,0,1,1,17.3,0v38Z"/></g></svg>