<svg id="Layer_1" data-name="Layer 1" xmlns="http://www.w3.org/2000/svg" viewBox="0 0 520.8 517.5"><defs><style>.cls-1{fill:#cbbfa8;}.cls-2{fill:#6f7b84;}.cls-3{fill:#7d7f7f;}.cls-4{fill:#495361;}.cls-5{fill:#cc9a29;}.cls-6{fill:#adffe4;}.cls-7{stroke:#d966ff;stroke-miterlimit:10;}.cls-8{fill:#fdfbe6;}.cls-9{fill:#ccbc33;}.cls-10{fill:#59e7ff;}.cls-11{fill:#ff73b2;opacity:0.8;}.cls-12{fill:#c7ccca;}.cls-13{fill:#4c87ff;}</style></defs><title>Interaction-chart</title><polygon class="cls-1" points="236 97.7 464.7 28.4 410.3 261.1 355.9 493.8 181.6 330.4 7.3 167 236 97.7"/><path class="cls-2" d="M275.5,284.9a55.6,55.6,0,0,1-5.9,23.1h41.3a55.6,55.6,0,0,1-5.9-23.1"/><circle class="cls-3" cx="430.3" cy="87.5" r="84"/><rect class="cls-4" x="231.4" y="128.3" width="118.5" height="194.79" rx="6.4" ry="6.4" transform="translate(65 516.4) rotate(-90)"/><rect class="cls-2" x="241" y="128" width="99.3" height="184.79" transform="translate(70.3 511.1) rotate(-90)"/><path class="cls-5" d="M379.3,77.7c.1,1.9-3.3,6.7-3.3,6.7,7-1.3,10.4-6.1,10.1-9.5s-4.1-4.6-6.8-4.6c-7.8,0-15.6,6.8-15.2,12.2a2.8,2.8,0,0,0,1.2,2.4s1.7.9.6.9-4.5-1.8-4.8-6.1c-.4-6.6,10.4-10.6,17.7-10.6,4.6,0,10.8,1.5,11.3,7s-6.3,8.6-6.3,8.6l-1.6.8a22.6,22.6,0,0,1-8.2,1.5s-5.8,7.5-5.8,9.3.1,1.4-.5,1.4-1.6-1.2-1.6-3.8c0-4.4,10.7-16.4,10.6-18.6S379.2,75.8,379.3,77.7Z"/><path class="cls-5" d="M395.5,88.2a9,9,0,0,1-6.5,4.3v.2c-.1,4.3-2.8,5.2-4.4,5.2s-2.8-.6-2.8-2.5,4.5-3.3,4.5-3.3a21.1,21.1,0,0,0,.1-6.3,2.3,2.3,0,0,1,0-.4c-.6,1-1.3,2.1-2.1,3.2s-1.2.1-.8-.5a26.2,26.2,0,0,0,3.2-5.8c.2-.7.6-2.1,1.1-1.7s2.6,1.8,2.6,3.5-1.2,1.6-1.4,7.5a8.8,8.8,0,0,0,5.8-3.9C395.3,87,396.2,87.3,395.5,88.2Zm-9.2,4.9s-3.5.8-3.5,2.5S385.4,96.9,386.4,93.1Z"/><path class="cls-5" d="M408.8,88.2c-.6.9-6.6,8.4-9.5,9.4h-.1l-.3.6a39.4,39.4,0,0,1-6.3,7.4c-2.1,2-3.9,3.3-6.1,3.3a2.9,2.9,0,0,1-2.7-2.9c-.2-1.9,10.4-6.6,10.4-6.6a14.8,14.8,0,0,0,1.3-1.9l-.8.3a3.1,3.1,0,0,1-3-3.1c-.2-2.1,4.6-8.4,4.3-11.2-.1-.7,2.3.4,2.5,2.8s-5.6,10.3-3.8,10.3,7.8-9.9,7.5-13.3c-.1-.6,2,.8,2.2,3s-1.4,5.1-3.9,9.3a39.6,39.6,0,0,0,7.7-8.1C408.5,87,409.4,87.3,408.8,88.2ZM393,100.8s-8.7,4.4-8.6,5.4a1,1,0,0,0,1,.8C388.3,107.1,393,100.8,393,100.8Z"/><path class="cls-5" d="M405.6,93.1c0-2.7,4.9-9.7,7.2-9.7s1.1,1.1,1.1,1.1,1.3-1.1,1.3-1.7,1.2.3,1.2,2.6-2,2.4-2,5.4c-2.1,0-2.3-3.2-2.3-3.2s-3.4,3.4-3.4,7.1c0,1.4.8,1.8,1.6,1.8s6.1-5,8.6-8.8c.4-.6,1.3-.3.7.6s-7.5,9.7-10.2,9.7S405.6,95.8,405.6,93.1Z"/><path class="cls-5" d="M422.7,93.8c0-1.7,4.2-7.7,4.2-7.7s-9.6,8.6-9.6,11.4c0,1.1-2.5-.1-2.5-2s11.2-17.8,11.2-21c0-.6,2.3.6,2.3,3s-7.4,12.6-7.4,12.6,6.9-6.6,8.1-6.6,1.6,1.7,1.6,3-7,9.9-4.2,9.9c.9,0,5.4-4.8,8-8.6.4-.6,1.3-.3.7.6s-6.9,9.5-9.5,9.5S422.7,95.5,422.7,93.8Z"/><path class="cls-5" d="M440.8,94.1l-.3.4-.4.5a9.2,9.2,0,0,1-4.7,3h-.5c-1.2,0-3.1-.6-3.1-3.7,0-5.2,5.6-10.8,8.7-10.8a4.2,4.2,0,0,1,3.5,2.3c.1.2-.1.6-1.4.6-4.8,0-9.7,10.3-7.2,10.3s4.9-3.4,4.9-3.4a5.7,5.7,0,0,1-.3-1.8c0-2.3,2.9-3.4,2.9-1a6,6,0,0,1-1.5,2.7l.6.2c1.4,0,2.7-2.2,5.1-5.7.4-.6,1.3-.3.7.6s-3.4,6.1-5.8,6.1A1.8,1.8,0,0,1,440.8,94.1Z"/><path class="cls-5" d="M444.1,94.4c0-3.2,10.5-18.6,10.5-21.8,0-.8,2.8.2,2.8,3.1s-12.7,20.7-9.9,20.7c.9,0,5.6-5,8.2-8.8.4-.6,1.3-.3.7.6s-7.1,9.7-9.7,9.7S444.1,95.8,444.1,94.4Z"/><path class="cls-5" d="M462,94.1l-.3.4-.4.5a9.2,9.2,0,0,1-4.7,3H456c-1.2,0-3.1-.6-3.1-3.7,0-5.2,5.6-10.8,8.7-10.8a4.2,4.2,0,0,1,3.5,2.3c.1.2-.1.6-1.4.6-4.8,0-9.7,10.3-7.2,10.3s4.9-3.4,4.9-3.4a5.7,5.7,0,0,1-.3-1.8c0-2.3,2.9-3.4,2.9-1a6,6,0,0,1-1.5,2.7l.6.2c1.4,0,2.7-2.2,5.1-5.7.4-.6,1.3-.3.7.6s-3.4,6.1-5.8,6.1A1.8,1.8,0,0,1,462,94.1Z"/><path class="cls-5" d="M483.4,88.4c-.6.9-6.7,8.5-9.6,9.4h-.1l-.6,1.1c-3.2,5.1-7.5,10.1-12.1,10.1a2.9,2.9,0,0,1-2.7-2.8c-.2-1.9,10.4-6.6,10.4-6.6a54.1,54.1,0,0,0,3.9-6.6s-3.8,4.8-4.8,4.8a3.7,3.7,0,0,1-3-3.4c-.3-3.3,6.1-11.1,9.4-11.1,1.7,0,3.1,3,2.4,3-3.4,0-10.3,9.9-8.2,9.9s6.1-6.6,5.8-7.2,2.1-.1,2.2,2.1-.6,2.7-1.7,4.9a37.2,37.2,0,0,0,8-8.4C483.1,87.1,484,87.5,483.4,88.4ZM467.6,101s-8.7,4.4-8.6,5.5a1,1,0,0,0,1,.8C462.9,107.2,467.6,101,467.6,101Z"/><path class="cls-5" d="M496.9,88.2c-.6.9-6.6,8.4-9.5,9.4h-.1l-.3.6a39.4,39.4,0,0,1-6.3,7.4c-2.1,2-3.9,3.3-6.1,3.3a2.9,2.9,0,0,1-2.7-2.9c-.2-1.9,10.4-6.6,10.4-6.6a14.8,14.8,0,0,0,1.3-1.9l-.8.3a3.1,3.1,0,0,1-3-3.1c-.2-2.1,4.6-8.4,4.3-11.2-.1-.7,2.3.4,2.5,2.8s-5.6,10.3-3.8,10.3,7.8-9.9,7.5-13.3c-.1-.6,2,.8,2.2,3s-1.4,5.1-3.9,9.3a39.6,39.6,0,0,0,7.7-8.1C496.6,87,497.5,87.3,496.9,88.2Zm-15.8,12.6s-8.7,4.4-8.6,5.4a1,1,0,0,0,1,.8C476.4,107.1,481.2,100.8,481.2,100.8Z"/><circle class="cls-6" cx="341.1" cy="414" r="84"/><path class="cls-7" d="M304.7,414.5a11.2,11.2,0,0,1-.9,4.5,11.8,11.8,0,0,1-2.5,3.7,11.5,11.5,0,0,1-3.7,2.5,11.8,11.8,0,0,1-4.5.9H289a.5.5,0,0,1-.1-.3V403.9h-2v21.8a.4.4,0,0,1-.5.5H286a.5.5,0,0,1-.1-.3V403.5a.5.5,0,0,1,.1-.3h7a11.2,11.2,0,0,1,4.5.9,11.6,11.6,0,0,1,6.2,6.2A11.2,11.2,0,0,1,304.7,414.5Zm-.9,0a10.5,10.5,0,0,0-.8-4.2,10.6,10.6,0,0,0-5.7-5.7,10.4,10.4,0,0,0-4.2-.8h-3.4v21.3h3.4a10.7,10.7,0,0,0,4.1-.9,11,11,0,0,0,3.4-2.3,10.7,10.7,0,0,0,2.3-3.4A10.2,10.2,0,0,0,303.8,414.5Z"/><path class="cls-7" d="M325.1,425.7a.6.6,0,0,1-.1.3l-.3.2H310.1a.5.5,0,0,1-.1-.3V403.4a.4.4,0,0,1,.1-.3h14.9a.4.4,0,0,1,0,.6H310.8v9h11.1a.4.4,0,0,1,0,.6h-11v2h10.8a.4.4,0,0,1,.5.4.4.4,0,0,1-.1.3H310.8v8.6h13.8l.3.2A.5.5,0,0,1,325.1,425.7Z"/><path class="cls-7" d="M341.1,419.9a5.4,5.4,0,0,1-.7,2.7,6,6,0,0,1-1.8,1.9,8.4,8.4,0,0,1-2.5,1.2,10,10,0,0,1-2.8.4,11.6,11.6,0,0,1-4.7-1,13.5,13.5,0,0,1-3.9-2.6l-.2-.3a.5.5,0,0,1,.1-.3l.3-.2h.3a17.4,17.4,0,0,0,3.7,2.4,10,10,0,0,0,4.3.9,9.1,9.1,0,0,0,2.4-.3,7,7,0,0,0,2.2-1,5.4,5.4,0,0,0,1.6-1.7,4.6,4.6,0,0,0,.6-2.4,3.4,3.4,0,0,0-.5-1.9,4.8,4.8,0,0,0-1.4-1.4,8.4,8.4,0,0,0-1.9-.9l-2.2-.7-2.2-.5-1.8-.4-1.8-.7a6,6,0,0,1-1.6-1.1,5.1,5.1,0,0,1-1.1-1.6,4.8,4.8,0,0,1-.4-2,4.7,4.7,0,0,1,.7-2.6,5.8,5.8,0,0,1,1.8-1.8,8.5,8.5,0,0,1,2.4-1.1,9.8,9.8,0,0,1,2.6-.4l1.8.2,2.1.5,1.9.8a6.5,6.5,0,0,1,1.5,1h.1v.2a.4.4,0,0,1-.1.3h-.5l-.3-.2-.3-.2-.2-.2a12.9,12.9,0,0,0-2.8-1.2,10.1,10.1,0,0,0-3-.5l-2.3.3a7.5,7.5,0,0,0-2.1.9,5,5,0,0,0-1.6,1.5,4.3,4.3,0,0,0,0,4.5,4.9,4.9,0,0,0,1.7,1.5,10.5,10.5,0,0,0,2.4.9l2.7.7,2.7.7a9.1,9.1,0,0,1,2.4,1,5.3,5.3,0,0,1,1.7,1.7A4.7,4.7,0,0,1,341.1,419.9Z"/><path class="cls-7" d="M346.4,425.7a.4.4,0,0,1-.1.3h-.6a.4.4,0,0,1-.1-.3V403.4a.4.4,0,0,1,.1-.3h.6a.4.4,0,0,1,.1.3Z"/><path class="cls-7" d="M371.2,422.9a.5.5,0,0,1-.1.3,10.2,10.2,0,0,1-3.6,2.2,12.2,12.2,0,0,1-4.1.7,11.3,11.3,0,0,1-4.5-.9,11.6,11.6,0,0,1-6.2-6.2,11.7,11.7,0,0,1,0-9,11.6,11.6,0,0,1,6.2-6.2,11.3,11.3,0,0,1,4.5-.9,12,12,0,0,1,4.1.7,10.2,10.2,0,0,1,3.6,2.2l.2.3a.5.5,0,0,1-.1.4l-.3.2h-.3a12.8,12.8,0,0,0-3.3-2,9.8,9.8,0,0,0-3.8-.7,10.3,10.3,0,0,0-4.1.8,10.9,10.9,0,0,0-5.7,5.7,10.6,10.6,0,0,0,0,8.3,10.9,10.9,0,0,0,5.7,5.7,10.5,10.5,0,0,0,7.8.2,11.6,11.6,0,0,0,3.3-1.9v-6.1H358.9a.5.5,0,0,1-.1-.3.5.5,0,0,1,.1-.3h11.8q.5,0,.5.5Zm-.1-9.7a.5.5,0,0,1-.1.3H359.3a.4.4,0,0,1-.5-.5.4.4,0,0,1,.1-.3h11.9A.4.4,0,0,1,371,413.2Z"/><path class="cls-7" d="M388.8,425.7a.4.4,0,0,1-.1.3h-.3l-.3-.2-11.6-16.3v16a.5.5,0,0,1-.1.3H376c-.3,0-.4-.2-.4-.5V407.9h.3l.4.2.8,1.2,1.6,2.2,2,2.8,2.2,3.1,2.2,3.1L387,423l1.3,1.9Zm3.5,0a.4.4,0,0,1-.5.5l-.3-.2-16-22.2a.4.4,0,0,1-.1-.3q0-.5.4-.5l.3.2,15.2,21.1V403.4a.4.4,0,0,1,.1-.3h.6a.4.4,0,0,1,.1.3Z"/><path class="cls-8" d="M291,182h5.8a0,0,0,0,1,0,0V376.8a0,0,0,0,1,0,0H291a6.4,6.4,0,0,1-6.4-6.4v-182A6.4,6.4,0,0,1,291,182Z" transform="translate(11.3 570.1) rotate(-90)"/><circle class="cls-4" cx="290.7" cy="279.4" r="2.1"/><polyline class="cls-9" points="250.8 218.7 278.9 180.4 278.9 234.9 250.8 218.7"/><polygon class="cls-10" points="292.2 180.4 320.4 180.4 292.2 234.9 292.2 180.4"/><polygon class="cls-11" points="292.2 234.9 320.4 234.9 292.2 180.4 292.2 234.9"/><circle class="cls-12" cx="89.3" cy="187.8" r="84"/><path class="cls-13" d="M25,179.6a7.9,7.9,0,0,1,2.5.4,4.9,4.9,0,0,1,1.8,1,4.2,4.2,0,0,1,1.1,1.6,5.6,5.6,0,0,1,.4,2,5,5,0,0,1-1.5,3.9,6.4,6.4,0,0,1-4.4,1.4H22.9v6H20.8V180l1-.2H25Zm.2,1.8H22.9V188h1.8a4.5,4.5,0,0,0,2.9-.8,3.2,3.2,0,0,0,.9-2.6Q28.6,181.4,25.2,181.4Z"/><path class="cls-13" d="M34.7,195.8V184.4a16.4,16.4,0,0,1,5.4-.9h1.6l1.7.3-.4,1.9-1.5-.3H40a12.3,12.3,0,0,0-3.2.4v10Z"/><path class="cls-13" d="M56.9,189.8a7.8,7.8,0,0,1-.4,2.6,6,6,0,0,1-1.1,2,5,5,0,0,1-1.7,1.3,5.3,5.3,0,0,1-2.2.5,5.2,5.2,0,0,1-2.2-.5,5,5,0,0,1-1.7-1.3,5.9,5.9,0,0,1-1.1-2,7.8,7.8,0,0,1-.4-2.6,7.9,7.9,0,0,1,.4-2.6,5.8,5.8,0,0,1,1.1-2,5.1,5.1,0,0,1,1.7-1.3,5.2,5.2,0,0,1,2.2-.5,5.3,5.3,0,0,1,2.2.5,5.1,5.1,0,0,1,1.7,1.3,5.8,5.8,0,0,1,1.1,2A7.9,7.9,0,0,1,56.9,189.8Zm-2.2,0a5.3,5.3,0,0,0-.9-3.2,2.8,2.8,0,0,0-2.4-1.2,2.8,2.8,0,0,0-2.4,1.2,6.4,6.4,0,0,0,0,6.4,2.8,2.8,0,0,0,2.4,1.2,2.8,2.8,0,0,0,2.4-1.2A5.3,5.3,0,0,0,54.7,189.8Z"/><path class="cls-13" d="M66.9,194.7l-1.1.4-1.7.2a5.6,5.6,0,0,1-2-.4,4.4,4.4,0,0,1-1.6-1.1,5.1,5.1,0,0,1-1.1-1.8,7.6,7.6,0,0,1-.4-2.6,7.5,7.5,0,0,1,.4-2.4,5.5,5.5,0,0,1,1.1-1.9,5,5,0,0,1,1.8-1.3,5.8,5.8,0,0,1,2.4-.5l2.7.2,1.9.4v10.8a5.2,5.2,0,0,1-1.4,4.1,6.3,6.3,0,0,1-4.3,1.2l-2.1-.2-1.7-.4.4-1.9,1.5.5,1.9.2a3.9,3.9,0,0,0,2.7-.8,3.2,3.2,0,0,0,.8-2.4Zm0-9-.9-.2H64.6a3,3,0,0,0-2.5,1.1,4.9,4.9,0,0,0-.9,3,5.7,5.7,0,0,0,.2,1.8,3.4,3.4,0,0,0,.7,1.2,2.6,2.6,0,0,0,1,.7l1.2.2,1.5-.2,1.2-.5Z"/><path class="cls-13" d="M73.7,195.8V184.4a16.4,16.4,0,0,1,5.4-.9h1.6l1.7.3-.4,1.9-1.5-.3H79a12.3,12.3,0,0,0-3.2.4v10Z"/><path class="cls-13" d="M90.3,183.5a6.7,6.7,0,0,1,2.3.3,3.9,3.9,0,0,1,1.5.9,3.3,3.3,0,0,1,.8,1.5,7.1,7.1,0,0,1,.2,1.9v7.5l-2,.3-2.5.2-1.9-.2a5,5,0,0,1-1.7-.6,3.3,3.3,0,0,1-1.2-1.2,3.8,3.8,0,0,1-.4-1.9,3.2,3.2,0,0,1,.5-1.8,3.6,3.6,0,0,1,1.2-1.2,5.1,5.1,0,0,1,1.6-.6l1.9-.2,2.5.3v-.6a4.7,4.7,0,0,0-.1-1.1,2.3,2.3,0,0,0-.4-.9,2.3,2.3,0,0,0-.9-.7,3.6,3.6,0,0,0-1.4-.2l-2,.2-1.3.3-.3-1.8,1.5-.4Zm.2,10.8H93v-3.6l-1-.2H89.6l-1,.3-.7.6a1.5,1.5,0,0,0-.3.9,1.7,1.7,0,0,0,.8,1.6A4.3,4.3,0,0,0,90.5,194.3Z"/><path class="cls-13" d="M98,184.1a8.2,8.2,0,0,1,2.9-.6l1.4.2a2.8,2.8,0,0,1,1.1.7,3.7,3.7,0,0,1,2.4-.9l1.2.2a2.8,2.8,0,0,1,1,.7,3.5,3.5,0,0,1,.7,1.2,4.7,4.7,0,0,1,.3,1.6v8.6h-2v-8.6a2.2,2.2,0,0,0-.4-1.4,1.3,1.3,0,0,0-1-.5l-.7.2-.6.5a5.3,5.3,0,0,1,.2,1.3v3.9h-2v-4a3,3,0,0,0-.3-1.4,1.2,1.2,0,0,0-1.1-.5l-1.2.2v10.3H98Z"/><path class="cls-13" d="M111,184.1a8.2,8.2,0,0,1,2.9-.6l1.4.2a2.8,2.8,0,0,1,1.1.7,3.7,3.7,0,0,1,2.4-.9l1.2.2a2.8,2.8,0,0,1,1,.7,3.5,3.5,0,0,1,.7,1.2,4.7,4.7,0,0,1,.3,1.6v8.6h-2v-8.6a2.2,2.2,0,0,0-.4-1.4,1.3,1.3,0,0,0-1-.5l-.7.2-.6.5a5.3,5.3,0,0,1,.2,1.3v3.9h-2v-4a3,3,0,0,0-.3-1.4,1.2,1.2,0,0,0-1.1-.5l-1.2.2v10.3h-2Z"/><path class="cls-13" d="M127.8,185.6h-3.5v-1.8h5.6v7.4a4.1,4.1,0,0,0,.5,2.4,1.8,1.8,0,0,0,1.5.6l1.4-.2,1-.4.3,1.8-.4.2-.7.2-.8.2h-.9a5,5,0,0,1-1.9-.3,2.8,2.8,0,0,1-1.2-.9,3.8,3.8,0,0,1-.6-1.5,11.2,11.2,0,0,1-.2-2.1Zm.5-3.7a1.6,1.6,0,0,1-1.2-.5,1.9,1.9,0,0,1,0-2.5,1.7,1.7,0,0,1,2.4,0,1.9,1.9,0,0,1,0,2.5A1.6,1.6,0,0,1,128.3,181.9Z"/><path class="cls-13" d="M137.8,184.1l2.3-.4,2.2-.2a4.9,4.9,0,0,1,3.7,1.2,5.5,5.5,0,0,1,1.2,4v7.1H145v-6.7a7.1,7.1,0,0,0-.2-1.9,2.7,2.7,0,0,0-.6-1.1,2,2,0,0,0-.9-.6l-1.2-.2H141l-1.1.2v10.2h-2.2Z"/><path class="cls-13" d="M157.9,194.7l-1.1.4-1.7.2a5.6,5.6,0,0,1-2-.4,4.4,4.4,0,0,1-1.6-1.1,5.1,5.1,0,0,1-1.1-1.8,7.6,7.6,0,0,1-.4-2.6,7.5,7.5,0,0,1,.4-2.4,5.5,5.5,0,0,1,1.1-1.9,5,5,0,0,1,1.8-1.3,5.8,5.8,0,0,1,2.4-.5l2.7.2,1.9.4v10.8a5.2,5.2,0,0,1-1.4,4.1,6.3,6.3,0,0,1-4.3,1.2l-2.1-.2-1.7-.4.4-1.9,1.5.5,1.9.2a3.9,3.9,0,0,0,2.7-.8,3.2,3.2,0,0,0,.8-2.4Zm0-9-.9-.2h-1.5a3,3,0,0,0-2.5,1.1,4.9,4.9,0,0,0-.9,3,5.7,5.7,0,0,0,.2,1.8,3.4,3.4,0,0,0,.7,1.2,2.6,2.6,0,0,0,1,.7l1.2.2,1.5-.2,1.2-.5Z"/></svg>