<svg xmlns="http://www.w3.org/2000/svg" viewBox="0 0 24 24" width="40" height="40">
  <path fill="#333" d="M12 0C5.37 0 0 5.37 0 12c0 5.3 3.438 9.8 8.207 11.387.6.11.793-.258.793-.574 0-.284-.01-1.032-.015-2.025-3.387.73-4.1-1.633-4.1-1.633-.553-1.4-1.35-1.772-1.35-1.772-1.107-.756.084-.74.084-.74 1.223.086 1.863 1.257 1.863 1.257 1.084 1.855 2.844 1.32 3.53 1.006.11-.78.423-1.317.768-1.62-2.683-.307-5.5-1.34-5.5-5.98 0-1.32.465-2.4 1.23-3.25-.123-.31-.534-1.54.116-3.208 0 0 1.02-.326 3.34 1.24a11.573 11.573 0 0 1 3-.406c1.017.003 2.043.136 3 .406 2.32-1.566 3.34-1.24 3.34-1.24.652 1.668.24 2.898.12 3.208.765.85 1.228 1.93 1.228 3.25 0 4.65-2.824 5.67-5.516 5.97.43.373.82 1.112.82 2.244 0 1.62-.015 2.925-.015 3.325 0 .316.188.688.8.573C20.566 21.795 24 17.293 24 12c0-6.63-5.373-12-12-12z"/>
</svg>